<svg width="513" height="30" viewBox="0 0 513 30" fill="none" xmlns="http://www.w3.org/2000/svg">
<path d="M20.88 14.44C22.48 14.9467 23.7333 15.8 24.64 17C25.5467 18.1733 26 19.6267 26 21.36C26 23.8133 25.04 25.7067 23.12 27.04C21.2267 28.3467 18.4533 29 14.8 29H0.32V0.999998H14C17.4133 0.999998 20.0267 1.65333 21.84 2.96C23.68 4.26666 24.6 6.04 24.6 8.28C24.6 9.64 24.2667 10.8533 23.6 11.92C22.96 12.9867 22.0533 13.8267 20.88 14.44ZM6.76 5.88V12.48H13.2C14.8 12.48 16.0133 12.2 16.84 11.64C17.6667 11.08 18.08 10.2533 18.08 9.16C18.08 8.06667 17.6667 7.25333 16.84 6.72C16.0133 6.16 14.8 5.88 13.2 5.88H6.76ZM14.32 24.12C16.0267 24.12 17.3067 23.84 18.16 23.28C19.04 22.72 19.48 21.8533 19.48 20.68C19.48 18.36 17.76 17.2 14.32 17.2H6.76V24.12H14.32ZM43.5059 0.52C46.0926 0.52 48.3459 1.02667 50.2659 2.04C52.1859 3.05333 53.6793 4.54667 54.7459 6.52C55.8126 8.49333 56.3459 10.88 56.3459 13.68V29H49.8659V22.28H37.0659V29H30.6659V13.68C30.6659 10.88 31.1993 8.49333 32.2659 6.52C33.3326 4.54667 34.8259 3.05333 36.7459 2.04C38.6659 1.02667 40.9193 0.52 43.5059 0.52ZM49.8659 17.08V13.08C49.8659 10.76 49.2926 9.01333 48.1459 7.84C46.9993 6.64 45.4393 6.04 43.4659 6.04C41.4659 6.04 39.8926 6.64 38.7459 7.84C37.6259 9.01333 37.0659 10.76 37.0659 13.08V17.08H49.8659ZM77.5819 0.52C80.9152 0.52 83.5152 1.57333 85.3819 3.68C87.2485 5.76 88.1819 8.73333 88.1819 12.6V29H81.7019V12.8C81.7019 10.56 81.1685 8.88 80.1019 7.76C79.0619 6.61333 77.6085 6.04 75.7419 6.04C73.7685 6.04 72.1819 6.65333 70.9819 7.88C69.8085 9.08 69.2219 10.8667 69.2219 13.24V29H62.7419V0.999998H69.0219V4.4C69.9819 3.12 71.1819 2.16 72.6219 1.52C74.0619 0.853333 75.7152 0.52 77.5819 0.52ZM114.978 8.84C112.578 7.45333 110.004 6.56 107.258 6.16V29H100.778V6.16C98.0311 6.56 95.4445 7.45333 93.0178 8.84L90.8178 4C92.7378 2.85333 94.8178 1.98666 97.0578 1.4C99.2978 0.813332 101.604 0.52 103.978 0.52C106.378 0.52 108.698 0.813332 110.938 1.4C113.204 1.98666 115.284 2.85333 117.178 4L114.978 8.84ZM145.126 0.999998V29H138.846V25.6C136.926 28.1867 134.099 29.48 130.366 29.48C127.059 29.48 124.472 28.44 122.606 26.36C120.766 24.2533 119.846 21.2667 119.846 17.4V0.999998H126.326V17.2C126.326 19.44 126.846 21.1333 127.886 22.28C128.952 23.4 130.392 23.96 132.206 23.96C134.152 23.96 135.712 23.36 136.886 22.16C138.059 20.9333 138.646 19.1333 138.646 16.76V0.999998H145.126ZM164.365 0.52C166.952 0.52 169.205 1.02667 171.125 2.04C173.045 3.05333 174.539 4.54667 175.605 6.52C176.672 8.49333 177.205 10.88 177.205 13.68V29H170.725V22.28H157.925V29H151.525V13.68C151.525 10.88 152.059 8.49333 153.125 6.52C154.192 4.54667 155.685 3.05333 157.605 2.04C159.525 1.02667 161.779 0.52 164.365 0.52ZM170.725 17.08V13.08C170.725 10.76 170.152 9.01333 169.005 7.84C167.859 6.64 166.299 6.04 164.325 6.04C162.325 6.04 160.752 6.64 159.605 7.84C158.485 9.01333 157.925 10.76 157.925 13.08V17.08H170.725ZM198.441 0.52C201.775 0.52 204.375 1.57333 206.241 3.68C208.108 5.76 209.041 8.73333 209.041 12.6V29H202.561V12.8C202.561 10.56 202.028 8.88 200.961 7.76C199.921 6.61333 198.468 6.04 196.601 6.04C194.628 6.04 193.041 6.65333 191.841 7.88C190.668 9.08 190.081 10.8667 190.081 13.24V29H183.601V0.999998H189.881V4.4C190.841 3.12 192.041 2.16 193.481 1.52C194.921 0.853333 196.575 0.52 198.441 0.52ZM248.285 29.48L244.925 26.36C242.259 28.44 239.139 29.48 235.565 29.48C233.539 29.48 231.712 29.16 230.085 28.52C228.459 27.8533 227.179 26.9333 226.245 25.76C225.339 24.5867 224.885 23.2667 224.885 21.8C224.885 20.0667 225.365 18.5467 226.325 17.24C227.312 15.9067 228.885 14.64 231.045 13.44C230.032 12.4 229.299 11.4133 228.845 10.48C228.392 9.52 228.165 8.53333 228.165 7.52C228.165 6.16 228.525 4.96 229.245 3.92C229.965 2.88 230.979 2.08 232.285 1.52C233.619 0.933331 235.152 0.639998 236.885 0.639998C239.312 0.639998 241.259 1.22667 242.725 2.4C244.192 3.54667 244.925 5.10667 244.925 7.08C244.925 8.52 244.485 9.8 243.605 10.92C242.752 12.04 241.365 13.12 239.445 14.16L244.565 18.92C245.179 17.64 245.645 16.1867 245.965 14.56L250.965 16.12C250.432 18.6 249.579 20.72 248.405 22.48L251.685 25.52L248.285 29.48ZM236.885 4.88C235.952 4.88 235.205 5.12 234.645 5.6C234.112 6.08 233.845 6.69333 233.845 7.44C233.845 8 233.992 8.53333 234.285 9.04C234.579 9.52 235.152 10.1733 236.005 11C237.365 10.28 238.312 9.64 238.845 9.08C239.379 8.49333 239.645 7.86667 239.645 7.2C239.645 6.50667 239.405 5.94667 238.925 5.52C238.445 5.09333 237.765 4.88 236.885 4.88ZM236.005 24.6C237.952 24.6 239.699 24.0533 241.245 22.96L234.485 16.64C233.232 17.36 232.339 18.0667 231.805 18.76C231.272 19.4533 231.005 20.24 231.005 21.12C231.005 22.16 231.459 23 232.365 23.64C233.272 24.28 234.485 24.6 236.005 24.6ZM267.195 0.999998H279.915C282.955 0.999998 285.635 1.58667 287.955 2.76C290.302 3.90667 292.115 5.53333 293.395 7.64C294.702 9.74667 295.355 12.2 295.355 15C295.355 17.8 294.702 20.2533 293.395 22.36C292.115 24.4667 290.302 26.1067 287.955 27.28C285.635 28.4267 282.955 29 279.915 29H267.195V0.999998ZM279.595 23.68C282.395 23.68 284.622 22.9067 286.275 21.36C287.955 19.7867 288.795 17.6667 288.795 15C288.795 12.3333 287.955 10.2267 286.275 8.68C284.622 7.10667 282.395 6.32 279.595 6.32H273.675V23.68H279.595ZM325.282 0.999998V29H319.002V25.6C317.082 28.1867 314.255 29.48 310.522 29.48C307.215 29.48 304.629 28.44 302.762 26.36C300.922 24.2533 300.002 21.2667 300.002 17.4V0.999998H306.482V17.2C306.482 19.44 307.002 21.1333 308.042 22.28C309.109 23.4 310.549 23.96 312.362 23.96C314.309 23.96 315.869 23.36 317.042 22.16C318.215 20.9333 318.802 19.1333 318.802 16.76V0.999998H325.282ZM342.122 18L338.362 21.92V29H331.922V0.999998H338.362V14.08L350.762 0.999998H357.962L346.362 13.48L358.642 29H351.082L342.122 18ZM386.18 0.999998V29H379.9V25.6C377.98 28.1867 375.154 29.48 371.42 29.48C368.114 29.48 365.527 28.44 363.66 26.36C361.82 24.2533 360.9 21.2667 360.9 17.4V0.999998H367.38V17.2C367.38 19.44 367.9 21.1333 368.94 22.28C370.007 23.4 371.447 23.96 373.26 23.96C375.207 23.96 376.767 23.36 377.94 22.16C379.114 20.9333 379.7 19.1333 379.7 16.76V0.999998H386.18ZM407.66 0.52C410.993 0.52 413.593 1.57333 415.46 3.68C417.327 5.76 418.26 8.73333 418.26 12.6V29H411.78V12.8C411.78 10.56 411.247 8.88 410.18 7.76C409.14 6.61333 407.687 6.04 405.82 6.04C403.847 6.04 402.26 6.65333 401.06 7.88C399.887 9.08 399.3 10.8667 399.3 13.24V29H392.82V0.999998H399.1V4.4C400.06 3.12 401.26 2.16 402.7 1.52C404.14 0.853333 405.793 0.52 407.66 0.52ZM443.576 14.56H449.496V29H444.616V27.32C442.669 28.76 440.163 29.48 437.096 29.48C434.509 29.48 432.136 28.92 429.976 27.8C427.816 26.68 426.096 25.0533 424.816 22.92C423.536 20.76 422.896 18.2 422.896 15.24C422.896 12.3867 423.549 9.85333 424.856 7.64C426.189 5.4 428.029 3.65333 430.376 2.4C432.723 1.14667 435.363 0.52 438.296 0.52C440.749 0.52 442.976 0.933332 444.976 1.76C446.976 2.58666 448.656 3.78667 450.016 5.36L445.856 9.2C443.856 7.09333 441.443 6.04 438.616 6.04C436.829 6.04 435.243 6.42667 433.856 7.2C432.469 7.94667 431.389 9.01333 430.616 10.4C429.843 11.7867 429.456 13.3867 429.456 15.2C429.456 17.0933 429.829 18.7067 430.576 20.04C431.349 21.3733 432.376 22.3867 433.656 23.08C434.936 23.7467 436.336 24.08 437.856 24.08C440.123 24.08 442.029 23.44 443.576 22.16V14.56ZM468.115 0.52C470.702 0.52 472.955 1.02667 474.875 2.04C476.795 3.05333 478.289 4.54667 479.355 6.52C480.422 8.49333 480.955 10.88 480.955 13.68V29H474.475V22.28H461.675V29H455.275V13.68C455.275 10.88 455.809 8.49333 456.875 6.52C457.942 4.54667 459.435 3.05333 461.355 2.04C463.275 1.02667 465.529 0.52 468.115 0.52ZM474.475 17.08V13.08C474.475 10.76 473.902 9.01333 472.755 7.84C471.609 6.64 470.049 6.04 468.075 6.04C466.075 6.04 464.502 6.64 463.355 7.84C462.235 9.01333 461.675 10.76 461.675 13.08V17.08H474.475ZM502.191 0.52C505.525 0.52 508.125 1.57333 509.991 3.68C511.858 5.76 512.791 8.73333 512.791 12.6V29H506.311V12.8C506.311 10.56 505.778 8.88 504.711 7.76C503.671 6.61333 502.218 6.04 500.351 6.04C498.378 6.04 496.791 6.65333 495.591 7.88C494.418 9.08 493.831 10.8667 493.831 13.24V29H487.351V0.999998H493.631V4.4C494.591 3.12 495.791 2.16 497.231 1.52C498.671 0.853333 500.325 0.52 502.191 0.52Z" fill="white"/>
</svg>
