<svg width="32" height="25" viewBox="0 0 32 25" fill="none" xmlns="http://www.w3.org/2000/svg">
<path d="M5.0013 12.3301C5.02463 10.8513 5.53613 9.40639 6.48439 8.14054C7.43265 6.8747 8.78424 5.83256 10.4033 5.1189C12.0224 4.40523 13.8519 4.0452 15.7079 4.07497C17.5638 4.10475 19.3809 4.52329 20.9764 5.28853C21.1955 5.39203 21.4564 5.42258 21.7021 5.37354C21.9479 5.32449 22.1587 5.19982 22.2884 5.02673C22.4181 4.85364 22.4562 4.64619 22.3944 4.44964C22.3327 4.25309 22.1761 4.08341 21.9588 3.97761C19.5943 2.84359 16.8322 2.36018 14.1007 2.60235C11.3692 2.84453 8.82104 3.79875 6.85138 5.31704C4.88172 6.83533 3.60063 8.83284 3.2068 10.9998C2.81296 13.1667 3.32839 15.382 4.67314 17.302C6.0179 19.2221 8.11683 20.7396 10.6444 21.6192C13.172 22.4989 15.987 22.6915 18.6528 22.1672C21.3187 21.6429 23.6864 20.431 25.3888 18.7195C27.0911 17.008 28.033 14.8924 28.0684 12.7009C28.0716 12.4978 27.9735 12.3014 27.7955 12.1549C27.6176 12.0084 27.3744 11.9238 27.1195 11.9197C26.8646 11.9156 26.6188 11.9924 26.4363 12.1331C26.2537 12.2738 26.1494 12.4669 26.1461 12.67C26.1104 14.9042 24.9623 17.0289 22.9544 18.5768C20.9465 20.1247 18.2432 20.969 15.4392 20.9239C12.6352 20.8788 9.96024 19.9481 8.00276 18.3364C6.04528 16.7248 4.96562 14.5643 5.0013 12.3301Z" fill="#003CD7"/>
<path d="M29.8236 5.61142C29.9141 5.54166 29.9863 5.45827 30.0362 5.36602C30.086 5.27377 30.1125 5.17446 30.1141 5.07377C30.1157 4.97307 30.0924 4.87297 30.0456 4.77916C29.9987 4.68536 29.9291 4.59969 29.8409 4.52705C29.7527 4.45441 29.6475 4.39623 29.5314 4.35582C29.4152 4.31541 29.2904 4.29356 29.164 4.29153C29.0377 4.2895 28.9122 4.30732 28.7948 4.34398C28.6775 4.38064 28.5705 4.43541 28.48 4.50517L15.5421 14.4804L10.5205 10.3444C10.4323 10.2718 10.3271 10.2136 10.211 10.1732C10.0948 10.1328 9.97 10.111 9.84363 10.1089C9.71725 10.1069 9.59179 10.1247 9.47442 10.1614C9.35705 10.198 9.25006 10.2528 9.15956 10.3226C9.06906 10.3923 8.99683 10.4757 8.94698 10.568C8.89713 10.6602 8.87065 10.7595 8.86904 10.8602C8.86743 10.9609 8.89073 11.061 8.93761 11.1548C8.98448 11.2486 9.05402 11.3343 9.14224 11.4069L14.8356 16.0944C14.9238 16.1672 15.0289 16.2255 15.1451 16.266C15.2612 16.3064 15.3861 16.3283 15.5125 16.3304C15.6389 16.3324 15.7644 16.3145 15.8818 16.2778C15.9992 16.2411 16.1062 16.1862 16.1966 16.1163L29.8236 5.61142Z" fill="#003CD7"/>
</svg>
