<svg width="35" height="32" viewBox="0 0 35 32" fill="none" xmlns="http://www.w3.org/2000/svg">
<path d="M2.94371 15.9045C2.97894 13.6767 3.60003 11.4974 4.74454 9.5858C5.88905 7.6742 7.51665 6.09762 9.46373 5.01456C11.4108 3.9315 13.6087 3.38012 15.8366 3.41584C18.0644 3.45157 20.2437 4.07314 22.1553 5.21808C22.4177 5.37291 22.7307 5.41767 23.026 5.34257C23.3213 5.26747 23.5749 5.07863 23.7314 4.81724C23.8879 4.55585 23.9347 4.24315 23.8616 3.94736C23.7884 3.65157 23.6012 3.39672 23.3409 3.23842C20.508 1.54171 17.1946 0.827065 13.9145 1.20533C10.6343 1.58359 7.57077 3.03362 5.19889 5.33054C2.82702 7.62745 1.2794 10.6429 0.79603 13.9092C0.312665 17.1755 0.920574 20.5102 2.52548 23.396C4.13038 26.2818 6.64259 28.5576 9.6725 29.8703C12.7024 31.183 16.0807 31.4593 19.2834 30.6564C22.4861 29.8534 25.3343 28.0162 27.3863 25.4294C29.4382 22.8427 30.5793 19.6511 30.6324 16.3496C30.6373 16.0436 30.5204 15.7482 30.3075 15.5284C30.0946 15.3085 29.8031 15.1823 29.4972 15.1774C29.1912 15.1724 28.8958 15.2893 28.676 15.5022C28.4562 15.715 28.3299 16.0065 28.325 16.3125C28.2713 19.6783 26.8827 22.8847 24.4647 25.2264C22.0467 27.5681 18.7975 28.8533 15.4317 28.7992C12.0659 28.7451 8.85936 27.3562 6.51741 24.9379C4.17546 22.5197 2.88996 19.2703 2.94371 15.9045Z" fill="#003CD7"/>
<path d="M33.8855 4.56408C34.0015 4.44973 34.0942 4.31326 34.1583 4.16245C34.2225 4.01164 34.2569 3.84945 34.2595 3.68515C34.2621 3.52084 34.2329 3.35763 34.1736 3.20484C34.1143 3.05204 34.026 2.91266 33.9138 2.79464C33.8016 2.67663 33.6676 2.58229 33.5196 2.51701C33.3715 2.45174 33.2123 2.41681 33.0509 2.41422C32.8896 2.41162 32.7293 2.44142 32.5793 2.5019C32.4292 2.56238 32.2923 2.65237 32.1764 2.76671L15.6022 19.1168L9.21467 12.397C9.10245 12.279 8.96849 12.1846 8.82044 12.1194C8.6724 12.0541 8.51316 12.0192 8.35183 12.0166C8.1905 12.014 8.03023 12.0438 7.88017 12.1043C7.73012 12.1647 7.59321 12.2547 7.47728 12.3691C7.36135 12.4834 7.26865 12.6199 7.20449 12.7707C7.14032 12.9215 7.10595 13.0837 7.10332 13.248C7.1007 13.4123 7.12988 13.5755 7.18919 13.7283C7.24851 13.8811 7.3368 14.0205 7.44902 14.1385L14.6911 21.7545C14.8032 21.8727 14.9372 21.9672 15.0852 22.0326C15.2333 22.0979 15.3926 22.1329 15.554 22.1355C15.7153 22.1381 15.8757 22.1083 16.0257 22.0477C16.1758 21.9871 16.3127 21.8969 16.4285 21.7824L33.8855 4.56408V4.56408Z" fill="#003CD7"/>
</svg>
