<svg width="175" height="30" viewBox="0 0 175 30" fill="none" xmlns="http://www.w3.org/2000/svg">
<path d="M15.72 29.48C12.8667 29.48 10.28 28.8667 7.96 27.64C5.66667 26.3867 3.85333 24.6667 2.52 22.48C1.21333 20.2667 0.56 17.7733 0.56 15C0.56 12.2267 1.21333 9.74667 2.52 7.56C3.85333 5.34667 5.66667 3.62667 7.96 2.4C10.28 1.14667 12.88 0.52 15.76 0.52C18.1867 0.52 20.3733 0.946666 22.32 1.8C24.2933 2.65333 25.9467 3.88 27.28 5.48L23.12 9.32C21.2267 7.13333 18.88 6.04 16.08 6.04C14.3467 6.04 12.8 6.42667 11.44 7.2C10.08 7.94667 9.01333 9 8.24 10.36C7.49333 11.72 7.12 13.2667 7.12 15C7.12 16.7333 7.49333 18.28 8.24 19.64C9.01333 21 10.08 22.0667 11.44 22.84C12.8 23.5867 14.3467 23.96 16.08 23.96C18.88 23.96 21.2267 22.8533 23.12 20.64L27.28 24.48C25.9467 26.1067 24.2933 27.3467 22.32 28.2C20.3467 29.0533 18.1467 29.48 15.72 29.48ZM44.63 29.48C41.7233 29.48 39.0967 28.8533 36.75 27.6C34.43 26.3467 32.6033 24.6267 31.27 22.44C29.9633 20.2267 29.31 17.7467 29.31 15C29.31 12.2533 29.9633 9.78667 31.27 7.6C32.6033 5.38667 34.43 3.65333 36.75 2.4C39.0967 1.14667 41.7233 0.52 44.63 0.52C47.5367 0.52 50.15 1.14667 52.47 2.4C54.79 3.65333 56.6167 5.38667 57.95 7.6C59.2833 9.78667 59.95 12.2533 59.95 15C59.95 17.7467 59.2833 20.2267 57.95 22.44C56.6167 24.6267 54.79 26.3467 52.47 27.6C50.15 28.8533 47.5367 29.48 44.63 29.48ZM44.63 23.96C46.2833 23.96 47.7767 23.5867 49.11 22.84C50.4433 22.0667 51.4833 21 52.23 19.64C53.0033 18.28 53.39 16.7333 53.39 15C53.39 13.2667 53.0033 11.72 52.23 10.36C51.4833 9 50.4433 7.94667 49.11 7.2C47.7767 6.42667 46.2833 6.04 44.63 6.04C42.9767 6.04 41.4833 6.42667 40.15 7.2C38.8167 7.94667 37.7633 9 36.99 10.36C36.2433 11.72 35.87 13.2667 35.87 15C35.87 16.7333 36.2433 18.28 36.99 19.64C37.7633 21 38.8167 22.0667 40.15 22.84C41.4833 23.5867 42.9767 23.96 44.63 23.96ZM89.86 0.999998V29H83.58V25.6C81.66 28.1867 78.8333 29.48 75.1 29.48C71.7933 29.48 69.2067 28.44 67.34 26.36C65.5 24.2533 64.58 21.2667 64.58 17.4V0.999998H71.06V17.2C71.06 19.44 71.58 21.1333 72.62 22.28C73.6867 23.4 75.1267 23.96 76.94 23.96C78.8867 23.96 80.4467 23.36 81.62 22.16C82.7933 20.9333 83.38 19.1333 83.38 16.76V0.999998H89.86ZM114.34 29L108.94 21.2H108.62H102.98V29H96.4997V0.999998H108.62C111.1 0.999998 113.246 1.41333 115.06 2.24C116.9 3.06667 118.313 4.24 119.3 5.76C120.286 7.28 120.78 9.08 120.78 11.16C120.78 13.24 120.273 15.04 119.26 16.56C118.273 18.0533 116.86 19.2 115.02 20L121.3 29H114.34ZM114.22 11.16C114.22 9.58667 113.713 8.38667 112.7 7.56C111.686 6.70667 110.206 6.28 108.26 6.28H102.98V16.04H108.26C110.206 16.04 111.686 15.6133 112.7 14.76C113.713 13.9067 114.22 12.7067 114.22 11.16ZM135.114 29.48C132.9 29.48 130.754 29.1867 128.674 28.6C126.62 27.9867 124.967 27.2 123.714 26.24L125.914 21.36C127.114 22.24 128.54 22.9467 130.194 23.48C131.847 24.0133 133.5 24.28 135.154 24.28C136.994 24.28 138.354 24.0133 139.234 23.48C140.114 22.92 140.554 22.1867 140.554 21.28C140.554 20.6133 140.287 20.0667 139.754 19.64C139.247 19.1867 138.58 18.8267 137.754 18.56C136.954 18.2933 135.86 18 134.474 17.68C132.34 17.1733 130.594 16.6667 129.234 16.16C127.874 15.6533 126.7 14.84 125.714 13.72C124.754 12.6 124.274 11.1067 124.274 9.24C124.274 7.61333 124.714 6.14667 125.594 4.84C126.474 3.50667 127.794 2.45333 129.554 1.68C131.34 0.906666 133.514 0.52 136.074 0.52C137.86 0.52 139.607 0.733332 141.314 1.16C143.02 1.58667 144.514 2.2 145.794 3L143.794 7.92C141.207 6.45333 138.62 5.72 136.034 5.72C134.22 5.72 132.874 6.01333 131.994 6.6C131.14 7.18667 130.714 7.96 130.714 8.92C130.714 9.88 131.207 10.6 132.194 11.08C133.207 11.5333 134.74 11.9867 136.794 12.44C138.927 12.9467 140.674 13.4533 142.034 13.96C143.394 14.4667 144.554 15.2667 145.514 16.36C146.5 17.4533 146.994 18.9333 146.994 20.8C146.994 22.4 146.54 23.8667 145.634 25.2C144.754 26.5067 143.42 27.5467 141.634 28.32C139.847 29.0933 137.674 29.48 135.114 29.48ZM174.302 26.6C172.968 27.5067 171.288 28.2133 169.262 28.72C167.262 29.2267 165.128 29.48 162.862 29.48C160.035 29.48 157.635 29.1333 155.662 28.44C153.688 27.72 152.195 26.7333 151.182 25.48C150.168 24.2 149.662 22.7467 149.662 21.12C149.662 19.6267 150.075 18.3067 150.902 17.16C151.728 16.0133 152.862 15.16 154.302 14.6C153.208 14.0133 152.355 13.2133 151.742 12.2C151.155 11.1867 150.862 10.0533 150.862 8.8C150.862 7.28 151.328 5.89333 152.262 4.64C153.195 3.38667 154.608 2.38667 156.502 1.64C158.395 0.893333 160.715 0.52 163.462 0.52C165.275 0.52 167.048 0.706666 168.782 1.08C170.515 1.42666 172.022 1.90666 173.302 2.52L171.502 7.48C169.048 6.33333 166.448 5.76 163.702 5.76C161.622 5.76 160.048 6.08 158.982 6.72C157.942 7.33333 157.422 8.17333 157.422 9.24C157.422 10.2267 157.768 10.9867 158.462 11.52C159.182 12.0267 160.262 12.28 161.702 12.28H169.342V17.4H161.302C159.675 17.4 158.422 17.68 157.542 18.24C156.662 18.8 156.222 19.6133 156.222 20.68C156.222 21.8 156.782 22.68 157.902 23.32C159.048 23.9333 160.795 24.24 163.142 24.24C164.795 24.24 166.448 24.0267 168.102 23.6C169.755 23.1467 171.155 22.52 172.302 21.72L174.302 26.6Z" fill="white"/>
</svg>
