<svg width="40" height="40" viewBox="0 0 40 40" fill="none" xmlns="http://www.w3.org/2000/svg">
<path d="M30 17.5V9.99999L26.4834 11.7667C26.6 12.2667 26.6667 12.7833 26.6667 13.3333C26.6667 17.0167 23.6834 20 20 20C16.3167 20 13.3334 17.0167 13.3334 13.3333C13.3334 12.7833 13.4 12.2667 13.5167 11.7667L8.33335 9.16666L20 3.33333L31.6667 9.16666V17.5H30ZM20 15L16.6667 13.3333C16.6667 15.1667 18.1667 16.6667 20 16.6667C21.8334 16.6667 23.3334 15.1667 23.3334 13.3333L20 15ZM24.5834 9.03333L20.2667 6.83333L15.7834 9.11666L20.1167 11.3167L24.5834 9.03333ZM20 21.6667C24.45 21.6667 33.3334 23.8833 33.3334 28.3333V33.3333H6.66669V28.3333C6.66669 23.8833 15.55 21.6667 20 21.6667ZM20 24.8333C15 24.8333 9.83335 27.2667 9.83335 28.3333V30.1667H30.1667V28.3333C30.1667 27.2667 24.95 24.8333 20 24.8333Z" fill="white"/>
</svg>
