<svg width="277" height="30" viewBox="0 0 277 30" fill="none" xmlns="http://www.w3.org/2000/svg">
<path d="M0.32 0.999998H13.04C16.08 0.999998 18.76 1.58667 21.08 2.76C23.4267 3.90667 25.24 5.53333 26.52 7.64C27.8267 9.74667 28.48 12.2 28.48 15C28.48 17.8 27.8267 20.2533 26.52 22.36C25.24 24.4667 23.4267 26.1067 21.08 27.28C18.76 28.4267 16.08 29 13.04 29H0.32V0.999998ZM12.72 23.68C15.52 23.68 17.7467 22.9067 19.4 21.36C21.08 19.7867 21.92 17.6667 21.92 15C21.92 12.3333 21.08 10.2267 19.4 8.68C17.7467 7.10667 15.52 6.32 12.72 6.32H6.8V23.68H12.72ZM45.9669 0.52C48.5535 0.52 50.8069 1.02667 52.7269 2.04C54.6469 3.05333 56.1402 4.54667 57.2069 6.52C58.2735 8.49333 58.8069 10.88 58.8069 13.68V29H52.3269V22.28H39.5269V29H33.1269V13.68C33.1269 10.88 33.6602 8.49333 34.7269 6.52C35.7935 4.54667 37.2869 3.05333 39.2069 2.04C41.1269 1.02667 43.3802 0.52 45.9669 0.52ZM52.3269 17.08V13.08C52.3269 10.76 51.7535 9.01333 50.6069 7.84C49.4602 6.64 47.9002 6.04 45.9269 6.04C43.9269 6.04 42.3535 6.64 41.2069 7.84C40.0869 9.01333 39.5269 10.76 39.5269 13.08V17.08H52.3269ZM74.4028 29.48C72.1895 29.48 70.0428 29.1867 67.9628 28.6C65.9095 27.9867 64.2561 27.2 63.0028 26.24L65.2028 21.36C66.4028 22.24 67.8295 22.9467 69.4828 23.48C71.1361 24.0133 72.7895 24.28 74.4428 24.28C76.2828 24.28 77.6428 24.0133 78.5228 23.48C79.4028 22.92 79.8428 22.1867 79.8428 21.28C79.8428 20.6133 79.5761 20.0667 79.0428 19.64C78.5361 19.1867 77.8695 18.8267 77.0428 18.56C76.2428 18.2933 75.1495 18 73.7628 17.68C71.6295 17.1733 69.8828 16.6667 68.5228 16.16C67.1628 15.6533 65.9895 14.84 65.0028 13.72C64.0428 12.6 63.5628 11.1067 63.5628 9.24C63.5628 7.61333 64.0028 6.14667 64.8828 4.84C65.7628 3.50667 67.0828 2.45333 68.8428 1.68C70.6295 0.906666 72.8028 0.52 75.3628 0.52C77.1495 0.52 78.8961 0.733332 80.6028 1.16C82.3095 1.58667 83.8028 2.2 85.0828 3L83.0828 7.92C80.4961 6.45333 77.9095 5.72 75.3228 5.72C73.5095 5.72 72.1628 6.01333 71.2828 6.6C70.4295 7.18667 70.0028 7.96 70.0028 8.92C70.0028 9.88 70.4961 10.6 71.4828 11.08C72.4961 11.5333 74.0295 11.9867 76.0828 12.44C78.2161 12.9467 79.9628 13.4533 81.3228 13.96C82.6828 14.4667 83.8428 15.2667 84.8028 16.36C85.7895 17.4533 86.2828 18.9333 86.2828 20.8C86.2828 22.4 85.8295 23.8667 84.9228 25.2C84.0428 26.5067 82.7095 27.5467 80.9228 28.32C79.1361 29.0933 76.9628 29.48 74.4028 29.48ZM116.391 0.999998V29H109.911V17.52H97.1906V29H90.7106V0.999998H97.1906V12.04H109.911V0.999998H116.391ZM143.575 14.44C145.175 14.9467 146.429 15.8 147.335 17C148.242 18.1733 148.695 19.6267 148.695 21.36C148.695 23.8133 147.735 25.7067 145.815 27.04C143.922 28.3467 141.149 29 137.495 29H123.015V0.999998H136.695C140.109 0.999998 142.722 1.65333 144.535 2.96C146.375 4.26666 147.295 6.04 147.295 8.28C147.295 9.64 146.962 10.8533 146.295 11.92C145.655 12.9867 144.749 13.8267 143.575 14.44ZM129.455 5.88V12.48H135.895C137.495 12.48 138.709 12.2 139.535 11.64C140.362 11.08 140.775 10.2533 140.775 9.16C140.775 8.06667 140.362 7.25333 139.535 6.72C138.709 6.16 137.495 5.88 135.895 5.88H129.455ZM137.015 24.12C138.722 24.12 140.002 23.84 140.855 23.28C141.735 22.72 142.175 21.8533 142.175 20.68C142.175 18.36 140.455 17.2 137.015 17.2H129.455V24.12H137.015ZM167.161 29.48C164.255 29.48 161.628 28.8533 159.281 27.6C156.961 26.3467 155.135 24.6267 153.801 22.44C152.495 20.2267 151.841 17.7467 151.841 15C151.841 12.2533 152.495 9.78667 153.801 7.6C155.135 5.38667 156.961 3.65333 159.281 2.4C161.628 1.14667 164.255 0.52 167.161 0.52C170.068 0.52 172.681 1.14667 175.001 2.4C177.321 3.65333 179.148 5.38667 180.481 7.6C181.815 9.78667 182.481 12.2533 182.481 15C182.481 17.7467 181.815 20.2267 180.481 22.44C179.148 24.6267 177.321 26.3467 175.001 27.6C172.681 28.8533 170.068 29.48 167.161 29.48ZM167.161 23.96C168.815 23.96 170.308 23.5867 171.641 22.84C172.975 22.0667 174.015 21 174.761 19.64C175.535 18.28 175.921 16.7333 175.921 15C175.921 13.2667 175.535 11.72 174.761 10.36C174.015 9 172.975 7.94667 171.641 7.2C170.308 6.42667 168.815 6.04 167.161 6.04C165.508 6.04 164.015 6.42667 162.681 7.2C161.348 7.94667 160.295 9 159.521 10.36C158.775 11.72 158.401 13.2667 158.401 15C158.401 16.7333 158.775 18.28 159.521 19.64C160.295 21 161.348 22.0667 162.681 22.84C164.015 23.5867 165.508 23.96 167.161 23.96ZM199.951 0.52C202.538 0.52 204.791 1.02667 206.711 2.04C208.631 3.05333 210.125 4.54667 211.191 6.52C212.258 8.49333 212.791 10.88 212.791 13.68V29H206.311V22.28H193.511V29H187.111V13.68C187.111 10.88 187.645 8.49333 188.711 6.52C189.778 4.54667 191.271 3.05333 193.191 2.04C195.111 1.02667 197.365 0.52 199.951 0.52ZM206.311 17.08V13.08C206.311 10.76 205.738 9.01333 204.591 7.84C203.445 6.64 201.885 6.04 199.911 6.04C197.911 6.04 196.338 6.64 195.191 7.84C194.071 9.01333 193.511 10.76 193.511 13.08V17.08H206.311ZM237.027 29L231.627 21.2H231.307H225.667V29H219.187V0.999998H231.307C233.787 0.999998 235.934 1.41333 237.747 2.24C239.587 3.06667 241.001 4.24 241.987 5.76C242.974 7.28 243.467 9.08 243.467 11.16C243.467 13.24 242.961 15.04 241.947 16.56C240.961 18.0533 239.547 19.2 237.707 20L243.987 29H237.027ZM236.907 11.16C236.907 9.58667 236.401 8.38667 235.387 7.56C234.374 6.70667 232.894 6.28 230.947 6.28H225.667V16.04H230.947C232.894 16.04 234.374 15.6133 235.387 14.76C236.401 13.9067 236.907 12.7067 236.907 11.16ZM248.601 0.999998H261.321C264.361 0.999998 267.041 1.58667 269.361 2.76C271.708 3.90667 273.521 5.53333 274.801 7.64C276.108 9.74667 276.761 12.2 276.761 15C276.761 17.8 276.108 20.2533 274.801 22.36C273.521 24.4667 271.708 26.1067 269.361 27.28C267.041 28.4267 264.361 29 261.321 29H248.601V0.999998ZM261.001 23.68C263.801 23.68 266.028 22.9067 267.681 21.36C269.361 19.7867 270.201 17.6667 270.201 15C270.201 12.3333 269.361 10.2267 267.681 8.68C266.028 7.10667 263.801 6.32 261.001 6.32H255.081V23.68H261.001Z" fill="white"/>
</svg>
