<svg width="40" height="40" viewBox="0 0 40 40" fill="none" xmlns="http://www.w3.org/2000/svg">
<g clip-path="url(#clip0_26_56)">
<path d="M25 6.66667V18.3333H8.61665L6.66665 20.2833V6.66667H25ZM26.6666 3.33334H4.99998C4.08331 3.33334 3.33331 4.08334 3.33331 5V28.3333L9.99998 21.6667H26.6666C27.5833 21.6667 28.3333 20.9167 28.3333 20V5C28.3333 4.08334 27.5833 3.33334 26.6666 3.33334ZM33.3333 13.3333H30V28.3333H9.99998V31.6667C9.99998 32.5833 10.75 33.3333 11.6666 33.3333H30L36.6666 40V11.6667C36.6666 10.75 35.9166 10 35 10L33.3333 13.3333Z" fill="white"/>
</g>
<defs>
<clipPath id="clip0_26_56">
<rect width="40" height="40" fill="white"/>
</clipPath>
</defs>
</svg>
