<svg width="162" height="30" viewBox="0 0 162 30" fill="none" xmlns="http://www.w3.org/2000/svg">
<path d="M13.36 6.04C11.12 6.04 9.42667 6.53333 8.28 7.52C7.13333 8.48 6.56 9.93333 6.56 11.88V13.6H18.08V18.8H6.56V29H0.0800003V11.92C0.0800003 8.32 1.2 5.52 3.44 3.52C5.70667 1.52 8.86667 0.52 12.92 0.52C14.52 0.52 16.0267 0.693332 17.44 1.04C18.8533 1.36 20.08 1.84 21.12 2.48L19.12 7.6C17.52 6.56 15.6 6.04 13.36 6.04ZM38.0206 29.48C35.114 29.48 32.4873 28.8533 30.1406 27.6C27.8206 26.3467 25.994 24.6267 24.6606 22.44C23.354 20.2267 22.7006 17.7467 22.7006 15C22.7006 12.2533 23.354 9.78667 24.6606 7.6C25.994 5.38667 27.8206 3.65333 30.1406 2.4C32.4873 1.14667 35.114 0.52 38.0206 0.52C40.9273 0.52 43.5406 1.14667 45.8606 2.4C48.1806 3.65333 50.0073 5.38667 51.3406 7.6C52.674 9.78667 53.3406 12.2533 53.3406 15C53.3406 17.7467 52.674 20.2267 51.3406 22.44C50.0073 24.6267 48.1806 26.3467 45.8606 27.6C43.5406 28.8533 40.9273 29.48 38.0206 29.48ZM38.0206 23.96C39.674 23.96 41.1673 23.5867 42.5006 22.84C43.834 22.0667 44.874 21 45.6206 19.64C46.394 18.28 46.7806 16.7333 46.7806 15C46.7806 13.2667 46.394 11.72 45.6206 10.36C44.874 9 43.834 7.94667 42.5006 7.2C41.1673 6.42667 39.674 6.04 38.0206 6.04C36.3673 6.04 34.874 6.42667 33.5406 7.2C32.2073 7.94667 31.154 9 30.3806 10.36C29.634 11.72 29.2606 13.2667 29.2606 15C29.2606 16.7333 29.634 18.28 30.3806 19.64C31.154 21 32.2073 22.0667 33.5406 22.84C34.874 23.5867 36.3673 23.96 38.0206 23.96ZM76.0506 29L70.6506 21.2H70.3306H64.6906V29H58.2106V0.999998H70.3306C72.8106 0.999998 74.9573 1.41333 76.7706 2.24C78.6106 3.06667 80.024 4.24 81.0106 5.76C81.9973 7.28 82.4906 9.08 82.4906 11.16C82.4906 13.24 81.984 15.04 80.9706 16.56C79.984 18.0533 78.5706 19.2 76.7306 20L83.0106 29H76.0506ZM75.9306 11.16C75.9306 9.58667 75.424 8.38667 74.4106 7.56C73.3973 6.70667 71.9173 6.28 69.9706 6.28H64.6906V16.04H69.9706C71.9173 16.04 73.3973 15.6133 74.4106 14.76C75.424 13.9067 75.9306 12.7067 75.9306 11.16ZM112.665 0.999998V29H106.385V25.6C104.465 28.1867 101.638 29.48 97.9047 29.48C94.598 29.48 92.0114 28.44 90.1447 26.36C88.3047 24.2533 87.3847 21.2667 87.3847 17.4V0.999998H93.8647V17.2C93.8647 19.44 94.3847 21.1333 95.4247 22.28C96.4914 23.4 97.9314 23.96 99.7447 23.96C101.691 23.96 103.251 23.36 104.425 22.16C105.598 20.9333 106.185 19.1333 106.185 16.76V0.999998H112.665ZM151.264 0.52C154.571 0.52 157.144 1.49333 158.984 3.44C160.824 5.36 161.744 8.14667 161.744 11.8V29H155.264V12C155.264 10.0267 154.744 8.54667 153.704 7.56C152.691 6.54667 151.344 6.04 149.664 6.04C147.824 6.04 146.358 6.57333 145.264 7.64C144.171 8.68 143.624 10.2667 143.624 12.4V29H137.144V12C137.144 10.0267 136.664 8.54667 135.704 7.56C134.744 6.54667 133.438 6.04 131.784 6.04C129.971 6.04 128.518 6.57333 127.424 7.64C126.331 8.68 125.784 10.2667 125.784 12.4V29H119.304V0.999998H125.584V4.44C126.438 3.18667 127.571 2.22667 128.984 1.56C130.398 0.866666 132.024 0.52 133.864 0.52C135.784 0.52 137.464 0.879999 138.904 1.6C140.344 2.29333 141.451 3.30667 142.224 4.64C143.184 3.30667 144.438 2.29333 145.984 1.6C147.558 0.879999 149.318 0.52 151.264 0.52Z" fill="white"/>
</svg>
