<svg width="68" height="26" viewBox="0 0 68 26" fill="none" xmlns="http://www.w3.org/2000/svg">
<rect width="68" height="26" rx="5" fill="#B6E5FF"/>
<path d="M12.15 15.525L12.045 13.215L17.55 7.5H19.74L15.165 12.36L14.085 13.545L12.15 15.525ZM10.41 18V7.5H12.36V18H10.41ZM17.73 18L13.71 13.215L15 11.79L20.01 18H17.73ZM24.5712 18.105C23.6812 18.105 22.9012 17.93 22.2312 17.58C21.5712 17.22 21.0562 16.73 20.6862 16.11C20.3262 15.49 20.1462 14.785 20.1462 13.995C20.1462 13.195 20.3212 12.49 20.6712 11.88C21.0312 11.26 21.5212 10.775 22.1412 10.425C22.7712 10.075 23.4862 9.9 24.2862 9.9C25.0662 9.9 25.7612 10.07 26.3712 10.41C26.9812 10.75 27.4612 11.23 27.8112 11.85C28.1612 12.47 28.3362 13.2 28.3362 14.04C28.3362 14.12 28.3312 14.21 28.3212 14.31C28.3212 14.41 28.3162 14.505 28.3062 14.595H21.6312V13.35H27.3162L26.5812 13.74C26.5912 13.28 26.4962 12.875 26.2962 12.525C26.0962 12.175 25.8212 11.9 25.4712 11.7C25.1312 11.5 24.7362 11.4 24.2862 11.4C23.8262 11.4 23.4212 11.5 23.0712 11.7C22.7312 11.9 22.4612 12.18 22.2612 12.54C22.0712 12.89 21.9762 13.305 21.9762 13.785V14.085C21.9762 14.565 22.0862 14.99 22.3062 15.36C22.5262 15.73 22.8362 16.015 23.2362 16.215C23.6362 16.415 24.0962 16.515 24.6162 16.515C25.0662 16.515 25.4712 16.445 25.8312 16.305C26.1912 16.165 26.5112 15.945 26.7912 15.645L27.7962 16.8C27.4362 17.22 26.9812 17.545 26.4312 17.775C25.8912 17.995 25.2712 18.105 24.5712 18.105ZM30.1372 18V6.87H32.0122V18H30.1372ZM37.8632 18.105C37.1832 18.105 36.5832 17.98 36.0632 17.73C35.5432 17.47 35.1382 17.08 34.8482 16.56C34.5582 16.03 34.4132 15.365 34.4132 14.565V9.99H36.2882V14.31C36.2882 15.03 36.4482 15.57 36.7682 15.93C37.0982 16.28 37.5632 16.455 38.1632 16.455C38.6032 16.455 38.9832 16.365 39.3032 16.185C39.6332 16.005 39.8882 15.735 40.0682 15.375C40.2582 15.015 40.3532 14.57 40.3532 14.04V9.99H42.2282V18H40.4432V15.84L40.7582 16.5C40.4882 17.02 40.0932 17.42 39.5732 17.7C39.0532 17.97 38.4832 18.105 37.8632 18.105ZM49.6181 18V16.38L49.5131 16.035V13.2C49.5131 12.65 49.3481 12.225 49.0181 11.925C48.6881 11.615 48.1881 11.46 47.5181 11.46C47.0681 11.46 46.6231 11.53 46.1831 11.67C45.7531 11.81 45.3881 12.005 45.0881 12.255L44.3531 10.89C44.7831 10.56 45.2931 10.315 45.8831 10.155C46.4831 9.985 47.1031 9.9 47.7431 9.9C48.9031 9.9 49.7981 10.18 50.4281 10.74C51.0681 11.29 51.3881 12.145 51.3881 13.305V18H49.6181ZM47.0981 18.105C46.4981 18.105 45.9731 18.005 45.5231 17.805C45.0731 17.595 44.7231 17.31 44.4731 16.95C44.2331 16.58 44.1131 16.165 44.1131 15.705C44.1131 15.255 44.2181 14.85 44.4281 14.49C44.6481 14.13 45.0031 13.845 45.4931 13.635C45.9831 13.425 46.6331 13.32 47.4431 13.32H49.7681V14.565H47.5781C46.9381 14.565 46.5081 14.67 46.2881 14.88C46.0681 15.08 45.9581 15.33 45.9581 15.63C45.9581 15.97 46.0931 16.24 46.3631 16.44C46.6331 16.64 47.0081 16.74 47.4881 16.74C47.9481 16.74 48.3581 16.635 48.7181 16.425C49.0881 16.215 49.3531 15.905 49.5131 15.495L49.8281 16.62C49.6481 17.09 49.3231 17.455 48.8531 17.715C48.3931 17.975 47.8081 18.105 47.0981 18.105ZM53.7945 18V9.99H55.5795V12.195L55.3695 11.55C55.6095 11.01 55.9845 10.6 56.4945 10.32C57.0145 10.04 57.6595 9.9 58.4295 9.9V11.685C58.3495 11.665 58.2745 11.655 58.2045 11.655C58.1345 11.645 58.0645 11.64 57.9945 11.64C57.2845 11.64 56.7195 11.85 56.2995 12.27C55.8795 12.68 55.6695 13.295 55.6695 14.115V18H53.7945Z" fill="#003CD7"/>
</svg>
