<svg width="62" height="62" viewBox="0 0 62 62" fill="none" xmlns="http://www.w3.org/2000/svg">
<circle cx="31" cy="31" r="29.5" stroke="#B6E5FF" stroke-width="3"/>
<path d="M30.7143 20C29.1893 20 27.7268 20.6058 26.6484 21.6841C25.5701 22.7625 24.9643 24.225 24.9643 25.75C24.9643 27.275 25.5701 28.7375 26.6484 29.8159C27.7268 30.8942 29.1893 31.5 30.7143 31.5C32.2393 31.5 33.7018 30.8942 34.7802 29.8159C35.8585 28.7375 36.4643 27.275 36.4643 25.75C36.4643 24.225 35.8585 22.7625 34.7802 21.6841C33.7018 20.6058 32.2393 20 30.7143 20M30.7143 23.2857C31.3679 23.2857 31.9947 23.5453 32.4568 24.0075C32.9189 24.4696 33.1786 25.0964 33.1786 25.75C33.1786 26.4036 32.9189 27.0304 32.4568 27.4925C31.9947 27.9547 31.3679 28.2143 30.7143 28.2143C30.0607 28.2143 29.4339 27.9547 28.9718 27.4925C28.5096 27.0304 28.25 26.4036 28.25 25.75C28.25 25.0964 28.5096 24.4696 28.9718 24.0075C29.4339 23.5453 30.0607 23.2857 30.7143 23.2857ZM20.0357 24.9286C18.9464 24.9286 17.9018 25.3613 17.1315 26.1315C16.3613 26.9018 15.9286 27.9464 15.9286 29.0357C15.9286 30.58 16.7993 31.9107 18.0479 32.6171C18.6393 32.9457 19.3129 33.1429 20.0357 33.1429C20.7586 33.1429 21.4321 32.9457 22.0236 32.6171C22.6314 32.2721 23.1407 31.7793 23.5186 31.1879C22.3193 29.6271 21.6786 27.7214 21.6786 25.75C21.6786 25.6021 21.6786 25.4379 21.6786 25.29C21.1857 25.06 20.6271 24.9286 20.0357 24.9286ZM41.3929 24.9286C40.8014 24.9286 40.2429 25.06 39.75 25.29C39.75 25.4379 39.75 25.6021 39.75 25.75C39.75 27.7214 39.1093 29.6271 37.91 31.1879C38.1071 31.5 38.3207 31.7464 38.5671 31.9929C38.83 32.2393 39.0929 32.4529 39.405 32.6171C39.9964 32.9457 40.67 33.1429 41.3929 33.1429C42.1157 33.1429 42.7893 32.9457 43.3807 32.6171C44.6293 31.9107 45.5 30.58 45.5 29.0357C45.5 27.9464 45.0673 26.9018 44.297 26.1315C43.5268 25.3613 42.4821 24.9286 41.3929 24.9286ZM30.7143 34.7857C26.87 34.7857 19.2143 36.7079 19.2143 40.5357V43H42.2143V40.5357C42.2143 36.7079 34.5586 34.7857 30.7143 34.7857ZM18.7379 35.6893C15.5671 36.0671 11 37.6771 11 40.5357V43H15.9286V39.8293C15.9286 38.17 17.0621 36.79 18.7379 35.6893ZM42.6907 35.6893C44.3664 36.79 45.5 38.17 45.5 39.8293V43H50.4286V40.5357C50.4286 37.6771 45.8614 36.0671 42.6907 35.6893ZM30.7143 38.0714C33.2279 38.0714 36.0371 38.8929 37.6636 39.7143H23.765C25.3914 38.8929 28.2007 38.0714 30.7143 38.0714Z" fill="#003CD7"/>
</svg>
