<svg width="23" height="21" viewBox="0 0 23 21" fill="none" xmlns="http://www.w3.org/2000/svg">
<g clip-path="url(#clip0_132_34)">
<path d="M11.5 19.6875C8.83126 19.6875 6.27182 18.7195 4.38474 16.9965C2.49765 15.2736 1.4375 12.9367 1.4375 10.5C1.4375 8.06332 2.49765 5.72645 4.38474 4.00346C6.27182 2.28047 8.83126 1.3125 11.5 1.3125C14.1687 1.3125 16.7282 2.28047 18.6153 4.00346C20.5023 5.72645 21.5625 8.06332 21.5625 10.5C21.5625 12.9367 20.5023 15.2736 18.6153 16.9965C16.7282 18.7195 14.1687 19.6875 11.5 19.6875ZM11.5 21C14.55 21 17.4751 19.8938 19.6317 17.9246C21.7884 15.9555 23 13.2848 23 10.5C23 7.71523 21.7884 5.04451 19.6317 3.07538C17.4751 1.10625 14.55 0 11.5 0C8.45001 0 5.52494 1.10625 3.36827 3.07538C1.2116 5.04451 0 7.71523 0 10.5C0 13.2848 1.2116 15.9555 3.36827 17.9246C5.52494 19.8938 8.45001 21 11.5 21Z" fill="black"/>
<path d="M12.8368 8.64675L9.54493 9.02344L9.42706 9.52219L10.0739 9.63112C10.4966 9.723 10.5799 9.86213 10.4879 10.2467L9.42706 14.7984C9.14818 15.9757 9.57799 16.5296 10.5886 16.5296C11.372 16.5296 12.2819 16.1989 12.6945 15.7448L12.821 15.1987C12.5335 15.4297 12.1137 15.5216 11.8349 15.5216C11.4396 15.5216 11.2958 15.2683 11.3979 14.8221L12.8368 8.64675ZM12.9374 5.90625C12.9374 6.25435 12.786 6.58819 12.5164 6.83433C12.2468 7.08047 11.8812 7.21875 11.4999 7.21875C11.1187 7.21875 10.753 7.08047 10.4835 6.83433C10.2139 6.58819 10.0624 6.25435 10.0624 5.90625C10.0624 5.55815 10.2139 5.22431 10.4835 4.97817C10.753 4.73203 11.1187 4.59375 11.4999 4.59375C11.8812 4.59375 12.2468 4.73203 12.5164 4.97817C12.786 5.22431 12.9374 5.55815 12.9374 5.90625Z" fill="black"/>
</g>
<defs>
<clipPath id="clip0_132_34">
<rect width="23" height="21" fill="white"/>
</clipPath>
</defs>
</svg>
