<svg width="111" height="49" viewBox="0 0 111 49" fill="none" xmlns="http://www.w3.org/2000/svg">
<path d="M0.992 2.2H4.88V15.832H13.304V19H0.992V2.2ZM21.6226 16.192C22.2946 16.192 22.8866 16.096 23.3986 15.904C23.9266 15.696 24.4146 15.376 24.8626 14.944L26.8546 17.104C25.6386 18.496 23.8626 19.192 21.5266 19.192C20.0706 19.192 18.7826 18.912 17.6626 18.352C16.5426 17.776 15.6786 16.984 15.0706 15.976C14.4626 14.968 14.1586 13.824 14.1586 12.544C14.1586 11.28 14.4546 10.144 15.0466 9.136C15.6546 8.112 16.4786 7.32 17.5186 6.76C18.5746 6.184 19.7586 5.896 21.0706 5.896C22.3026 5.896 23.4226 6.16 24.4306 6.688C25.4386 7.2 26.2386 7.952 26.8306 8.944C27.4386 9.92 27.7426 11.08 27.7426 12.424L18.1906 14.272C18.4626 14.912 18.8866 15.392 19.4626 15.712C20.0546 16.032 20.7746 16.192 21.6226 16.192ZM21.0706 8.728C20.1266 8.728 19.3586 9.032 18.7666 9.64C18.1746 10.248 17.8626 11.088 17.8306 12.16L24.1186 10.936C23.9426 10.264 23.5826 9.728 23.0386 9.328C22.4946 8.928 21.8386 8.728 21.0706 8.728ZM43.3633 6.088V19H39.7873V17.512C38.8593 18.632 37.5153 19.192 35.7553 19.192C34.5393 19.192 33.4353 18.92 32.4433 18.376C31.4673 17.832 30.6993 17.056 30.1393 16.048C29.5793 15.04 29.2993 13.872 29.2993 12.544C29.2993 11.216 29.5793 10.048 30.1393 9.04C30.6993 8.032 31.4673 7.256 32.4433 6.712C33.4353 6.168 34.5393 5.896 35.7553 5.896C37.4033 5.896 38.6913 6.416 39.6193 7.456V6.088H43.3633ZM36.4033 16.12C37.3473 16.12 38.1313 15.8 38.7553 15.16C39.3793 14.504 39.6913 13.632 39.6913 12.544C39.6913 11.456 39.3793 10.592 38.7553 9.952C38.1313 9.296 37.3473 8.968 36.4033 8.968C35.4433 8.968 34.6513 9.296 34.0273 9.952C33.4033 10.592 33.0913 11.456 33.0913 12.544C33.0913 13.632 33.4033 14.504 34.0273 15.16C34.6513 15.8 35.4433 16.12 36.4033 16.12ZM50.4056 7.792C50.8536 7.168 51.4536 6.696 52.2056 6.376C52.9736 6.056 53.8536 5.896 54.8456 5.896V9.352C54.4296 9.32 54.1496 9.304 54.0056 9.304C52.9336 9.304 52.0936 9.608 51.4856 10.216C50.8776 10.808 50.5736 11.704 50.5736 12.904V19H46.8296V6.088H50.4056V7.792ZM64.9198 5.896C66.5198 5.896 67.8078 6.376 68.7838 7.336C69.7758 8.296 70.2718 9.72 70.2718 11.608V19H66.5278V12.184C66.5278 11.16 66.3038 10.4 65.8558 9.904C65.4078 9.392 64.7598 9.136 63.9118 9.136C62.9678 9.136 62.2158 9.432 61.6558 10.024C61.0958 10.6 60.8158 11.464 60.8158 12.616V19H57.0718V6.088H60.6478V7.6C61.1438 7.056 61.7598 6.64 62.4958 6.352C63.2318 6.048 64.0398 5.896 64.9198 5.896ZM73.6655 6.088H77.4095V19H73.6655V6.088ZM75.5375 4.288C74.8495 4.288 74.2895 4.088 73.8575 3.688C73.4255 3.288 73.2095 2.792 73.2095 2.2C73.2095 1.608 73.4255 1.112 73.8575 0.711999C74.2895 0.311999 74.8495 0.111999 75.5375 0.111999C76.2255 0.111999 76.7855 0.303999 77.2175 0.688C77.6495 1.072 77.8655 1.552 77.8655 2.128C77.8655 2.752 77.6495 3.272 77.2175 3.688C76.7855 4.088 76.2255 4.288 75.5375 4.288ZM88.7323 5.896C90.3323 5.896 91.6203 6.376 92.5963 7.336C93.5883 8.296 94.0843 9.72 94.0843 11.608V19H90.3403V12.184C90.3403 11.16 90.1163 10.4 89.6683 9.904C89.2203 9.392 88.5723 9.136 87.7243 9.136C86.7803 9.136 86.0283 9.432 85.4683 10.024C84.9083 10.6 84.6283 11.464 84.6283 12.616V19H80.8843V6.088H84.4603V7.6C84.9563 7.056 85.5723 6.64 86.3083 6.352C87.0443 6.048 87.8523 5.896 88.7323 5.896ZM110.939 6.088V16.84C110.939 19.208 110.323 20.968 109.091 22.12C107.859 23.272 106.059 23.848 103.691 23.848C102.443 23.848 101.259 23.696 100.139 23.392C99.0186 23.088 98.0906 22.648 97.3546 22.072L98.8426 19.384C99.3866 19.832 100.075 20.184 100.907 20.44C101.739 20.712 102.571 20.848 103.403 20.848C104.699 20.848 105.651 20.552 106.259 19.96C106.883 19.384 107.195 18.504 107.195 17.32V16.768C106.219 17.84 104.859 18.376 103.115 18.376C101.931 18.376 100.843 18.12 99.8506 17.608C98.8746 17.08 98.0986 16.344 97.5226 15.4C96.9466 14.456 96.6586 13.368 96.6586 12.136C96.6586 10.904 96.9466 9.816 97.5226 8.872C98.0986 7.928 98.8746 7.2 99.8506 6.688C100.843 6.16 101.931 5.896 103.115 5.896C104.987 5.896 106.411 6.512 107.387 7.744V6.088H110.939ZM103.859 15.304C104.851 15.304 105.659 15.016 106.283 14.44C106.923 13.848 107.243 13.08 107.243 12.136C107.243 11.192 106.923 10.432 106.283 9.856C105.659 9.264 104.851 8.968 103.859 8.968C102.867 8.968 102.051 9.264 101.411 9.856C100.771 10.432 100.451 11.192 100.451 12.136C100.451 13.08 100.771 13.848 101.411 14.44C102.051 15.016 102.867 15.304 103.859 15.304ZM11.696 48L8.456 43.32H8.264H4.88V48H0.992V31.2H8.264C9.752 31.2 11.04 31.448 12.128 31.944C13.232 32.44 14.08 33.144 14.672 34.056C15.264 34.968 15.56 36.048 15.56 37.296C15.56 38.544 15.256 39.624 14.648 40.536C14.056 41.432 13.208 42.12 12.104 42.6L15.872 48H11.696ZM11.624 37.296C11.624 36.352 11.32 35.632 10.712 35.136C10.104 34.624 9.216 34.368 8.048 34.368H4.88V40.224H8.048C9.216 40.224 10.104 39.968 10.712 39.456C11.32 38.944 11.624 38.224 11.624 37.296ZM24.5204 48.192C23.1604 48.192 21.9364 47.912 20.8484 47.352C19.7764 46.776 18.9364 45.984 18.3284 44.976C17.7204 43.968 17.4164 42.824 17.4164 41.544C17.4164 40.264 17.7204 39.12 18.3284 38.112C18.9364 37.104 19.7764 36.32 20.8484 35.76C21.9364 35.184 23.1604 34.896 24.5204 34.896C25.8804 34.896 27.0964 35.184 28.1684 35.76C29.2404 36.32 30.0804 37.104 30.6884 38.112C31.2964 39.12 31.6004 40.264 31.6004 41.544C31.6004 42.824 31.2964 43.968 30.6884 44.976C30.0804 45.984 29.2404 46.776 28.1684 47.352C27.0964 47.912 25.8804 48.192 24.5204 48.192ZM24.5204 45.12C25.4804 45.12 26.2644 44.8 26.8724 44.16C27.4964 43.504 27.8084 42.632 27.8084 41.544C27.8084 40.456 27.4964 39.592 26.8724 38.952C26.2644 38.296 25.4804 37.968 24.5204 37.968C23.5604 37.968 22.7684 38.296 22.1444 38.952C21.5204 39.592 21.2084 40.456 21.2084 41.544C21.2084 42.632 21.5204 43.504 22.1444 44.16C22.7684 44.8 23.5604 45.12 24.5204 45.12ZM40.247 48.192C38.887 48.192 37.663 47.912 36.575 47.352C35.503 46.776 34.663 45.984 34.055 44.976C33.447 43.968 33.143 42.824 33.143 41.544C33.143 40.264 33.447 39.12 34.055 38.112C34.663 37.104 35.503 36.32 36.575 35.76C37.663 35.184 38.887 34.896 40.247 34.896C41.607 34.896 42.823 35.184 43.895 35.76C44.967 36.32 45.807 37.104 46.415 38.112C47.023 39.12 47.327 40.264 47.327 41.544C47.327 42.824 47.023 43.968 46.415 44.976C45.807 45.984 44.967 46.776 43.895 47.352C42.823 47.912 41.607 48.192 40.247 48.192ZM40.247 45.12C41.207 45.12 41.991 44.8 42.599 44.16C43.223 43.504 43.535 42.632 43.535 41.544C43.535 40.456 43.223 39.592 42.599 38.952C41.991 38.296 41.207 37.968 40.247 37.968C39.287 37.968 38.495 38.296 37.871 38.952C37.247 39.592 36.935 40.456 36.935 41.544C36.935 42.632 37.247 43.504 37.871 44.16C38.495 44.8 39.287 45.12 40.247 45.12ZM66.3656 34.896C67.9816 34.896 69.2616 35.376 70.2056 36.336C71.1656 37.28 71.6456 38.704 71.6456 40.608V48H67.9016V41.184C67.9016 40.16 67.6856 39.4 67.2536 38.904C66.8376 38.392 66.2376 38.136 65.4536 38.136C64.5736 38.136 63.8776 38.424 63.3656 39C62.8536 39.56 62.5976 40.4 62.5976 41.52V48H58.8536V41.184C58.8536 39.152 58.0376 38.136 56.4056 38.136C55.5416 38.136 54.8536 38.424 54.3416 39C53.8296 39.56 53.5736 40.4 53.5736 41.52V48H49.8296V35.088H53.4056V36.576C53.8856 36.032 54.4696 35.616 55.1576 35.328C55.8616 35.04 56.6296 34.896 57.4616 34.896C58.3736 34.896 59.1976 35.08 59.9336 35.448C60.6696 35.8 61.2616 36.32 61.7096 37.008C62.2376 36.336 62.9016 35.816 63.7016 35.448C64.5176 35.08 65.4056 34.896 66.3656 34.896Z" fill="#B6E5FF"/>
</svg>
