<svg width="455" height="41" viewBox="0 0 455 41" fill="none" xmlns="http://www.w3.org/2000/svg">
<path d="M32.28 3.52C35.5867 3.52 38.16 4.49333 40 6.44C41.84 8.36 42.76 11.1467 42.76 14.8V32H36.28V15C36.28 13.0267 35.76 11.5467 34.72 10.56C33.7067 9.54667 32.36 9.04 30.68 9.04C28.84 9.04 27.3733 9.57333 26.28 10.64C25.1867 11.68 24.64 13.2667 24.64 15.4V32H18.16V15C18.16 13.0267 17.68 11.5467 16.72 10.56C15.76 9.54667 14.4533 9.04 12.8 9.04C10.9867 9.04 9.53333 9.57333 8.44 10.64C7.34667 11.68 6.8 13.2667 6.8 15.4V32H0.32V4H6.6V7.44C7.45333 6.18667 8.58667 5.22667 10 4.56C11.4133 3.86667 13.04 3.52 14.88 3.52C16.8 3.52 18.48 3.88 19.92 4.6C21.36 5.29333 22.4667 6.30667 23.24 7.64C24.2 6.30667 25.4533 5.29333 27 4.6C28.5733 3.88 30.3333 3.52 32.28 3.52ZM70.5481 10.48V32H64.5881V29.52C63.0415 31.3867 60.8015 32.32 57.8681 32.32C55.8415 32.32 54.0015 31.8667 52.3481 30.96C50.7215 30.0533 49.4415 28.76 48.5081 27.08C47.5748 25.4 47.1081 23.4533 47.1081 21.24C47.1081 19.0267 47.5748 17.08 48.5081 15.4C49.4415 13.72 50.7215 12.4267 52.3481 11.52C54.0015 10.6133 55.8415 10.16 57.8681 10.16C60.6148 10.16 62.7615 11.0267 64.3081 12.76V10.48H70.5481ZM58.9481 27.2C60.5215 27.2 61.8281 26.6667 62.8681 25.6C63.9081 24.5067 64.4281 23.0533 64.4281 21.24C64.4281 19.4267 63.9081 17.9867 62.8681 16.92C61.8281 15.8267 60.5215 15.28 58.9481 15.28C57.3481 15.28 56.0281 15.8267 54.9881 16.92C53.9481 17.9867 53.4281 19.4267 53.4281 21.24C53.4281 23.0533 53.9481 24.5067 54.9881 25.6C56.0281 26.6667 57.3481 27.2 58.9481 27.2ZM89.2853 30.96C88.672 31.4133 87.912 31.76 87.0053 32C86.1253 32.2133 85.2053 32.32 84.2453 32.32C81.6586 32.32 79.672 31.6667 78.2853 30.36C76.8986 29.0533 76.2053 27.1333 76.2053 24.6V5.72H82.4453V10.96H87.7653V15.76H82.4453V24.52C82.4453 25.4267 82.672 26.1333 83.1253 26.64C83.5786 27.12 84.232 27.36 85.0853 27.36C86.0453 27.36 86.8986 27.0933 87.6453 26.56L89.2853 30.96ZM102.986 27.32C104.106 27.32 105.092 27.16 105.946 26.84C106.826 26.4933 107.639 25.96 108.386 25.24L111.706 28.84C109.679 31.16 106.719 32.32 102.826 32.32C100.399 32.32 98.2523 31.8533 96.3856 30.92C94.519 29.96 93.079 28.64 92.0656 26.96C91.0523 25.28 90.5456 23.3733 90.5456 21.24C90.5456 19.1333 91.039 17.24 92.0256 15.56C93.039 13.8533 94.4123 12.5333 96.1456 11.6C97.9056 10.64 99.879 10.16 102.066 10.16C104.119 10.16 105.986 10.6 107.666 11.48C109.346 12.3333 110.679 13.5867 111.666 15.24C112.679 16.8667 113.186 18.8 113.186 21.04L97.2656 24.12C97.719 25.1867 98.4256 25.9867 99.3856 26.52C100.372 27.0533 101.572 27.32 102.986 27.32ZM102.066 14.88C100.492 14.88 99.2123 15.3867 98.2256 16.4C97.239 17.4133 96.719 18.8133 96.6656 20.6L107.146 18.56C106.852 17.44 106.252 16.5467 105.346 15.88C104.439 15.2133 103.346 14.88 102.066 14.88ZM123.34 13.32C124.087 12.28 125.087 11.4933 126.34 10.96C127.62 10.4267 129.087 10.16 130.74 10.16V15.92C130.047 15.8667 129.58 15.84 129.34 15.84C127.553 15.84 126.153 16.3467 125.14 17.36C124.127 18.3467 123.62 19.84 123.62 21.84V32H117.38V10.48H123.34V13.32ZM134.45 10.48H140.69V32H134.45V10.48ZM137.57 7.48C136.424 7.48 135.49 7.14667 134.77 6.48C134.05 5.81333 133.69 4.98666 133.69 4C133.69 3.01333 134.05 2.18667 134.77 1.52C135.49 0.853331 136.424 0.519998 137.57 0.519998C138.717 0.519998 139.65 0.839998 140.37 1.48C141.09 2.12 141.45 2.92 141.45 3.88C141.45 4.92 141.09 5.78667 140.37 6.48C139.65 7.14667 138.717 7.48 137.57 7.48ZM170.37 4C172.85 4 174.996 4.41333 176.81 5.24C178.65 6.06667 180.063 7.24 181.05 8.76C182.036 10.28 182.53 12.08 182.53 14.16C182.53 16.2133 182.036 18.0133 181.05 19.56C180.063 21.08 178.65 22.2533 176.81 23.08C174.996 23.88 172.85 24.28 170.37 24.28H164.73V32H158.25V4H170.37ZM170.01 19C171.956 19 173.436 18.5867 174.45 17.76C175.463 16.9067 175.97 15.7067 175.97 14.16C175.97 12.5867 175.463 11.3867 174.45 10.56C173.436 9.70667 171.956 9.28 170.01 9.28H164.73V19H170.01ZM197.517 27.32C198.637 27.32 199.624 27.16 200.477 26.84C201.357 26.4933 202.17 25.96 202.917 25.24L206.237 28.84C204.21 31.16 201.25 32.32 197.357 32.32C194.93 32.32 192.784 31.8533 190.917 30.92C189.05 29.96 187.61 28.64 186.597 26.96C185.584 25.28 185.077 23.3733 185.077 21.24C185.077 19.1333 185.57 17.24 186.557 15.56C187.57 13.8533 188.944 12.5333 190.677 11.6C192.437 10.64 194.41 10.16 196.597 10.16C198.65 10.16 200.517 10.6 202.197 11.48C203.877 12.3333 205.21 13.5867 206.197 15.24C207.21 16.8667 207.717 18.8 207.717 21.04L191.797 24.12C192.25 25.1867 192.957 25.9867 193.917 26.52C194.904 27.0533 196.104 27.32 197.517 27.32ZM196.597 14.88C195.024 14.88 193.744 15.3867 192.757 16.4C191.77 17.4133 191.25 18.8133 191.197 20.6L201.677 18.56C201.384 17.44 200.784 16.5467 199.877 15.88C198.97 15.2133 197.877 14.88 196.597 14.88ZM239.471 10.16C242.165 10.16 244.298 10.96 245.871 12.56C247.471 14.1333 248.271 16.5067 248.271 19.68V32H242.031V20.64C242.031 18.9333 241.671 17.6667 240.951 16.84C240.258 15.9867 239.258 15.56 237.951 15.56C236.485 15.56 235.325 16.04 234.471 17C233.618 17.9333 233.191 19.3333 233.191 21.2V32H226.951V20.64C226.951 17.2533 225.591 15.56 222.871 15.56C221.431 15.56 220.285 16.04 219.431 17C218.578 17.9333 218.151 19.3333 218.151 21.2V32H211.911V10.48H217.871V12.96C218.671 12.0533 219.645 11.36 220.791 10.88C221.965 10.4 223.245 10.16 224.631 10.16C226.151 10.16 227.525 10.4667 228.751 11.08C229.978 11.6667 230.965 12.5333 231.711 13.68C232.591 12.56 233.698 11.6933 235.031 11.08C236.391 10.4667 237.871 10.16 239.471 10.16ZM266.584 10.16C268.584 10.16 270.398 10.6267 272.024 11.56C273.678 12.4667 274.971 13.76 275.904 15.44C276.838 17.0933 277.304 19.0267 277.304 21.24C277.304 23.4533 276.838 25.4 275.904 27.08C274.971 28.7333 273.678 30.0267 272.024 30.96C270.398 31.8667 268.584 32.32 266.584 32.32C263.624 32.32 261.371 31.3867 259.824 29.52V32H253.864V2.32H260.104V12.76C261.678 11.0267 263.838 10.16 266.584 10.16ZM265.504 27.2C267.104 27.2 268.411 26.6667 269.424 25.6C270.464 24.5067 270.984 23.0533 270.984 21.24C270.984 19.4267 270.464 17.9867 269.424 16.92C268.411 15.8267 267.104 15.28 265.504 15.28C263.904 15.28 262.584 15.8267 261.544 16.92C260.531 17.9867 260.024 19.4267 260.024 21.24C260.024 23.0533 260.531 24.5067 261.544 25.6C262.584 26.6667 263.904 27.2 265.504 27.2ZM292.322 27.32C293.442 27.32 294.428 27.16 295.282 26.84C296.162 26.4933 296.975 25.96 297.722 25.24L301.042 28.84C299.015 31.16 296.055 32.32 292.162 32.32C289.735 32.32 287.588 31.8533 285.722 30.92C283.855 29.96 282.415 28.64 281.402 26.96C280.388 25.28 279.882 23.3733 279.882 21.24C279.882 19.1333 280.375 17.24 281.362 15.56C282.375 13.8533 283.748 12.5333 285.482 11.6C287.242 10.64 289.215 10.16 291.402 10.16C293.455 10.16 295.322 10.6 297.002 11.48C298.682 12.3333 300.015 13.5867 301.002 15.24C302.015 16.8667 302.522 18.8 302.522 21.04L286.602 24.12C287.055 25.1867 287.762 25.9867 288.722 26.52C289.708 27.0533 290.908 27.32 292.322 27.32ZM291.402 14.88C289.828 14.88 288.548 15.3867 287.562 16.4C286.575 17.4133 286.055 18.8133 286.002 20.6L296.482 18.56C296.188 17.44 295.588 16.5467 294.682 15.88C293.775 15.2133 292.682 14.88 291.402 14.88ZM314.436 32.32C312.009 32.32 310.116 31.68 308.756 30.4C307.396 29.0933 306.716 27.2533 306.716 24.88V2.32H312.956V24.52C312.956 25.4267 313.183 26.1333 313.636 26.64C314.116 27.12 314.783 27.36 315.636 27.36C315.956 27.36 316.276 27.32 316.596 27.24C316.943 27.16 317.209 27.0667 317.396 26.96L317.676 31.8C316.636 32.1467 315.556 32.32 314.436 32.32ZM342.189 10.48V32H336.229V29.52C334.682 31.3867 332.442 32.32 329.509 32.32C327.482 32.32 325.642 31.8667 323.989 30.96C322.362 30.0533 321.082 28.76 320.149 27.08C319.215 25.4 318.749 23.4533 318.749 21.24C318.749 19.0267 319.215 17.08 320.149 15.4C321.082 13.72 322.362 12.4267 323.989 11.52C325.642 10.6133 327.482 10.16 329.509 10.16C332.255 10.16 334.402 11.0267 335.949 12.76V10.48H342.189ZM330.589 27.2C332.162 27.2 333.469 26.6667 334.509 25.6C335.549 24.5067 336.069 23.0533 336.069 21.24C336.069 19.4267 335.549 17.9867 334.509 16.92C333.469 15.8267 332.162 15.28 330.589 15.28C328.989 15.28 327.669 15.8267 326.629 16.92C325.589 17.9867 325.069 19.4267 325.069 21.24C325.069 23.0533 325.589 24.5067 326.629 25.6C327.669 26.6667 328.989 27.2 330.589 27.2ZM346.366 40.08C344.179 40.08 342.513 39.68 341.366 38.88L343.046 34.36C343.766 34.8667 344.646 35.12 345.686 35.12C346.486 35.12 347.113 34.8533 347.566 34.32C348.019 33.8133 348.246 33.04 348.246 32V10.48H354.486V31.96C354.486 34.4667 353.766 36.44 352.326 37.88C350.913 39.3467 348.926 40.08 346.366 40.08ZM351.366 7.48C350.219 7.48 349.286 7.14667 348.566 6.48C347.846 5.81333 347.486 4.98666 347.486 4C347.486 3.01333 347.846 2.18667 348.566 1.52C349.286 0.853331 350.219 0.519998 351.366 0.519998C352.513 0.519998 353.446 0.839998 354.166 1.48C354.886 2.12 355.246 2.92 355.246 3.88C355.246 4.92 354.886 5.78667 354.166 6.48C353.446 7.14667 352.513 7.48 351.366 7.48ZM382.072 10.48V32H376.112V29.52C374.565 31.3867 372.325 32.32 369.392 32.32C367.365 32.32 365.525 31.8667 363.872 30.96C362.245 30.0533 360.965 28.76 360.032 27.08C359.098 25.4 358.632 23.4533 358.632 21.24C358.632 19.0267 359.098 17.08 360.032 15.4C360.965 13.72 362.245 12.4267 363.872 11.52C365.525 10.6133 367.365 10.16 369.392 10.16C372.138 10.16 374.285 11.0267 375.832 12.76V10.48H382.072ZM370.472 27.2C372.045 27.2 373.352 26.6667 374.392 25.6C375.432 24.5067 375.952 23.0533 375.952 21.24C375.952 19.4267 375.432 17.9867 374.392 16.92C373.352 15.8267 372.045 15.28 370.472 15.28C368.872 15.28 367.552 15.8267 366.512 16.92C365.472 17.9867 364.952 19.4267 364.952 21.24C364.952 23.0533 365.472 24.5067 366.512 25.6C367.552 26.6667 368.872 27.2 370.472 27.2ZM393.809 13.32C394.555 12.28 395.555 11.4933 396.809 10.96C398.089 10.4267 399.555 10.16 401.209 10.16V15.92C400.515 15.8667 400.049 15.84 399.809 15.84C398.022 15.84 396.622 16.3467 395.609 17.36C394.595 18.3467 394.089 19.84 394.089 21.84V32H387.849V10.48H393.809V13.32ZM426.564 10.48V32H420.604V29.52C419.057 31.3867 416.817 32.32 413.884 32.32C411.857 32.32 410.017 31.8667 408.364 30.96C406.737 30.0533 405.457 28.76 404.524 27.08C403.59 25.4 403.124 23.4533 403.124 21.24C403.124 19.0267 403.59 17.08 404.524 15.4C405.457 13.72 406.737 12.4267 408.364 11.52C410.017 10.6133 411.857 10.16 413.884 10.16C416.63 10.16 418.777 11.0267 420.324 12.76V10.48H426.564ZM414.964 27.2C416.537 27.2 417.844 26.6667 418.884 25.6C419.924 24.5067 420.444 23.0533 420.444 21.24C420.444 19.4267 419.924 17.9867 418.884 16.92C417.844 15.8267 416.537 15.28 414.964 15.28C413.364 15.28 412.044 15.8267 411.004 16.92C409.964 17.9867 409.444 19.4267 409.444 21.24C409.444 23.0533 409.964 24.5067 411.004 25.6C412.044 26.6667 413.364 27.2 414.964 27.2ZM445.421 10.16C448.088 10.16 450.234 10.96 451.861 12.56C453.514 14.16 454.341 16.5333 454.341 19.68V32H448.101V20.64C448.101 18.9333 447.728 17.6667 446.981 16.84C446.234 15.9867 445.154 15.56 443.741 15.56C442.168 15.56 440.914 16.0533 439.981 17.04C439.048 18 438.581 19.44 438.581 21.36V32H432.341V10.48H438.301V13C439.128 12.0933 440.154 11.4 441.381 10.92C442.608 10.4133 443.954 10.16 445.421 10.16Z" fill="white"/>
</svg>
