<svg width="256" height="30" viewBox="0 0 256 30" fill="none" xmlns="http://www.w3.org/2000/svg">
<path d="M15.16 0.52C18.4933 0.52 21.0933 1.57333 22.96 3.68C24.8267 5.76 25.76 8.73333 25.76 12.6V29H19.28V12.8C19.28 10.56 18.7467 8.88 17.68 7.76C16.64 6.61333 15.1867 6.04 13.32 6.04C11.3467 6.04 9.76 6.65333 8.56 7.88C7.38667 9.08 6.8 10.8667 6.8 13.24V29H0.32V0.999998H6.6V4.4C7.56 3.12 8.76 2.16 10.2 1.52C11.64 0.853333 13.2933 0.52 15.16 0.52ZM45.7159 29.48C42.8093 29.48 40.1826 28.8533 37.8359 27.6C35.5159 26.3467 33.6893 24.6267 32.3559 22.44C31.0493 20.2267 30.3959 17.7467 30.3959 15C30.3959 12.2533 31.0493 9.78667 32.3559 7.6C33.6893 5.38667 35.5159 3.65333 37.8359 2.4C40.1826 1.14667 42.8093 0.52 45.7159 0.52C48.6226 0.52 51.2359 1.14667 53.5559 2.4C55.8759 3.65333 57.7026 5.38667 59.0359 7.6C60.3693 9.78667 61.0359 12.2533 61.0359 15C61.0359 17.7467 60.3693 20.2267 59.0359 22.44C57.7026 24.6267 55.8759 26.3467 53.5559 27.6C51.2359 28.8533 48.6226 29.48 45.7159 29.48ZM45.7159 23.96C47.3693 23.96 48.8626 23.5867 50.1959 22.84C51.5293 22.0667 52.5693 21 53.3159 19.64C54.0893 18.28 54.4759 16.7333 54.4759 15C54.4759 13.2667 54.0893 11.72 53.3159 10.36C52.5693 9 51.5293 7.94667 50.1959 7.2C48.8626 6.42667 47.3693 6.04 45.7159 6.04C44.0626 6.04 42.5693 6.42667 41.2359 7.2C39.9026 7.94667 38.8493 9 38.0759 10.36C37.3293 11.72 36.9559 13.2667 36.9559 15C36.9559 16.7333 37.3293 18.28 38.0759 19.64C38.8493 21 39.9026 22.0667 41.2359 22.84C42.5693 23.5867 44.0626 23.96 45.7159 23.96ZM85.9153 8.84C83.5153 7.45333 80.942 6.56 78.1953 6.16V29H71.7153V6.16C68.9686 6.56 66.382 7.45333 63.9553 8.84L61.7553 4C63.6753 2.85333 65.7553 1.98666 67.9953 1.4C70.2353 0.813332 72.542 0.52 74.9153 0.52C77.3153 0.52 79.6353 0.813332 81.8753 1.4C84.142 1.98666 86.222 2.85333 88.1153 4L85.9153 8.84ZM100.623 6.2V23.8H105.463V29H89.2631V23.8H94.1431V6.2H89.2631V0.999998H105.463V6.2H100.623ZM123.399 6.04C121.159 6.04 119.466 6.53333 118.319 7.52C117.172 8.48 116.599 9.93333 116.599 11.88V13.6H128.119V18.8H116.599V29H110.119V11.92C110.119 8.32 111.239 5.52 113.479 3.52C115.746 1.52 118.906 0.52 122.959 0.52C124.559 0.52 126.066 0.693332 127.479 1.04C128.892 1.36 130.119 1.84 131.159 2.48L129.159 7.6C127.559 6.56 125.639 6.04 123.399 6.04ZM144.568 6.2V23.8H149.408V29H133.208V23.8H138.088V6.2H133.208V0.999998H149.408V6.2H144.568ZM164.504 18L160.744 21.92V29H154.304V0.999998H160.744V14.08L173.144 0.999998H180.344L168.744 13.48L181.024 29H173.464L164.504 18ZM196.123 0.52C198.71 0.52 200.963 1.02667 202.883 2.04C204.803 3.05333 206.296 4.54667 207.363 6.52C208.43 8.49333 208.963 10.88 208.963 13.68V29H202.483V22.28H189.683V29H183.283V13.68C183.283 10.88 183.816 8.49333 184.883 6.52C185.95 4.54667 187.443 3.05333 189.363 2.04C191.283 1.02667 193.536 0.52 196.123 0.52ZM202.483 17.08V13.08C202.483 10.76 201.91 9.01333 200.763 7.84C199.616 6.64 198.056 6.04 196.083 6.04C194.083 6.04 192.51 6.64 191.363 7.84C190.243 9.01333 189.683 10.76 189.683 13.08V17.08H202.483ZM224.559 29.48C222.346 29.48 220.199 29.1867 218.119 28.6C216.066 27.9867 214.412 27.2 213.159 26.24L215.359 21.36C216.559 22.24 217.986 22.9467 219.639 23.48C221.292 24.0133 222.946 24.28 224.599 24.28C226.439 24.28 227.799 24.0133 228.679 23.48C229.559 22.92 229.999 22.1867 229.999 21.28C229.999 20.6133 229.732 20.0667 229.199 19.64C228.692 19.1867 228.026 18.8267 227.199 18.56C226.399 18.2933 225.306 18 223.919 17.68C221.786 17.1733 220.039 16.6667 218.679 16.16C217.319 15.6533 216.146 14.84 215.159 13.72C214.199 12.6 213.719 11.1067 213.719 9.24C213.719 7.61333 214.159 6.14667 215.039 4.84C215.919 3.50667 217.239 2.45333 218.999 1.68C220.786 0.906666 222.959 0.52 225.519 0.52C227.306 0.52 229.052 0.733332 230.759 1.16C232.466 1.58667 233.959 2.2 235.239 3L233.239 7.92C230.652 6.45333 228.066 5.72 225.479 5.72C223.666 5.72 222.319 6.01333 221.439 6.6C220.586 7.18667 220.159 7.96 220.159 8.92C220.159 9.88 220.652 10.6 221.639 11.08C222.652 11.5333 224.186 11.9867 226.239 12.44C228.372 12.9467 230.119 13.4533 231.479 13.96C232.839 14.4667 233.999 15.2667 234.959 16.36C235.946 17.4533 236.439 18.9333 236.439 20.8C236.439 22.4 235.986 23.8667 235.079 25.2C234.199 26.5067 232.866 27.5467 231.079 28.32C229.292 29.0933 227.119 29.48 224.559 29.48ZM250.467 6.2V23.8H255.307V29H239.107V23.8H243.987V6.2H239.107V0.999998H255.307V6.2H250.467Z" fill="white"/>
</svg>
