<svg width="26" height="30" viewBox="0 0 26 30" fill="none" xmlns="http://www.w3.org/2000/svg">
<path d="M10 27.1429H15.7143C15.7143 28.7143 14.4286 30 12.8571 30C11.2857 30 10 28.7143 10 27.1429ZM25.7143 24.2857V25.7143H0V24.2857L2.85714 21.4286V12.8571C2.85714 8.42857 5.71429 4.57143 10 3.28571V2.85714C10 1.28571 11.2857 0 12.8571 0C14.4286 0 15.7143 1.28571 15.7143 2.85714V3.28571C20 4.57143 22.8571 8.42857 22.8571 12.8571V21.4286L25.7143 24.2857ZM20 12.8571C20 8.85714 16.8571 5.71429 12.8571 5.71429C8.85714 5.71429 5.71429 8.85714 5.71429 12.8571V22.8571H20V12.8571Z" fill="#B6E5FF"/>
</svg>
