<svg width="295" height="30" viewBox="0 0 295 30" fill="none" xmlns="http://www.w3.org/2000/svg">
<path d="M12.44 0.999998C14.92 0.999998 17.0667 1.41333 18.88 2.24C20.72 3.06667 22.1333 4.24 23.12 5.76C24.1067 7.28 24.6 9.08 24.6 11.16C24.6 13.2133 24.1067 15.0133 23.12 16.56C22.1333 18.08 20.72 19.2533 18.88 20.08C17.0667 20.88 14.92 21.28 12.44 21.28H6.8V29H0.32V0.999998H12.44ZM12.08 16C14.0267 16 15.5067 15.5867 16.52 14.76C17.5333 13.9067 18.04 12.7067 18.04 11.16C18.04 9.58667 17.5333 8.38667 16.52 7.56C15.5067 6.70667 14.0267 6.28 12.08 6.28H6.8V16H12.08ZM52.3016 26.6C50.9682 27.5067 49.2882 28.2133 47.2616 28.72C45.2616 29.2267 43.1282 29.48 40.8616 29.48C38.0349 29.48 35.6349 29.1333 33.6616 28.44C31.6882 27.72 30.1949 26.7333 29.1816 25.48C28.1682 24.2 27.6616 22.7467 27.6616 21.12C27.6616 19.6267 28.0749 18.3067 28.9016 17.16C29.7282 16.0133 30.8616 15.16 32.3016 14.6C31.2082 14.0133 30.3549 13.2133 29.7416 12.2C29.1549 11.1867 28.8616 10.0533 28.8616 8.8C28.8616 7.28 29.3282 5.89333 30.2616 4.64C31.1949 3.38667 32.6082 2.38667 34.5016 1.64C36.3949 0.893333 38.7149 0.52 41.4616 0.52C43.2749 0.52 45.0482 0.706666 46.7816 1.08C48.5149 1.42666 50.0216 1.90666 51.3016 2.52L49.5016 7.48C47.0482 6.33333 44.4482 5.76 41.7016 5.76C39.6216 5.76 38.0482 6.08 36.9816 6.72C35.9416 7.33333 35.4216 8.17333 35.4216 9.24C35.4216 10.2267 35.7682 10.9867 36.4616 11.52C37.1816 12.0267 38.2616 12.28 39.7016 12.28H47.3416V17.4H39.3016C37.6749 17.4 36.4216 17.68 35.5416 18.24C34.6616 18.8 34.2216 19.6133 34.2216 20.68C34.2216 21.8 34.7816 22.68 35.9016 23.32C37.0482 23.9333 38.7949 24.24 41.1416 24.24C42.7949 24.24 44.4482 24.0267 46.1016 23.6C47.7549 23.1467 49.1549 22.52 50.3016 21.72L52.3016 26.6ZM70.9413 0.52C74.2746 0.52 76.8746 1.57333 78.7413 3.68C80.6079 5.76 81.5413 8.73333 81.5413 12.6V29H75.0613V12.8C75.0613 10.56 74.5279 8.88 73.4613 7.76C72.4213 6.61333 70.9679 6.04 69.1013 6.04C67.1279 6.04 65.5413 6.65333 64.3413 7.88C63.1679 9.08 62.5813 10.8667 62.5813 13.24V29H56.1013V0.999998H62.3813V4.4C63.3413 3.12 64.5413 2.16 65.9813 1.52C67.4213 0.853333 69.0746 0.52 70.9413 0.52ZM106.857 14.56H112.777V29H107.897V27.32C105.951 28.76 103.444 29.48 100.377 29.48C97.7905 29.48 95.4172 28.92 93.2572 27.8C91.0972 26.68 89.3772 25.0533 88.0972 22.92C86.8172 20.76 86.1772 18.2 86.1772 15.24C86.1772 12.3867 86.8305 9.85333 88.1372 7.64C89.4705 5.4 91.3105 3.65333 93.6572 2.4C96.0039 1.14667 98.6439 0.52 101.577 0.52C104.031 0.52 106.257 0.933332 108.257 1.76C110.257 2.58666 111.937 3.78667 113.297 5.36L109.137 9.2C107.137 7.09333 104.724 6.04 101.897 6.04C100.111 6.04 98.5239 6.42667 97.1372 7.2C95.7505 7.94667 94.6705 9.01333 93.8972 10.4C93.1239 11.7867 92.7372 13.3867 92.7372 15.2C92.7372 17.0933 93.1105 18.7067 93.8572 20.04C94.6305 21.3733 95.6572 22.3867 96.9372 23.08C98.2172 23.7467 99.6172 24.08 101.137 24.08C103.404 24.08 105.311 23.44 106.857 22.16V14.56ZM131.397 0.52C133.983 0.52 136.237 1.02667 138.157 2.04C140.077 3.05333 141.57 4.54667 142.637 6.52C143.703 8.49333 144.237 10.88 144.237 13.68V29H137.757V22.28H124.957V29H118.557V13.68C118.557 10.88 119.09 8.49333 120.157 6.52C121.223 4.54667 122.717 3.05333 124.637 2.04C126.557 1.02667 128.81 0.52 131.397 0.52ZM137.757 17.08V13.08C137.757 10.76 137.183 9.01333 136.037 7.84C134.89 6.64 133.33 6.04 131.357 6.04C129.357 6.04 127.783 6.64 126.637 7.84C125.517 9.01333 124.957 10.76 124.957 13.08V17.08H137.757ZM170.642 8.84C168.242 7.45333 165.669 6.56 162.922 6.16V29H156.442V6.16C153.695 6.56 151.109 7.45333 148.682 8.84L146.482 4C148.402 2.85333 150.482 1.98666 152.722 1.4C154.962 0.813332 157.269 0.52 159.642 0.52C162.042 0.52 164.362 0.813332 166.602 1.4C168.869 1.98666 170.949 2.85333 172.842 4L170.642 8.84ZM200.79 0.999998V29H194.51V25.6C192.59 28.1867 189.763 29.48 186.03 29.48C182.723 29.48 180.136 28.44 178.27 26.36C176.43 24.2533 175.51 21.2667 175.51 17.4V0.999998H181.99V17.2C181.99 19.44 182.51 21.1333 183.55 22.28C184.616 23.4 186.056 23.96 187.87 23.96C189.816 23.96 191.376 23.36 192.55 22.16C193.723 20.9333 194.31 19.1333 194.31 16.76V0.999998H200.79ZM225.269 29L219.869 21.2H219.549H213.909V29H207.429V0.999998H219.549C222.029 0.999998 224.176 1.41333 225.989 2.24C227.829 3.06667 229.243 4.24 230.229 5.76C231.216 7.28 231.709 9.08 231.709 11.16C231.709 13.24 231.203 15.04 230.189 16.56C229.203 18.0533 227.789 19.2 225.949 20L232.229 29H225.269ZM225.149 11.16C225.149 9.58667 224.643 8.38667 223.629 7.56C222.616 6.70667 221.136 6.28 219.189 6.28H213.909V16.04H219.189C221.136 16.04 222.616 15.6133 223.629 14.76C224.643 13.9067 225.149 12.7067 225.149 11.16ZM249.443 0.52C252.03 0.52 254.283 1.02667 256.203 2.04C258.123 3.05333 259.617 4.54667 260.683 6.52C261.75 8.49333 262.283 10.88 262.283 13.68V29H255.803V22.28H243.003V29H236.603V13.68C236.603 10.88 237.137 8.49333 238.203 6.52C239.27 4.54667 240.763 3.05333 242.683 2.04C244.603 1.02667 246.857 0.52 249.443 0.52ZM255.803 17.08V13.08C255.803 10.76 255.23 9.01333 254.083 7.84C252.937 6.64 251.377 6.04 249.403 6.04C247.403 6.04 245.83 6.64 244.683 7.84C243.563 9.01333 243.003 10.76 243.003 13.08V17.08H255.803ZM283.519 0.52C286.853 0.52 289.453 1.57333 291.319 3.68C293.186 5.76 294.119 8.73333 294.119 12.6V29H287.639V12.8C287.639 10.56 287.106 8.88 286.039 7.76C284.999 6.61333 283.546 6.04 281.679 6.04C279.706 6.04 278.119 6.65333 276.919 7.88C275.746 9.08 275.159 10.8667 275.159 13.24V29H268.679V0.999998H274.959V4.4C275.919 3.12 277.119 2.16 278.559 1.52C279.999 0.853333 281.653 0.52 283.519 0.52Z" fill="white"/>
</svg>
