<svg width="125" height="29" viewBox="0 0 125 29" fill="none" xmlns="http://www.w3.org/2000/svg">
<path d="M12.44 -1.90735e-06C14.92 -1.90735e-06 17.0667 0.413332 18.88 1.24C20.72 2.06667 22.1333 3.24 23.12 4.76C24.1067 6.28 24.6 8.08 24.6 10.16C24.6 12.2133 24.1067 14.0133 23.12 15.56C22.1333 17.08 20.72 18.2533 18.88 19.08C17.0667 19.88 14.92 20.28 12.44 20.28H6.8V28H0.32V-1.90735e-06H12.44ZM12.08 15C14.0267 15 15.5067 14.5867 16.52 13.76C17.5333 12.9067 18.04 11.7067 18.04 10.16C18.04 8.58667 17.5333 7.38667 16.52 6.56C15.5067 5.70667 14.0267 5.28 12.08 5.28H6.8V15H12.08ZM39.5872 23.32C40.7072 23.32 41.6939 23.16 42.5472 22.84C43.4272 22.4933 44.2405 21.96 44.9872 21.24L48.3072 24.84C46.2805 27.16 43.3205 28.32 39.4272 28.32C37.0005 28.32 34.8539 27.8533 32.9872 26.92C31.1205 25.96 29.6805 24.64 28.6672 22.96C27.6539 21.28 27.1472 19.3733 27.1472 17.24C27.1472 15.1333 27.6405 13.24 28.6272 11.56C29.6405 9.85333 31.0139 8.53333 32.7472 7.6C34.5072 6.64 36.4805 6.16 38.6672 6.16C40.7205 6.16 42.5872 6.6 44.2672 7.48C45.9472 8.33333 47.2805 9.58667 48.2672 11.24C49.2805 12.8667 49.7872 14.8 49.7872 17.04L33.8672 20.12C34.3205 21.1867 35.0272 21.9867 35.9872 22.52C36.9739 23.0533 38.1739 23.32 39.5872 23.32ZM38.6672 10.88C37.0939 10.88 35.8139 11.3867 34.8272 12.4C33.8405 13.4133 33.3205 14.8133 33.2672 16.6L43.7472 14.56C43.4539 13.44 42.8539 12.5467 41.9472 11.88C41.0405 11.2133 39.9472 10.88 38.6672 10.88ZM61.2216 28.32C59.4349 28.32 57.6882 28.1067 55.9816 27.68C54.2749 27.2267 52.9149 26.6667 51.9016 26L53.9816 21.52C54.9416 22.1333 56.1016 22.64 57.4616 23.04C58.8216 23.4133 60.1549 23.6 61.4616 23.6C64.1016 23.6 65.4216 22.9467 65.4216 21.64C65.4216 21.0267 65.0616 20.5867 64.3416 20.32C63.6216 20.0533 62.5149 19.8267 61.0216 19.64C59.2616 19.3733 57.8082 19.0667 56.6616 18.72C55.5149 18.3733 54.5149 17.76 53.6616 16.88C52.8349 16 52.4216 14.7467 52.4216 13.12C52.4216 11.76 52.8082 10.56 53.5816 9.52C54.3816 8.45333 55.5282 7.62667 57.0216 7.04C58.5416 6.45333 60.3282 6.16 62.3816 6.16C63.9016 6.16 65.4082 6.33333 66.9016 6.68C68.4216 7 69.6749 7.45333 70.6616 8.04L68.5816 12.48C66.6882 11.4133 64.6216 10.88 62.3816 10.88C61.0482 10.88 60.0482 11.0667 59.3816 11.44C58.7149 11.8133 58.3816 12.2933 58.3816 12.88C58.3816 13.5467 58.7416 14.0133 59.4616 14.28C60.1816 14.5467 61.3282 14.8 62.9016 15.04C64.6616 15.3333 66.1016 15.6533 67.2216 16C68.3416 16.32 69.3149 16.92 70.1416 17.8C70.9682 18.68 71.3816 19.9067 71.3816 21.48C71.3816 22.8133 70.9816 24 70.1816 25.04C69.3816 26.08 68.2082 26.8933 66.6616 27.48C65.1416 28.04 63.3282 28.32 61.2216 28.32ZM97.0716 6.48V28H91.1116V25.52C89.5649 27.3867 87.3249 28.32 84.3916 28.32C82.3649 28.32 80.5249 27.8667 78.8716 26.96C77.2449 26.0533 75.9649 24.76 75.0316 23.08C74.0982 21.4 73.6316 19.4533 73.6316 17.24C73.6316 15.0267 74.0982 13.08 75.0316 11.4C75.9649 9.72 77.2449 8.42667 78.8716 7.52C80.5249 6.61333 82.3649 6.16 84.3916 6.16C87.1382 6.16 89.2849 7.02667 90.8316 8.76V6.48H97.0716ZM85.4716 23.2C87.0449 23.2 88.3516 22.6667 89.3916 21.6C90.4316 20.5067 90.9516 19.0533 90.9516 17.24C90.9516 15.4267 90.4316 13.9867 89.3916 12.92C88.3516 11.8267 87.0449 11.28 85.4716 11.28C83.8716 11.28 82.5516 11.8267 81.5116 12.92C80.4716 13.9867 79.9516 15.4267 79.9516 17.24C79.9516 19.0533 80.4716 20.5067 81.5116 21.6C82.5516 22.6667 83.8716 23.2 85.4716 23.2ZM115.929 6.16C118.595 6.16 120.742 6.96 122.369 8.56C124.022 10.16 124.849 12.5333 124.849 15.68V28H118.609V16.64C118.609 14.9333 118.235 13.6667 117.489 12.84C116.742 11.9867 115.662 11.56 114.249 11.56C112.675 11.56 111.422 12.0533 110.489 13.04C109.555 14 109.089 15.44 109.089 17.36V28H102.849V6.48H108.809V9C109.635 8.09333 110.662 7.4 111.889 6.92C113.115 6.41333 114.462 6.16 115.929 6.16Z" fill="white"/>
</svg>
