<svg width="157" height="30" viewBox="0 0 157 30" fill="none" xmlns="http://www.w3.org/2000/svg">
<path d="M12.44 0.999998C14.92 0.999998 17.0667 1.41333 18.88 2.24C20.72 3.06667 22.1333 4.24 23.12 5.76C24.1067 7.28 24.6 9.08 24.6 11.16C24.6 13.2133 24.1067 15.0133 23.12 16.56C22.1333 18.08 20.72 19.2533 18.88 20.08C17.0667 20.88 14.92 21.28 12.44 21.28H6.8V29H0.32V0.999998H12.44ZM12.08 16C14.0267 16 15.5067 15.5867 16.52 14.76C17.5333 13.9067 18.04 12.7067 18.04 11.16C18.04 9.58667 17.5333 8.38667 16.52 7.56C15.5067 6.70667 14.0267 6.28 12.08 6.28H6.8V16H12.08ZM47.0663 29L41.6663 21.2H41.3463H35.7063V29H29.2263V0.999998H41.3463C43.8263 0.999998 45.9729 1.41333 47.7863 2.24C49.6263 3.06667 51.0396 4.24 52.0263 5.76C53.0129 7.28 53.5063 9.08 53.5063 11.16C53.5063 13.24 52.9996 15.04 51.9863 16.56C50.9996 18.0533 49.5863 19.2 47.7463 20L54.0263 29H47.0663ZM46.9463 11.16C46.9463 9.58667 46.4396 8.38667 45.4263 7.56C44.4129 6.70667 42.9329 6.28 40.9863 6.28H35.7063V16.04H40.9863C42.9329 16.04 44.4129 15.6133 45.4263 14.76C46.4396 13.9067 46.9463 12.7067 46.9463 11.16ZM72.2003 29.48C69.2936 29.48 66.667 28.8533 64.3203 27.6C62.0003 26.3467 60.1736 24.6267 58.8403 22.44C57.5336 20.2267 56.8803 17.7467 56.8803 15C56.8803 12.2533 57.5336 9.78667 58.8403 7.6C60.1736 5.38667 62.0003 3.65333 64.3203 2.4C66.667 1.14667 69.2936 0.52 72.2003 0.52C75.107 0.52 77.7203 1.14667 80.0403 2.4C82.3603 3.65333 84.187 5.38667 85.5203 7.6C86.8536 9.78667 87.5203 12.2533 87.5203 15C87.5203 17.7467 86.8536 20.2267 85.5203 22.44C84.187 24.6267 82.3603 26.3467 80.0403 27.6C77.7203 28.8533 75.107 29.48 72.2003 29.48ZM72.2003 23.96C73.8536 23.96 75.347 23.5867 76.6803 22.84C78.0136 22.0667 79.0536 21 79.8003 19.64C80.5736 18.28 80.9603 16.7333 80.9603 15C80.9603 13.2667 80.5736 11.72 79.8003 10.36C79.0536 9 78.0136 7.94667 76.6803 7.2C75.347 6.42667 73.8536 6.04 72.2003 6.04C70.547 6.04 69.0536 6.42667 67.7203 7.2C66.387 7.94667 65.3336 9 64.5603 10.36C63.8136 11.72 63.4403 13.2667 63.4403 15C63.4403 16.7333 63.8136 18.28 64.5603 19.64C65.3336 21 66.387 22.0667 67.7203 22.84C69.0536 23.5867 70.547 23.96 72.2003 23.96ZM105.43 6.04C103.19 6.04 101.497 6.53333 100.35 7.52C99.2036 8.48 98.6303 9.93333 98.6303 11.88V13.6H110.15V18.8H98.6303V29H92.1503V11.92C92.1503 8.32 93.2703 5.52 95.5103 3.52C97.777 1.52 100.937 0.52 104.99 0.52C106.59 0.52 108.097 0.693332 109.51 1.04C110.924 1.36 112.15 1.84 113.19 2.48L111.19 7.6C109.59 6.56 107.67 6.04 105.43 6.04ZM126.6 6.2V23.8H131.44V29H115.24V23.8H120.12V6.2H115.24V0.999998H131.44V6.2H126.6ZM136.336 0.999998H142.816V23.72H156.856V29H136.336V0.999998Z" fill="white"/>
</svg>
