<svg width="30" height="30" viewBox="0 0 30 30" fill="none" xmlns="http://www.w3.org/2000/svg">
<path d="M15 9C16.6356 9 18.2041 9.63214 19.3607 10.7574C20.5172 11.8826 21.1669 13.4087 21.1669 15C21.1669 16.5913 20.5172 18.1174 19.3607 19.2426C18.2041 20.3679 16.6356 21 15 21C13.3644 21 11.7959 20.3679 10.6393 19.2426C9.48281 18.1174 8.83308 16.5913 8.83308 15C8.83308 13.4087 9.48281 11.8826 10.6393 10.7574C11.7959 9.63214 13.3644 9 15 9ZM15 12C14.1822 12 13.3979 12.3161 12.8197 12.8787C12.2414 13.4413 11.9165 14.2044 11.9165 15C11.9165 15.7956 12.2414 16.5587 12.8197 17.1213C13.3979 17.6839 14.1822 18 15 18C15.8178 18 16.6021 17.6839 17.1803 17.1213C17.7586 16.5587 18.0835 15.7956 18.0835 15C18.0835 14.2044 17.7586 13.4413 17.1803 12.8787C16.6021 12.3161 15.8178 12 15 12ZM11.9165 30C11.5311 30 11.2073 29.73 11.1457 29.37L10.5752 25.395C9.60395 25.02 8.77141 24.51 7.96971 23.91L4.13081 25.425C3.79162 25.545 3.37536 25.425 3.19035 25.095L0.106891 19.905C-0.0935343 19.575 -0.00103034 19.17 0.291898 18.945L3.54495 16.455L3.43703 15L3.54495 13.5L0.291898 11.055C-0.00103034 10.83 -0.0935343 10.425 0.106891 10.095L3.19035 4.905C3.37536 4.575 3.79162 4.44 4.13081 4.575L7.96971 6.075C8.77141 5.49 9.60395 4.98 10.5752 4.605L11.1457 0.63C11.2073 0.27 11.5311 0 11.9165 0H18.0835C18.4689 0 18.7927 0.27 18.8543 0.63L19.4248 4.605C20.3961 4.98 21.2286 5.49 22.0303 6.075L25.8692 4.575C26.2084 4.44 26.6246 4.575 26.8096 4.905L29.8931 10.095C30.0935 10.425 30.001 10.83 29.7081 11.055L26.4551 13.5L26.563 15L26.4551 16.5L29.7081 18.945C30.001 19.17 30.0935 19.575 29.8931 19.905L26.8096 25.095C26.6246 25.425 26.2084 25.56 25.8692 25.425L22.0303 23.925C21.2286 24.51 20.3961 25.02 19.4248 25.395L18.8543 29.37C18.7927 29.73 18.4689 30 18.0835 30H11.9165ZM13.8437 3L13.2733 6.915C11.4232 7.29 9.78895 8.25 8.60182 9.585L4.88625 8.025L3.72996 9.975L6.98301 12.3C6.36631 14.055 6.36631 15.96 6.98301 17.7L3.71454 20.04L4.87084 21.99L8.61724 20.43C9.80437 21.75 11.4232 22.71 13.2578 23.07L13.8283 27H16.1717L16.7422 23.085C18.5768 22.71 20.1956 21.75 21.3828 20.43L25.1292 21.99L26.2855 20.04L23.017 17.715C23.6337 15.96 23.6337 14.055 23.017 12.3L26.27 9.975L25.1137 8.025L21.3982 9.585C20.211 8.25 18.5768 7.29 16.7267 6.93L16.1563 3H13.8437Z" fill="#B6E5FF"/>
</svg>
