<svg width="125" height="21" viewBox="0 0 125 21" fill="none" xmlns="http://www.w3.org/2000/svg">
<path d="M11 1H8.27273C7.0672 1 5.91104 1.47411 5.05861 2.31802C4.20617 3.16193 3.72727 4.30653 3.72727 5.5V8.2H1V11.8H3.72727V19H7.36364V11.8H10.0909L11 8.2H7.36364V5.5C7.36364 5.26131 7.45942 5.03239 7.6299 4.8636C7.80039 4.69482 8.03162 4.6 8.27273 4.6H11V1Z" stroke="#0815FF" stroke-width="2" stroke-linecap="round" stroke-linejoin="round"/>
<path d="M70.5406 5.42C70.4218 4.94541 70.1799 4.51057 69.8392 4.15941C69.4986 3.80824 69.0713 3.55318 68.6006 3.42C66.8806 3 60.0006 3 60.0006 3C60.0006 3 53.1206 3 51.4006 3.46C50.9298 3.59318 50.5025 3.84824 50.1619 4.19941C49.8213 4.55057 49.5794 4.98541 49.4606 5.46C49.1458 7.20556 48.9918 8.97631 49.0006 10.75C48.9894 12.537 49.1433 14.3213 49.4606 16.08C49.5915 16.5398 49.8389 16.9581 50.1787 17.2945C50.5186 17.6308 50.9394 17.8738 51.4006 18C53.1206 18.46 60.0006 18.46 60.0006 18.46C60.0006 18.46 66.8806 18.46 68.6006 18C69.0713 17.8668 69.4986 17.6118 69.8392 17.2606C70.1799 16.9094 70.4218 16.4746 70.5406 16C70.8529 14.2676 71.0069 12.5103 71.0006 10.75C71.0118 8.96295 70.8578 7.1787 70.5406 5.42V5.42Z" stroke="#E80E0E" stroke-width="2" stroke-linecap="round" stroke-linejoin="round"/>
<path d="M57.7505 14.02L63.5005 10.75L57.7505 7.47998V14.02Z" stroke="#E80E0E" stroke-width="2" stroke-linecap="round" stroke-linejoin="round"/>
<path d="M100 2.01006C99.0424 2.68553 97.9821 3.20217 96.86 3.54006C96.2577 2.84757 95.4573 2.35675 94.567 2.13398C93.6767 1.91122 92.7395 1.96725 91.8821 2.29451C91.0247 2.62177 90.2884 3.20446 89.773 3.96377C89.2575 4.72309 88.9877 5.62239 89 6.54006V7.54006C87.2426 7.58562 85.5013 7.19587 83.931 6.4055C82.3607 5.61513 81.0103 4.44869 80 3.01006C80 3.01006 76 12.0101 85 16.0101C82.9405 17.408 80.4872 18.109 78 18.0101C87 23.0101 98 18.0101 98 6.51006C97.9991 6.23151 97.9723 5.95365 97.92 5.68006C98.9406 4.67355 99.6608 3.40277 100 2.01006V2.01006Z" stroke="#1FAEFF" stroke-width="2" stroke-linecap="round" stroke-linejoin="round"/>
<path d="M114.99 1C109.53 1 105.08 5.45 105.08 10.91C105.08 12.66 105.54 14.36 106.4 15.86L105 21L110.25 19.62C111.7 20.41 113.33 20.83 114.99 20.83C120.45 20.83 124.9 16.38 124.9 10.92C124.9 8.27 123.87 5.78 122 3.91C120.13 2.03 117.64 1 114.99 1ZM115 2.67C117.2 2.67 119.26 3.53 120.82 5.09C122.37 6.65 123.23 8.72 123.23 10.92C123.23 15.46 119.53 19.15 114.99 19.15C113.51 19.15 112.06 18.76 110.8 18L110.5 17.83L107.38 18.65L108.21 15.61L108.01 15.29C107.19 14 106.75 12.47 106.75 10.91C106.76 6.37 110.45 2.67 115 2.67ZM111.48 6.33C111.32 6.33 111.05 6.39 110.82 6.64C110.6 6.89 109.95 7.5 109.95 8.71C109.95 9.93 110.84 11.1 110.95 11.27C111.09 11.44 112.71 13.94 115.2 15C115.79 15.27 116.25 15.42 116.61 15.53C117.2 15.72 117.74 15.69 118.17 15.63C118.65 15.56 119.63 15.03 119.84 14.45C120.05 13.87 120.05 13.38 119.99 13.27C119.92 13.17 119.76 13.11 119.51 13C119.26 12.86 118.04 12.26 117.82 12.18C117.59 12.1 117.45 12.06 117.26 12.3C117.1 12.55 116.62 13.11 116.48 13.27C116.33 13.44 116.19 13.46 115.95 13.34C115.69 13.21 114.89 12.95 113.95 12.11C113.21 11.45 112.72 10.64 112.57 10.39C112.45 10.15 112.56 10 112.68 9.89C112.79 9.78 112.95 9.6 113.05 9.45C113.18 9.31 113.22 9.2 113.3 9.04C113.38 8.87 113.34 8.73 113.28 8.61C113.22 8.5 112.72 7.26 112.51 6.77C112.31 6.29 112.11 6.35 111.95 6.34C111.81 6.34 111.65 6.33 111.48 6.33Z" fill="#0DB709"/>
<path d="M36.25 1H26.75C24.1266 1 22 3.12665 22 5.75V15.25C22 17.8734 24.1266 20 26.75 20H36.25C38.8734 20 41 17.8734 41 15.25V5.75C41 3.12665 38.8734 1 36.25 1Z" stroke="#E230FF" stroke-width="2" stroke-linecap="round" stroke-linejoin="round"/>
<path d="M35.3001 9.90151C35.4174 10.6921 35.2823 11.4996 34.9142 12.2091C34.5461 12.9185 33.9636 13.4939 33.2497 13.8532C32.5357 14.2125 31.7266 14.3376 30.9375 14.2106C30.1484 14.0837 29.4194 13.7111 28.8542 13.1459C28.289 12.5807 27.9165 11.8517 27.7895 11.0626C27.6625 10.2735 27.7876 9.46441 28.1469 8.75047C28.5063 8.03652 29.0816 7.45407 29.791 7.08594C30.5005 6.71782 31.308 6.58277 32.0986 6.70001C32.9051 6.8196 33.6517 7.1954 34.2282 7.7719C34.8047 8.3484 35.1805 9.09504 35.3001 9.90151Z" stroke="#E230FF" stroke-width="2" stroke-linecap="round" stroke-linejoin="round"/>
<path d="M36.7251 5.27502H36.7352" stroke="#E230FF" stroke-width="2" stroke-linecap="round" stroke-linejoin="round"/>
</svg>
