<svg width="233" height="104" viewBox="0 0 233 104" fill="none" xmlns="http://www.w3.org/2000/svg">
<path d="M8.652 27.224C7.17733 27.224 5.74933 27 4.368 26.552C3.00533 26.0853 1.932 25.488 1.148 24.76L2.184 22.576C2.93067 23.248 3.88267 23.7987 5.04 24.228C6.216 24.6387 7.42 24.844 8.652 24.844C10.276 24.844 11.4893 24.5733 12.292 24.032C13.0947 23.472 13.496 22.7347 13.496 21.82C13.496 21.148 13.272 20.6067 12.824 20.196C12.3947 19.7667 11.8533 19.44 11.2 19.216C10.5653 18.992 9.66 18.74 8.484 18.46C7.00933 18.1053 5.81467 17.7507 4.9 17.396C4.004 17.0413 3.22933 16.5 2.576 15.772C1.94133 15.0253 1.624 14.0267 1.624 12.776C1.624 11.7307 1.89467 10.788 2.436 9.948C2.996 9.108 3.836 8.436 4.956 7.932C6.076 7.428 7.46667 7.176 9.128 7.176C10.2853 7.176 11.424 7.32533 12.544 7.624C13.664 7.92267 14.6253 8.352 15.428 8.912L14.504 11.152C13.6827 10.6293 12.8053 10.2373 11.872 9.976C10.9387 9.696 10.024 9.556 9.128 9.556C7.54133 9.556 6.34667 9.84533 5.544 10.424C4.76 11.0027 4.368 11.7493 4.368 12.664C4.368 13.336 4.592 13.8867 5.04 14.316C5.488 14.7267 6.03867 15.0533 6.692 15.296C7.364 15.52 8.26933 15.7627 9.408 16.024C10.8827 16.3787 12.068 16.7333 12.964 17.088C13.86 17.4427 14.6253 17.984 15.26 18.712C15.9133 19.44 16.24 20.42 16.24 21.652C16.24 22.6787 15.96 23.6213 15.4 24.48C14.84 25.32 13.9907 25.992 12.852 26.496C11.7133 26.9813 10.3133 27.224 8.652 27.224ZM33.7706 12.16V27H31.2226V24.76C30.6813 25.5253 29.9626 26.1227 29.0666 26.552C28.1893 26.9627 27.228 27.168 26.1826 27.168C24.204 27.168 22.6453 26.6267 21.5066 25.544C20.368 24.4427 19.7986 22.828 19.7986 20.7V12.16H22.4866V20.392C22.4866 21.8293 22.832 22.9213 23.5226 23.668C24.2133 24.396 25.2026 24.76 26.4906 24.76C27.9093 24.76 29.0293 24.3307 29.8506 23.472C30.672 22.6133 31.0826 21.4 31.0826 19.832V12.16H33.7706ZM46.7558 12.02C48.1932 12.02 49.4812 12.3373 50.6198 12.972C51.7585 13.6067 52.6452 14.4933 53.2798 15.632C53.9332 16.7707 54.2598 18.0867 54.2598 19.58C54.2598 21.0733 53.9332 22.3987 53.2798 23.556C52.6452 24.6947 51.7585 25.5813 50.6198 26.216C49.4812 26.8507 48.1932 27.168 46.7558 27.168C45.6918 27.168 44.7118 26.9627 43.8158 26.552C42.9385 26.1413 42.1918 25.544 41.5758 24.76V32.432H38.8878V12.16H41.4638V14.512C42.0612 13.6907 42.8172 13.0747 43.7318 12.664C44.6465 12.2347 45.6545 12.02 46.7558 12.02ZM46.5318 24.816C47.4838 24.816 48.3332 24.6013 49.0798 24.172C49.8452 23.724 50.4425 23.108 50.8718 22.324C51.3198 21.5213 51.5438 20.6067 51.5438 19.58C51.5438 18.5533 51.3198 17.648 50.8718 16.864C50.4425 16.0613 49.8452 15.4453 49.0798 15.016C48.3332 14.5867 47.4838 14.372 46.5318 14.372C45.5985 14.372 44.7492 14.596 43.9838 15.044C43.2372 15.4733 42.6398 16.08 42.1918 16.864C41.7625 17.648 41.5478 18.5533 41.5478 19.58C41.5478 20.6067 41.7625 21.5213 42.1918 22.324C42.6212 23.108 43.2185 23.724 43.9838 24.172C44.7492 24.6013 45.5985 24.816 46.5318 24.816ZM65.8418 12.02C67.2791 12.02 68.5671 12.3373 69.7058 12.972C70.8444 13.6067 71.7311 14.4933 72.3658 15.632C73.0191 16.7707 73.3458 18.0867 73.3458 19.58C73.3458 21.0733 73.0191 22.3987 72.3658 23.556C71.7311 24.6947 70.8444 25.5813 69.7058 26.216C68.5671 26.8507 67.2791 27.168 65.8418 27.168C64.7778 27.168 63.7978 26.9627 62.9018 26.552C62.0244 26.1413 61.2778 25.544 60.6618 24.76V32.432H57.9738V12.16H60.5498V14.512C61.1471 13.6907 61.9031 13.0747 62.8178 12.664C63.7324 12.2347 64.7404 12.02 65.8418 12.02ZM65.6178 24.816C66.5698 24.816 67.4191 24.6013 68.1658 24.172C68.9311 23.724 69.5284 23.108 69.9578 22.324C70.4058 21.5213 70.6298 20.6067 70.6298 19.58C70.6298 18.5533 70.4058 17.648 69.9578 16.864C69.5284 16.0613 68.9311 15.4453 68.1658 15.016C67.4191 14.5867 66.5698 14.372 65.6178 14.372C64.6844 14.372 63.8351 14.596 63.0698 15.044C62.3231 15.4733 61.7258 16.08 61.2778 16.864C60.8484 17.648 60.6338 18.5533 60.6338 19.58C60.6338 20.6067 60.8484 21.5213 61.2778 22.324C61.7071 23.108 62.3044 23.724 63.0698 24.172C63.8351 24.6013 64.6844 24.816 65.6178 24.816ZM83.4157 27.168C81.9411 27.168 80.6157 26.8413 79.4397 26.188C78.2637 25.5347 77.3397 24.6387 76.6677 23.5C76.0144 22.3427 75.6877 21.036 75.6877 19.58C75.6877 18.124 76.0144 16.8267 76.6677 15.688C77.3397 14.5307 78.2637 13.6347 79.4397 13C80.6157 12.3467 81.9411 12.02 83.4157 12.02C84.8904 12.02 86.2064 12.3467 87.3637 13C88.5397 13.6347 89.4544 14.5307 90.1077 15.688C90.7797 16.8267 91.1157 18.124 91.1157 19.58C91.1157 21.036 90.7797 22.3427 90.1077 23.5C89.4544 24.6387 88.5397 25.5347 87.3637 26.188C86.2064 26.8413 84.8904 27.168 83.4157 27.168ZM83.4157 24.816C84.3677 24.816 85.2171 24.6013 85.9637 24.172C86.7291 23.724 87.3264 23.108 87.7557 22.324C88.1851 21.5213 88.3997 20.6067 88.3997 19.58C88.3997 18.5533 88.1851 17.648 87.7557 16.864C87.3264 16.0613 86.7291 15.4453 85.9637 15.016C85.2171 14.5867 84.3677 14.372 83.4157 14.372C82.4637 14.372 81.6051 14.5867 80.8397 15.016C80.0931 15.4453 79.4957 16.0613 79.0477 16.864C78.6184 17.648 78.4037 18.5533 78.4037 19.58C78.4037 20.6067 78.6184 21.5213 79.0477 22.324C79.4957 23.108 80.0931 23.724 80.8397 24.172C81.6051 24.6013 82.4637 24.816 83.4157 24.816ZM97.4092 14.652C97.8758 13.7933 98.5665 13.14 99.4812 12.692C100.396 12.244 101.506 12.02 102.813 12.02V14.624C102.664 14.6053 102.458 14.596 102.197 14.596C100.741 14.596 99.5932 15.0347 98.7532 15.912C97.9318 16.7707 97.5212 18.0027 97.5212 19.608V27H94.8332V12.16H97.4092V14.652ZM113.938 26.132C113.546 26.468 113.061 26.7293 112.482 26.916C111.903 27.084 111.306 27.168 110.69 27.168C109.197 27.168 108.039 26.7667 107.218 25.964C106.397 25.1613 105.986 24.0133 105.986 22.52V8.912H108.674V12.16H112.93V14.372H108.674V22.408C108.674 23.2107 108.87 23.8267 109.262 24.256C109.673 24.6853 110.251 24.9 110.998 24.9C111.819 24.9 112.519 24.6667 113.098 24.2L113.938 26.132Z" fill="#2C2727" fill-opacity="0.8"/>
<path d="M13.808 66.704C15.088 66.704 16.0853 67.072 16.8 67.808C17.5147 68.544 17.872 69.6107 17.872 71.008V78H16.704V71.04C16.704 69.952 16.4267 69.136 15.872 68.592C15.328 68.0373 14.5813 67.76 13.632 67.76C12.6293 67.76 11.8453 68.0533 11.28 68.64C10.7147 69.216 10.432 70.1013 10.432 71.296V78H9.264V71.04C9.264 69.952 8.99733 69.136 8.464 68.592C7.93067 68.0373 7.18933 67.76 6.24 67.76C5.22667 67.76 4.432 68.0533 3.856 68.64C3.29067 69.216 3.008 70.1013 3.008 71.296V78H1.824V66.8H2.96V68.672C3.26933 68.032 3.728 67.5467 4.336 67.216C4.944 66.8747 5.664 66.704 6.496 66.704C7.37067 66.704 8.11733 66.8907 8.736 67.264C9.36533 67.6267 9.81867 68.1387 10.096 68.8C10.416 68.1173 10.896 67.6 11.536 67.248C12.1867 66.8853 12.944 66.704 13.808 66.704ZM24.6334 78.08C23.8227 78.08 23.092 77.8987 22.4414 77.536C21.7907 77.1627 21.2787 76.6507 20.9054 76C20.532 75.3493 20.3454 74.6133 20.3454 73.792C20.3454 72.9707 20.532 72.2347 20.9054 71.584C21.2787 70.9333 21.7907 70.4267 22.4414 70.064C23.092 69.7013 23.8227 69.52 24.6334 69.52C25.444 69.52 26.1747 69.7013 26.8254 70.064C27.476 70.4267 27.9827 70.9333 28.3454 71.584C28.7187 72.2347 28.9054 72.9707 28.9054 73.792C28.9054 74.6133 28.7187 75.3493 28.3454 76C27.9827 76.6507 27.476 77.1627 26.8254 77.536C26.1747 77.8987 25.444 78.08 24.6334 78.08ZM24.6334 77.072C25.2307 77.072 25.764 76.9387 26.2334 76.672C26.7134 76.3947 27.0867 76.0053 27.3534 75.504C27.62 75.0027 27.7534 74.432 27.7534 73.792C27.7534 73.152 27.62 72.5813 27.3534 72.08C27.0867 71.5787 26.7134 71.1947 26.2334 70.928C25.764 70.6507 25.2307 70.512 24.6334 70.512C24.036 70.512 23.4974 70.6507 23.0174 70.928C22.548 71.1947 22.1747 71.5787 21.8974 72.08C21.6307 72.5813 21.4974 73.152 21.4974 73.792C21.4974 74.432 21.6307 75.0027 21.8974 75.504C22.1747 76.0053 22.548 76.3947 23.0174 76.672C23.4974 76.9387 24.036 77.072 24.6334 77.072ZM35.5606 69.52C36.35 69.52 37.0646 69.7013 37.7046 70.064C38.3446 70.416 38.846 70.9173 39.2086 71.568C39.5713 72.2187 39.7526 72.96 39.7526 73.792C39.7526 74.624 39.5713 75.3653 39.2086 76.016C38.846 76.6667 38.3446 77.1733 37.7046 77.536C37.0646 77.8987 36.35 78.08 35.5606 78.08C34.8566 78.08 34.222 77.9307 33.6566 77.632C33.102 77.3333 32.654 76.9013 32.3126 76.336V78H31.2246V66.128H32.3606V71.184C32.7126 70.64 33.1606 70.2293 33.7046 69.952C34.2593 69.664 34.878 69.52 35.5606 69.52ZM35.4806 77.072C36.0673 77.072 36.6006 76.9387 37.0806 76.672C37.5606 76.3947 37.934 76.0053 38.2006 75.504C38.478 75.0027 38.6166 74.432 38.6166 73.792C38.6166 73.152 38.478 72.5813 38.2006 72.08C37.934 71.5787 37.5606 71.1947 37.0806 70.928C36.6006 70.6507 36.0673 70.512 35.4806 70.512C34.8833 70.512 34.3446 70.6507 33.8646 70.928C33.3953 71.1947 33.022 71.5787 32.7446 72.08C32.478 72.5813 32.3446 73.152 32.3446 73.792C32.3446 74.432 32.478 75.0027 32.7446 75.504C33.022 76.0053 33.3953 76.3947 33.8646 76.672C34.3446 76.9387 34.8833 77.072 35.4806 77.072ZM42.0684 69.584H43.2044V78H42.0684V69.584ZM42.6444 67.744C42.4097 67.744 42.2124 67.664 42.0524 67.504C41.8924 67.344 41.8124 67.152 41.8124 66.928C41.8124 66.7147 41.8924 66.528 42.0524 66.368C42.2124 66.208 42.4097 66.128 42.6444 66.128C42.879 66.128 43.0764 66.208 43.2364 66.368C43.3964 66.5173 43.4764 66.6987 43.4764 66.912C43.4764 67.1467 43.3964 67.344 43.2364 67.504C43.0764 67.664 42.879 67.744 42.6444 67.744ZM48.7333 78.08C47.9759 78.08 47.3893 77.8667 46.9733 77.44C46.5679 77.0133 46.3653 76.4213 46.3653 75.664V66.128H47.5013V75.568C47.5013 76.0693 47.6186 76.4533 47.8533 76.72C48.0879 76.976 48.4399 77.104 48.9093 77.104C49.2079 77.104 49.4639 77.056 49.6773 76.96L49.7573 77.904C49.4266 78.0213 49.0853 78.08 48.7333 78.08ZM54.7465 77.072C55.2692 77.072 55.7492 76.9813 56.1865 76.8C56.6345 76.608 57.0132 76.3307 57.3225 75.968L57.9625 76.704C57.5892 77.152 57.1252 77.4933 56.5705 77.728C56.0158 77.9627 55.4025 78.08 54.7305 78.08C53.8665 78.08 53.0985 77.8987 52.4265 77.536C51.7545 77.1627 51.2318 76.6507 50.8585 76C50.4852 75.3493 50.2985 74.6133 50.2985 73.792C50.2985 72.9707 50.4745 72.2347 50.8265 71.584C51.1892 70.9333 51.6852 70.4267 52.3145 70.064C52.9438 69.7013 53.6585 69.52 54.4585 69.52C55.2052 69.52 55.8772 69.6907 56.4745 70.032C57.0825 70.3733 57.5625 70.848 57.9145 71.456C58.2772 72.064 58.4692 72.7573 58.4905 73.536L51.5785 74.88C51.7918 75.5627 52.1758 76.1013 52.7305 76.496C53.2958 76.88 53.9678 77.072 54.7465 77.072ZM54.4585 70.496C53.8718 70.496 53.3438 70.6347 52.8745 70.912C52.4158 71.1787 52.0532 71.5573 51.7865 72.048C51.5305 72.528 51.4025 73.0827 51.4025 73.712C51.4025 73.872 51.4078 73.9893 51.4185 74.064L57.3545 72.912C57.2265 72.208 56.9012 71.632 56.3785 71.184C55.8558 70.7253 55.2158 70.496 54.4585 70.496ZM65.1023 71.264C64.8676 71.264 64.6649 71.1787 64.4943 71.008C64.3343 70.8373 64.2543 70.6293 64.2543 70.384C64.2543 70.1387 64.3343 69.936 64.4943 69.776C64.6649 69.6053 64.8676 69.52 65.1023 69.52C65.3369 69.52 65.5396 69.6053 65.7103 69.776C65.8809 69.936 65.9663 70.1387 65.9663 70.384C65.9663 70.6293 65.8809 70.8373 65.7103 71.008C65.5396 71.1787 65.3369 71.264 65.1023 71.264ZM65.1023 78.08C64.8676 78.08 64.6649 77.9947 64.4943 77.824C64.3343 77.6533 64.2543 77.4453 64.2543 77.2C64.2543 76.9547 64.3343 76.752 64.4943 76.592C64.6649 76.4213 64.8676 76.336 65.1023 76.336C65.3369 76.336 65.5396 76.4213 65.7103 76.592C65.8809 76.752 65.9663 76.9547 65.9663 77.2C65.9663 77.4453 65.8809 77.6533 65.7103 77.824C65.5396 77.9947 65.3369 78.08 65.1023 78.08ZM79.0644 72.88H76.0884V75.792H75.0804V72.88H72.1044V71.936H75.0804V69.008H76.0884V71.936H79.0644V72.88ZM85.7845 71.296C86.5205 71.296 87.1712 71.4347 87.7365 71.712C88.3125 71.9893 88.7605 72.384 89.0805 72.896C89.4005 73.3973 89.5605 73.984 89.5605 74.656C89.5605 75.3387 89.3952 75.9413 89.0645 76.464C88.7338 76.9867 88.2752 77.392 87.6885 77.68C87.1125 77.9573 86.4618 78.096 85.7365 78.096C84.2538 78.096 83.1178 77.6107 82.3285 76.64C81.5392 75.6587 81.1445 74.2773 81.1445 72.496C81.1445 71.248 81.3578 70.192 81.7845 69.328C82.2112 68.464 82.8085 67.8133 83.5765 67.376C84.3445 66.928 85.2405 66.704 86.2645 66.704C87.3738 66.704 88.2592 66.9067 88.9205 67.312L88.4565 68.24C87.9232 67.888 87.1978 67.712 86.2805 67.712C85.0432 67.712 84.0725 68.1067 83.3685 68.896C82.6645 69.6747 82.3125 70.8107 82.3125 72.304C82.3125 72.5707 82.3285 72.8747 82.3605 73.216C82.6378 72.608 83.0805 72.1387 83.6885 71.808C84.2965 71.4667 84.9952 71.296 85.7845 71.296ZM85.6885 77.12C86.4992 77.12 87.1552 76.9013 87.6565 76.464C88.1685 76.016 88.4245 75.424 88.4245 74.688C88.4245 73.952 88.1685 73.3653 87.6565 72.928C87.1552 72.4907 86.4725 72.272 85.6085 72.272C85.0432 72.272 84.5418 72.3787 84.1045 72.592C83.6778 72.8053 83.3418 73.0987 83.0965 73.472C82.8512 73.8453 82.7285 74.2613 82.7285 74.72C82.7285 75.1467 82.8405 75.5413 83.0645 75.904C83.2992 76.2667 83.6405 76.56 84.0885 76.784C84.5365 77.008 85.0698 77.12 85.6885 77.12ZM98.5425 76.976V78H90.6865V77.184L95.3425 72.624C95.9292 72.048 96.3238 71.552 96.5265 71.136C96.7398 70.7093 96.8465 70.2827 96.8465 69.856C96.8465 69.1947 96.6172 68.6827 96.1585 68.32C95.7105 67.9467 95.0652 67.76 94.2225 67.76C92.9105 67.76 91.8918 68.176 91.1665 69.008L90.3505 68.304C90.7878 67.792 91.3425 67.3973 92.0145 67.12C92.6972 66.8427 93.4652 66.704 94.3185 66.704C95.4598 66.704 96.3612 66.976 97.0225 67.52C97.6945 68.0533 98.0305 68.7893 98.0305 69.728C98.0305 70.304 97.9025 70.8587 97.6465 71.392C97.3905 71.9253 96.9052 72.5387 96.1905 73.232L92.3825 76.976H98.5425ZM107.28 66.8V78H106.128V67.824H103.488V66.8H107.28ZM117.605 76.976V78H109.749V77.184L114.405 72.624C114.992 72.048 115.386 71.552 115.589 71.136C115.802 70.7093 115.909 70.2827 115.909 69.856C115.909 69.1947 115.68 68.6827 115.221 68.32C114.773 67.9467 114.128 67.76 113.285 67.76C111.973 67.76 110.954 68.176 110.229 69.008L109.413 68.304C109.85 67.792 110.405 67.3973 111.077 67.12C111.76 66.8427 112.528 66.704 113.381 66.704C114.522 66.704 115.424 66.976 116.085 67.52C116.757 68.0533 117.093 68.7893 117.093 69.728C117.093 70.304 116.965 70.8587 116.709 71.392C116.453 71.9253 115.968 72.5387 115.253 73.232L111.445 76.976H117.605ZM122.859 71.6C124.032 71.664 124.923 71.984 125.531 72.56C126.149 73.1253 126.459 73.8667 126.459 74.784C126.459 75.424 126.304 75.9947 125.995 76.496C125.685 76.9867 125.227 77.376 124.619 77.664C124.011 77.952 123.269 78.096 122.395 78.096C121.584 78.096 120.816 77.968 120.091 77.712C119.376 77.4453 118.8 77.0933 118.363 76.656L118.923 75.744C119.296 76.128 119.792 76.4427 120.411 76.688C121.029 76.9227 121.691 77.04 122.395 77.04C123.312 77.04 124.021 76.8427 124.523 76.448C125.024 76.0427 125.275 75.488 125.275 74.784C125.275 74.0907 125.024 73.5467 124.523 73.152C124.021 72.7573 123.264 72.56 122.251 72.56H121.451V71.712L124.555 67.824H118.827V66.8H126.027V67.616L122.859 71.6ZM137.602 75.056H135.362V78H134.21V75.056H127.89V74.224L133.826 66.8H135.106L129.378 74.032H134.242V71.44H135.362V74.032H137.602V75.056ZM141.542 71.392C143.163 71.392 144.342 71.6853 145.078 72.272C145.824 72.848 146.198 73.6587 146.198 74.704C146.198 75.3547 146.043 75.936 145.734 76.448C145.435 76.96 144.982 77.3653 144.374 77.664C143.766 77.952 143.019 78.096 142.134 78.096C141.334 78.096 140.571 77.968 139.846 77.712C139.131 77.4453 138.555 77.0933 138.118 76.656L138.678 75.744C139.051 76.128 139.542 76.4427 140.15 76.688C140.758 76.9227 141.414 77.04 142.118 77.04C143.046 77.04 143.76 76.832 144.262 76.416C144.774 76 145.03 75.4453 145.03 74.752C145.03 73.984 144.742 73.4027 144.166 73.008C143.6 72.6133 142.64 72.416 141.286 72.416H138.902L139.478 66.8H145.606V67.824H140.486L140.102 71.392H141.542ZM152.3 71.296C153.036 71.296 153.687 71.4347 154.252 71.712C154.828 71.9893 155.276 72.384 155.596 72.896C155.916 73.3973 156.076 73.984 156.076 74.656C156.076 75.3387 155.911 75.9413 155.58 76.464C155.249 76.9867 154.791 77.392 154.204 77.68C153.628 77.9573 152.977 78.096 152.252 78.096C150.769 78.096 149.633 77.6107 148.844 76.64C148.055 75.6587 147.66 74.2773 147.66 72.496C147.66 71.248 147.873 70.192 148.3 69.328C148.727 68.464 149.324 67.8133 150.092 67.376C150.86 66.928 151.756 66.704 152.78 66.704C153.889 66.704 154.775 66.9067 155.436 67.312L154.972 68.24C154.439 67.888 153.713 67.712 152.796 67.712C151.559 67.712 150.588 68.1067 149.884 68.896C149.18 69.6747 148.828 70.8107 148.828 72.304C148.828 72.5707 148.844 72.8747 148.876 73.216C149.153 72.608 149.596 72.1387 150.204 71.808C150.812 71.4667 151.511 71.296 152.3 71.296ZM152.204 77.12C153.015 77.12 153.671 76.9013 154.172 76.464C154.684 76.016 154.94 75.424 154.94 74.688C154.94 73.952 154.684 73.3653 154.172 72.928C153.671 72.4907 152.988 72.272 152.124 72.272C151.559 72.272 151.057 72.3787 150.62 72.592C150.193 72.8053 149.857 73.0987 149.612 73.472C149.367 73.8453 149.244 74.2613 149.244 74.72C149.244 75.1467 149.356 75.5413 149.58 75.904C149.815 76.2667 150.156 76.56 150.604 76.784C151.052 77.008 151.585 77.12 152.204 77.12ZM165.189 66.8V67.616L160.501 78H159.253L163.861 67.824H158.101V69.92H156.965V66.8H165.189ZM172.826 72.128C173.53 72.3627 174.069 72.7147 174.442 73.184C174.826 73.6533 175.018 74.2187 175.018 74.88C175.018 75.5307 174.842 76.1013 174.49 76.592C174.138 77.072 173.631 77.4453 172.97 77.712C172.319 77.968 171.551 78.096 170.666 78.096C169.322 78.096 168.266 77.808 167.498 77.232C166.73 76.656 166.346 75.872 166.346 74.88C166.346 74.208 166.527 73.6427 166.89 73.184C167.263 72.7147 167.802 72.3627 168.506 72.128C167.93 71.904 167.493 71.584 167.194 71.168C166.895 70.7413 166.746 70.24 166.746 69.664C166.746 68.7573 167.098 68.0373 167.802 67.504C168.517 66.9707 169.471 66.704 170.666 66.704C171.455 66.704 172.143 66.8267 172.73 67.072C173.327 67.3067 173.791 67.648 174.122 68.096C174.453 68.544 174.618 69.0667 174.618 69.664C174.618 70.24 174.463 70.7413 174.154 71.168C173.845 71.584 173.402 71.904 172.826 72.128ZM167.898 69.696C167.898 70.3147 168.143 70.8053 168.634 71.168C169.125 71.5307 169.802 71.712 170.666 71.712C171.53 71.712 172.207 71.5307 172.698 71.168C173.199 70.8053 173.45 70.32 173.45 69.712C173.45 69.0827 173.194 68.5867 172.682 68.224C172.181 67.8613 171.509 67.68 170.666 67.68C169.813 67.68 169.135 67.8613 168.634 68.224C168.143 68.5867 167.898 69.0773 167.898 69.696ZM170.666 77.12C171.658 77.12 172.431 76.9173 172.986 76.512C173.551 76.1067 173.834 75.5573 173.834 74.864C173.834 74.1707 173.551 73.6267 172.986 73.232C172.431 72.8267 171.658 72.624 170.666 72.624C169.685 72.624 168.911 72.8267 168.346 73.232C167.791 73.6267 167.514 74.1707 167.514 74.864C167.514 75.568 167.791 76.1227 168.346 76.528C168.901 76.9227 169.674 77.12 170.666 77.12ZM180.101 66.704C181.584 66.704 182.72 67.1947 183.509 68.176C184.299 69.1467 184.693 70.5227 184.693 72.304C184.693 73.552 184.48 74.608 184.053 75.472C183.627 76.336 183.029 76.992 182.261 77.44C181.493 77.8773 180.597 78.096 179.573 78.096C178.464 78.096 177.579 77.8933 176.917 77.488L177.381 76.56C177.915 76.912 178.64 77.088 179.557 77.088C180.795 77.088 181.765 76.6987 182.469 75.92C183.173 75.1307 183.525 73.9893 183.525 72.496C183.525 72.2187 183.509 71.9147 183.477 71.584C183.2 72.192 182.757 72.6667 182.149 73.008C181.541 73.3387 180.843 73.504 180.053 73.504C179.317 73.504 178.661 73.3653 178.085 73.088C177.52 72.8107 177.077 72.4213 176.757 71.92C176.437 71.408 176.277 70.816 176.277 70.144C176.277 69.4613 176.443 68.8587 176.773 68.336C177.104 67.8133 177.557 67.4133 178.133 67.136C178.72 66.848 179.376 66.704 180.101 66.704ZM180.229 72.528C180.795 72.528 181.291 72.4213 181.717 72.208C182.155 71.9947 182.496 71.7013 182.741 71.328C182.987 70.9547 183.109 70.5387 183.109 70.08C183.109 69.6533 182.992 69.2587 182.757 68.896C182.533 68.5333 182.197 68.24 181.749 68.016C181.301 67.792 180.768 67.68 180.149 67.68C179.339 67.68 178.677 67.904 178.165 68.352C177.664 68.7893 177.413 69.376 177.413 70.112C177.413 70.848 177.664 71.4347 178.165 71.872C178.677 72.3093 179.365 72.528 180.229 72.528ZM190.827 78.096C189.963 78.096 189.19 77.8667 188.507 77.408C187.835 76.9493 187.307 76.2933 186.923 75.44C186.55 74.576 186.363 73.5627 186.363 72.4C186.363 71.2373 186.55 70.2293 186.923 69.376C187.307 68.512 187.835 67.8507 188.507 67.392C189.19 66.9333 189.963 66.704 190.827 66.704C191.691 66.704 192.459 66.9333 193.131 67.392C193.814 67.8507 194.347 68.512 194.731 69.376C195.115 70.2293 195.307 71.2373 195.307 72.4C195.307 73.5627 195.115 74.576 194.731 75.44C194.347 76.2933 193.814 76.9493 193.131 77.408C192.459 77.8667 191.691 78.096 190.827 78.096ZM190.827 77.04C191.478 77.04 192.049 76.8587 192.539 76.496C193.041 76.1333 193.43 75.6053 193.707 74.912C193.985 74.2187 194.123 73.3813 194.123 72.4C194.123 71.4187 193.985 70.5813 193.707 69.888C193.43 69.1947 193.041 68.6667 192.539 68.304C192.049 67.9413 191.478 67.76 190.827 67.76C190.177 67.76 189.601 67.9413 189.099 68.304C188.609 68.6667 188.225 69.1947 187.947 69.888C187.67 70.5813 187.531 71.4187 187.531 72.4C187.531 73.3813 187.67 74.2187 187.947 74.912C188.225 75.6053 188.609 76.1333 189.099 76.496C189.601 76.8587 190.177 77.04 190.827 77.04Z" fill="#2C2727" fill-opacity="0.8"/>
<path d="M3.84 100.08C3.15733 100.08 2.50133 99.984 1.872 99.792C1.25333 99.5893 0.768 99.3387 0.416 99.04L0.928 98.144C1.28 98.4213 1.72267 98.6507 2.256 98.832C2.78933 99.0027 3.344 99.088 3.92 99.088C4.688 99.088 5.25333 98.9707 5.616 98.736C5.98933 98.4907 6.176 98.1493 6.176 97.712C6.176 97.4027 6.07467 97.1627 5.872 96.992C5.66933 96.8107 5.41333 96.6773 5.104 96.592C4.79467 96.496 4.384 96.4053 3.872 96.32C3.18933 96.192 2.64 96.064 2.224 95.936C1.808 95.7973 1.45067 95.568 1.152 95.248C0.864 94.928 0.72 94.4853 0.72 93.92C0.72 93.216 1.01333 92.64 1.6 92.192C2.18667 91.744 3.00267 91.52 4.048 91.52C4.592 91.52 5.136 91.5947 5.68 91.744C6.224 91.8827 6.672 92.0693 7.024 92.304L6.528 93.216C5.83467 92.736 5.008 92.496 4.048 92.496C3.32267 92.496 2.77333 92.624 2.4 92.88C2.03733 93.136 1.856 93.472 1.856 93.888C1.856 94.208 1.95733 94.464 2.16 94.656C2.37333 94.848 2.63467 94.992 2.944 95.088C3.25333 95.1733 3.68 95.264 4.224 95.36C4.896 95.488 5.43467 95.616 5.84 95.744C6.24533 95.872 6.592 96.0907 6.88 96.4C7.168 96.7093 7.312 97.136 7.312 97.68C7.312 98.416 7.00267 99.0027 6.384 99.44C5.776 99.8667 4.928 100.08 3.84 100.08ZM16.9961 91.584V100H15.9081V98.464C15.6095 98.976 15.1988 99.376 14.6761 99.664C14.1535 99.9413 13.5561 100.08 12.8841 100.08C11.7855 100.08 10.9161 99.776 10.2761 99.168C9.64679 98.5493 9.33213 97.648 9.33213 96.464V91.584H10.4681V96.352C10.4681 97.2373 10.6868 97.9093 11.1241 98.368C11.5615 98.8267 12.1855 99.056 12.9961 99.056C13.8815 99.056 14.5801 98.7893 15.0921 98.256C15.6041 97.712 15.8601 96.96 15.8601 96V91.584H16.9961ZM24.5138 91.52C25.3031 91.52 26.0178 91.7013 26.6578 92.064C27.2978 92.416 27.7991 92.9173 28.1618 93.568C28.5244 94.2187 28.7058 94.96 28.7058 95.792C28.7058 96.6347 28.5244 97.3813 28.1618 98.032C27.7991 98.6827 27.2978 99.1893 26.6578 99.552C26.0284 99.904 25.3138 100.08 24.5138 100.08C23.8311 100.08 23.2124 99.9413 22.6578 99.664C22.1138 99.376 21.6658 98.96 21.3138 98.416V103.104H20.1778V91.584H21.2658V93.248C21.6071 92.6933 22.0551 92.2667 22.6098 91.968C23.1751 91.6693 23.8098 91.52 24.5138 91.52ZM24.4338 99.072C25.0204 99.072 25.5538 98.9387 26.0338 98.672C26.5138 98.3947 26.8871 98.0053 27.1538 97.504C27.4311 97.0027 27.5698 96.432 27.5698 95.792C27.5698 95.152 27.4311 94.5867 27.1538 94.096C26.8871 93.5947 26.5138 93.2053 26.0338 92.928C25.5538 92.6507 25.0204 92.512 24.4338 92.512C23.8364 92.512 23.2978 92.6507 22.8177 92.928C22.3484 93.2053 21.9751 93.5947 21.6978 94.096C21.4311 94.5867 21.2978 95.152 21.2978 95.792C21.2978 96.432 21.4311 97.0027 21.6978 97.504C21.9751 98.0053 22.3484 98.3947 22.8177 98.672C23.2978 98.9387 23.8364 99.072 24.4338 99.072ZM35.3575 91.52C36.1468 91.52 36.8615 91.7013 37.5015 92.064C38.1415 92.416 38.6428 92.9173 39.0055 93.568C39.3682 94.2187 39.5495 94.96 39.5495 95.792C39.5495 96.6347 39.3682 97.3813 39.0055 98.032C38.6428 98.6827 38.1415 99.1893 37.5015 99.552C36.8722 99.904 36.1575 100.08 35.3575 100.08C34.6748 100.08 34.0562 99.9413 33.5015 99.664C32.9575 99.376 32.5095 98.96 32.1575 98.416V103.104H31.0215V91.584H32.1095V93.248C32.4508 92.6933 32.8988 92.2667 33.4535 91.968C34.0188 91.6693 34.6535 91.52 35.3575 91.52ZM35.2775 99.072C35.8642 99.072 36.3975 98.9387 36.8775 98.672C37.3575 98.3947 37.7308 98.0053 37.9975 97.504C38.2748 97.0027 38.4135 96.432 38.4135 95.792C38.4135 95.152 38.2748 94.5867 37.9975 94.096C37.7308 93.5947 37.3575 93.2053 36.8775 92.928C36.3975 92.6507 35.8642 92.512 35.2775 92.512C34.6802 92.512 34.1415 92.6507 33.6615 92.928C33.1922 93.2053 32.8188 93.5947 32.5415 94.096C32.2748 94.5867 32.1415 95.152 32.1415 95.792C32.1415 96.432 32.2748 97.0027 32.5415 97.504C32.8188 98.0053 33.1922 98.3947 33.6615 98.672C34.1415 98.9387 34.6802 99.072 35.2775 99.072ZM45.3053 100.08C44.4946 100.08 43.7639 99.8987 43.1133 99.536C42.4626 99.1627 41.9506 98.6507 41.5773 98C41.2039 97.3493 41.0173 96.6133 41.0173 95.792C41.0173 94.9707 41.2039 94.2347 41.5773 93.584C41.9506 92.9333 42.4626 92.4267 43.1133 92.064C43.7639 91.7013 44.4946 91.52 45.3053 91.52C46.1159 91.52 46.8466 91.7013 47.4973 92.064C48.1479 92.4267 48.6546 92.9333 49.0173 93.584C49.3906 94.2347 49.5773 94.9707 49.5773 95.792C49.5773 96.6133 49.3906 97.3493 49.0173 98C48.6546 98.6507 48.1479 99.1627 47.4973 99.536C46.8466 99.8987 46.1159 100.08 45.3053 100.08ZM45.3053 99.072C45.9026 99.072 46.4359 98.9387 46.9053 98.672C47.3853 98.3947 47.7586 98.0053 48.0253 97.504C48.2919 97.0027 48.4253 96.432 48.4253 95.792C48.4253 95.152 48.2919 94.5813 48.0253 94.08C47.7586 93.5787 47.3853 93.1947 46.9053 92.928C46.4359 92.6507 45.9026 92.512 45.3053 92.512C44.7079 92.512 44.1693 92.6507 43.6893 92.928C43.2199 93.1947 42.8466 93.5787 42.5693 94.08C42.3026 94.5813 42.1693 95.152 42.1693 95.792C42.1693 96.432 42.3026 97.0027 42.5693 97.504C42.8466 98.0053 43.2199 98.3947 43.6893 98.672C44.1693 98.9387 44.7079 99.072 45.3053 99.072ZM52.9845 93.232C53.2512 92.6667 53.6458 92.24 54.1685 91.952C54.7018 91.664 55.3578 91.52 56.1365 91.52V92.624L55.8645 92.608C54.9792 92.608 54.2858 92.88 53.7845 93.424C53.2832 93.968 53.0325 94.7307 53.0325 95.712V100H51.8965V91.584H52.9845V93.232ZM62.3374 99.488C62.124 99.68 61.8627 99.8293 61.5534 99.936C61.244 100.032 60.9187 100.08 60.5774 100.08C59.788 100.08 59.18 99.8667 58.7534 99.44C58.3267 99.0133 58.1134 98.4107 58.1134 97.632V89.744H59.2494V91.584H61.7934V92.544H59.2494V97.568C59.2494 98.0693 59.372 98.4533 59.6174 98.72C59.8627 98.976 60.22 99.104 60.6894 99.104C61.2014 99.104 61.6174 98.96 61.9374 98.672L62.3374 99.488ZM71.1165 88.704C72.5458 88.704 73.8205 89.0027 74.9405 89.6C76.0712 90.1867 76.9512 91.0187 77.5805 92.096C78.2098 93.1627 78.5245 94.384 78.5245 95.76C78.5245 97.1147 78.2898 98.176 77.8205 98.944C77.3512 99.7013 76.7005 100.08 75.8685 100.08C75.3458 100.08 74.9192 99.9253 74.5885 99.616C74.2685 99.3067 74.0925 98.88 74.0605 98.336C73.7405 98.8907 73.3032 99.3227 72.7485 99.632C72.1938 99.9307 71.5645 100.08 70.8605 100.08C70.1138 100.08 69.4365 99.904 68.8285 99.552C68.2312 99.1893 67.7565 98.6933 67.4045 98.064C67.0632 97.4347 66.8925 96.7253 66.8925 95.936C66.8925 95.1467 67.0632 94.4427 67.4045 93.824C67.7565 93.1947 68.2312 92.704 68.8285 92.352C69.4365 92 70.1138 91.824 70.8605 91.824C71.5432 91.824 72.1565 91.9733 72.7005 92.272C73.2552 92.56 73.6978 92.9707 74.0285 93.504V91.888H75.0685V97.952C75.0685 98.3787 75.1592 98.688 75.3405 98.88C75.5218 99.072 75.7618 99.168 76.0605 99.168C76.5618 99.168 76.9565 98.8693 77.2445 98.272C77.5432 97.6747 77.6925 96.8427 77.6925 95.776C77.6925 94.5387 77.4152 93.4507 76.8605 92.512C76.3058 91.5627 75.5272 90.8267 74.5245 90.304C73.5325 89.7813 72.3965 89.52 71.1165 89.52C69.8258 89.52 68.6792 89.792 67.6765 90.336C66.6845 90.8693 65.9112 91.6267 65.3565 92.608C64.8018 93.5787 64.5245 94.688 64.5245 95.936C64.5245 97.184 64.7965 98.2987 65.3405 99.28C65.8952 100.261 66.6632 101.024 67.6445 101.568C68.6365 102.112 69.7725 102.384 71.0525 102.384C71.5538 102.384 72.0765 102.325 72.6205 102.208C73.1752 102.091 73.6765 101.915 74.1245 101.68L74.3965 102.464C73.9378 102.699 73.4045 102.88 72.7965 103.008C72.1992 103.136 71.6178 103.2 71.0525 103.2C69.6018 103.2 68.3165 102.891 67.1965 102.272C66.0765 101.653 65.2018 100.795 64.5725 99.696C63.9538 98.5867 63.6445 97.3333 63.6445 95.936C63.6445 94.528 63.9592 93.28 64.5885 92.192C65.2178 91.0933 66.0978 90.24 67.2285 89.632C68.3698 89.0133 69.6658 88.704 71.1165 88.704ZM71.0045 99.152C71.5805 99.152 72.0978 99.0187 72.5565 98.752C73.0152 98.4853 73.3778 98.112 73.6445 97.632C73.9112 97.1413 74.0445 96.576 74.0445 95.936C74.0445 95.3067 73.9112 94.752 73.6445 94.272C73.3778 93.7813 73.0152 93.408 72.5565 93.152C72.0978 92.8853 71.5805 92.752 71.0045 92.752C70.4178 92.752 69.8898 92.8853 69.4205 93.152C68.9618 93.4187 68.5992 93.792 68.3325 94.272C68.0765 94.752 67.9485 95.3067 67.9485 95.936C67.9485 96.5653 68.0765 97.1253 68.3325 97.616C68.5992 98.096 68.9618 98.4747 69.4205 98.752C69.8898 99.0187 70.4178 99.152 71.0045 99.152ZM83.2958 100.08C82.5384 100.08 81.9518 99.8667 81.5358 99.44C81.1304 99.0133 80.9278 98.4213 80.9278 97.664V88.128H82.0638V97.568C82.0638 98.0693 82.1811 98.4533 82.4158 98.72C82.6504 98.976 83.0024 99.104 83.4718 99.104C83.7704 99.104 84.0264 99.056 84.2398 98.96L84.3198 99.904C83.9891 100.021 83.6478 100.08 83.2958 100.08ZM89.309 99.072C89.8317 99.072 90.3117 98.9813 90.749 98.8C91.197 98.608 91.5757 98.3307 91.885 97.968L92.525 98.704C92.1517 99.152 91.6877 99.4933 91.133 99.728C90.5783 99.9627 89.965 100.08 89.293 100.08C88.429 100.08 87.661 99.8987 86.989 99.536C86.317 99.1627 85.7943 98.6507 85.421 98C85.0477 97.3493 84.861 96.6133 84.861 95.792C84.861 94.9707 85.037 94.2347 85.389 93.584C85.7517 92.9333 86.2477 92.4267 86.877 92.064C87.5063 91.7013 88.221 91.52 89.021 91.52C89.7677 91.52 90.4397 91.6907 91.037 92.032C91.645 92.3733 92.125 92.848 92.477 93.456C92.8397 94.064 93.0317 94.7573 93.053 95.536L86.141 96.88C86.3543 97.5627 86.7383 98.1013 87.293 98.496C87.8583 98.88 88.5303 99.072 89.309 99.072ZM89.021 92.496C88.4343 92.496 87.9063 92.6347 87.437 92.912C86.9783 93.1787 86.6157 93.5573 86.349 94.048C86.093 94.528 85.965 95.0827 85.965 95.712C85.965 95.872 85.9703 95.9893 85.981 96.064L91.917 94.912C91.789 94.208 91.4637 93.632 90.941 93.184C90.4183 92.7253 89.7783 92.496 89.021 92.496ZM103.045 91.584V100H101.957V98.336C101.616 98.9013 101.163 99.3333 100.597 99.632C100.043 99.9307 99.4133 100.08 98.7093 100.08C97.9199 100.08 97.2053 99.8987 96.5653 99.536C95.9253 99.1733 95.4239 98.6667 95.0613 98.016C94.6986 97.3653 94.5173 96.624 94.5173 95.792C94.5173 94.96 94.6986 94.2187 95.0613 93.568C95.4239 92.9173 95.9253 92.416 96.5653 92.064C97.2053 91.7013 97.9199 91.52 98.7093 91.52C99.3919 91.52 100.005 91.664 100.549 91.952C101.104 92.2293 101.557 92.64 101.909 93.184V91.584H103.045ZM98.8053 99.072C99.3919 99.072 99.9199 98.9387 100.389 98.672C100.869 98.3947 101.243 98.0053 101.509 97.504C101.787 97.0027 101.925 96.432 101.925 95.792C101.925 95.152 101.787 94.5813 101.509 94.08C101.243 93.5787 100.869 93.1947 100.389 92.928C99.9199 92.6507 99.3919 92.512 98.8053 92.512C98.2079 92.512 97.6693 92.6507 97.1893 92.928C96.7199 93.1947 96.3466 93.5787 96.0693 94.08C95.8026 94.5813 95.6693 95.152 95.6693 95.792C95.6693 96.432 95.8026 97.0027 96.0693 97.504C96.3466 98.0053 96.7199 98.3947 97.1893 98.672C97.6693 98.9387 98.2079 99.072 98.8053 99.072ZM107.297 93.232C107.564 92.6667 107.958 92.24 108.481 91.952C109.014 91.664 109.67 91.52 110.449 91.52V92.624L110.177 92.608C109.292 92.608 108.598 92.88 108.097 93.424C107.596 93.968 107.345 94.7307 107.345 95.712V100H106.209V91.584H107.297V93.232ZM116.794 91.52C117.85 91.52 118.687 91.8293 119.306 92.448C119.935 93.056 120.25 93.9467 120.25 95.12V100H119.114V95.232C119.114 94.3573 118.895 93.6907 118.458 93.232C118.021 92.7733 117.397 92.544 116.586 92.544C115.679 92.544 114.959 92.816 114.426 93.36C113.903 93.8933 113.642 94.6347 113.642 95.584V100H112.506V91.584H113.594V93.136C113.903 92.624 114.33 92.2293 114.874 91.952C115.429 91.664 116.069 91.52 116.794 91.52ZM123.334 91.584H124.47V100H123.334V91.584ZM123.91 89.744C123.675 89.744 123.478 89.664 123.318 89.504C123.158 89.344 123.078 89.152 123.078 88.928C123.078 88.7147 123.158 88.528 123.318 88.368C123.478 88.208 123.675 88.128 123.91 88.128C124.145 88.128 124.342 88.208 124.502 88.368C124.662 88.5173 124.742 88.6987 124.742 88.912C124.742 89.1467 124.662 89.344 124.502 89.504C124.342 89.664 124.145 89.744 123.91 89.744ZM131.919 91.52C132.975 91.52 133.812 91.8293 134.431 92.448C135.06 93.056 135.375 93.9467 135.375 95.12V100H134.239V95.232C134.239 94.3573 134.02 93.6907 133.583 93.232C133.146 92.7733 132.522 92.544 131.711 92.544C130.804 92.544 130.084 92.816 129.551 93.36C129.028 93.8933 128.767 94.6347 128.767 95.584V100H127.631V91.584H128.719V93.136C129.028 92.624 129.455 92.2293 129.999 91.952C130.554 91.664 131.194 91.52 131.919 91.52ZM146.282 91.584V98.976C146.282 100.405 145.93 101.461 145.226 102.144C144.533 102.837 143.482 103.184 142.074 103.184C141.296 103.184 140.554 103.067 139.85 102.832C139.157 102.608 138.592 102.293 138.154 101.888L138.73 101.024C139.136 101.387 139.626 101.669 140.202 101.872C140.789 102.075 141.402 102.176 142.042 102.176C143.109 102.176 143.893 101.925 144.394 101.424C144.896 100.933 145.146 100.165 145.146 99.12V98.048C144.794 98.5813 144.33 98.9867 143.754 99.264C143.189 99.5413 142.56 99.68 141.866 99.68C141.077 99.68 140.357 99.5093 139.706 99.168C139.066 98.816 138.56 98.3307 138.186 97.712C137.824 97.0827 137.642 96.3733 137.642 95.584C137.642 94.7947 137.824 94.0907 138.186 93.472C138.56 92.8533 139.066 92.3733 139.706 92.032C140.346 91.6907 141.066 91.52 141.866 91.52C142.581 91.52 143.226 91.664 143.802 91.952C144.378 92.24 144.842 92.656 145.194 93.2V91.584H146.282ZM141.978 98.672C142.586 98.672 143.136 98.544 143.626 98.288C144.117 98.0213 144.496 97.6533 144.762 97.184C145.04 96.7147 145.178 96.1813 145.178 95.584C145.178 94.9867 145.04 94.4587 144.762 94C144.496 93.5307 144.117 93.168 143.626 92.912C143.146 92.6453 142.597 92.512 141.978 92.512C141.37 92.512 140.821 92.64 140.33 92.896C139.85 93.152 139.472 93.5147 139.194 93.984C138.928 94.4533 138.794 94.9867 138.794 95.584C138.794 96.1813 138.928 96.7147 139.194 97.184C139.472 97.6533 139.85 98.0213 140.33 98.288C140.821 98.544 141.37 98.672 141.978 98.672ZM150.547 93.232C150.814 92.6667 151.208 92.24 151.731 91.952C152.264 91.664 152.92 91.52 153.699 91.52V92.624L153.427 92.608C152.542 92.608 151.848 92.88 151.347 93.424C150.846 93.968 150.595 94.7307 150.595 95.712V100H149.459V91.584H150.547V93.232ZM159.118 100.08C158.307 100.08 157.576 99.8987 156.926 99.536C156.275 99.1627 155.763 98.6507 155.39 98C155.016 97.3493 154.83 96.6133 154.83 95.792C154.83 94.9707 155.016 94.2347 155.39 93.584C155.763 92.9333 156.275 92.4267 156.926 92.064C157.576 91.7013 158.307 91.52 159.118 91.52C159.928 91.52 160.659 91.7013 161.31 92.064C161.96 92.4267 162.467 92.9333 162.83 93.584C163.203 94.2347 163.39 94.9707 163.39 95.792C163.39 96.6133 163.203 97.3493 162.83 98C162.467 98.6507 161.96 99.1627 161.31 99.536C160.659 99.8987 159.928 100.08 159.118 100.08ZM159.118 99.072C159.715 99.072 160.248 98.9387 160.718 98.672C161.198 98.3947 161.571 98.0053 161.838 97.504C162.104 97.0027 162.238 96.432 162.238 95.792C162.238 95.152 162.104 94.5813 161.838 94.08C161.571 93.5787 161.198 93.1947 160.718 92.928C160.248 92.6507 159.715 92.512 159.118 92.512C158.52 92.512 157.982 92.6507 157.502 92.928C157.032 93.1947 156.659 93.5787 156.382 94.08C156.115 94.5813 155.982 95.152 155.982 95.792C155.982 96.432 156.115 97.0027 156.382 97.504C156.659 98.0053 157.032 98.3947 157.502 98.672C157.982 98.9387 158.52 99.072 159.118 99.072ZM169.149 100.08C168.338 100.08 167.608 99.8987 166.957 99.536C166.306 99.1627 165.794 98.6507 165.421 98C165.048 97.3493 164.861 96.6133 164.861 95.792C164.861 94.9707 165.048 94.2347 165.421 93.584C165.794 92.9333 166.306 92.4267 166.957 92.064C167.608 91.7013 168.338 91.52 169.149 91.52C169.96 91.52 170.69 91.7013 171.341 92.064C171.992 92.4267 172.498 92.9333 172.861 93.584C173.234 94.2347 173.421 94.9707 173.421 95.792C173.421 96.6133 173.234 97.3493 172.861 98C172.498 98.6507 171.992 99.1627 171.341 99.536C170.69 99.8987 169.96 100.08 169.149 100.08ZM169.149 99.072C169.746 99.072 170.28 98.9387 170.749 98.672C171.229 98.3947 171.602 98.0053 171.869 97.504C172.136 97.0027 172.269 96.432 172.269 95.792C172.269 95.152 172.136 94.5813 171.869 94.08C171.602 93.5787 171.229 93.1947 170.749 92.928C170.28 92.6507 169.746 92.512 169.149 92.512C168.552 92.512 168.013 92.6507 167.533 92.928C167.064 93.1947 166.69 93.5787 166.413 94.08C166.146 94.5813 166.013 95.152 166.013 95.792C166.013 96.432 166.146 97.0027 166.413 97.504C166.69 98.0053 167.064 98.3947 167.533 98.672C168.013 98.9387 168.552 99.072 169.149 99.072ZM186.236 91.52C187.292 91.52 188.119 91.824 188.716 92.432C189.324 93.04 189.628 93.936 189.628 95.12V100H188.492V95.232C188.492 94.3573 188.279 93.6907 187.852 93.232C187.436 92.7733 186.844 92.544 186.076 92.544C185.202 92.544 184.514 92.816 184.012 93.36C183.511 93.8933 183.26 94.6347 183.26 95.584V100H182.124V95.232C182.124 94.3573 181.911 93.6907 181.484 93.232C181.068 92.7733 180.471 92.544 179.692 92.544C178.828 92.544 178.14 92.816 177.628 93.36C177.127 93.8933 176.876 94.6347 176.876 95.584V100H175.74V91.584H176.828V93.12C177.127 92.608 177.543 92.2133 178.076 91.936C178.61 91.6587 179.223 91.52 179.916 91.52C180.62 91.52 181.228 91.6693 181.74 91.968C182.263 92.2667 182.652 92.7093 182.908 93.296C183.218 92.7413 183.66 92.3093 184.236 92C184.823 91.68 185.49 91.52 186.236 91.52ZM192.821 100.08C192.586 100.08 192.384 99.9947 192.213 99.824C192.053 99.6533 191.973 99.4453 191.973 99.2C191.973 98.9547 192.053 98.752 192.213 98.592C192.384 98.4213 192.586 98.336 192.821 98.336C193.056 98.336 193.258 98.4213 193.429 98.592C193.6 98.752 193.685 98.9547 193.685 99.2C193.685 99.4453 193.6 99.6533 193.429 99.824C193.258 99.9947 193.056 100.08 192.821 100.08ZM203.545 91.584V100H202.457V98.336C202.116 98.9013 201.663 99.3333 201.097 99.632C200.543 99.9307 199.913 100.08 199.209 100.08C198.42 100.08 197.705 99.8987 197.065 99.536C196.425 99.1733 195.924 98.6667 195.561 98.016C195.199 97.3653 195.017 96.624 195.017 95.792C195.017 94.96 195.199 94.2187 195.561 93.568C195.924 92.9173 196.425 92.416 197.065 92.064C197.705 91.7013 198.42 91.52 199.209 91.52C199.892 91.52 200.505 91.664 201.049 91.952C201.604 92.2293 202.057 92.64 202.409 93.184V91.584H203.545ZM199.305 99.072C199.892 99.072 200.42 98.9387 200.889 98.672C201.369 98.3947 201.743 98.0053 202.009 97.504C202.287 97.0027 202.425 96.432 202.425 95.792C202.425 95.152 202.287 94.5813 202.009 94.08C201.743 93.5787 201.369 93.1947 200.889 92.928C200.42 92.6507 199.892 92.512 199.305 92.512C198.708 92.512 198.169 92.6507 197.689 92.928C197.22 93.1947 196.847 93.5787 196.569 94.08C196.303 94.5813 196.169 95.152 196.169 95.792C196.169 96.432 196.303 97.0027 196.569 97.504C196.847 98.0053 197.22 98.3947 197.689 98.672C198.169 98.9387 198.708 99.072 199.305 99.072ZM210.197 100.08C209.365 100.08 208.618 99.8987 207.957 99.536C207.306 99.1733 206.794 98.6667 206.421 98.016C206.048 97.3547 205.861 96.6133 205.861 95.792C205.861 94.9707 206.048 94.2347 206.421 93.584C206.794 92.9333 207.306 92.4267 207.957 92.064C208.618 91.7013 209.365 91.52 210.197 91.52C210.922 91.52 211.568 91.664 212.133 91.952C212.709 92.2293 213.162 92.64 213.493 93.184L212.645 93.76C212.368 93.344 212.016 93.0347 211.589 92.832C211.162 92.6187 210.698 92.512 210.197 92.512C209.589 92.512 209.04 92.6507 208.549 92.928C208.069 93.1947 207.69 93.5787 207.413 94.08C207.146 94.5813 207.013 95.152 207.013 95.792C207.013 96.4427 207.146 97.0187 207.413 97.52C207.69 98.0107 208.069 98.3947 208.549 98.672C209.04 98.9387 209.589 99.072 210.197 99.072C210.698 99.072 211.162 98.9707 211.589 98.768C212.016 98.5653 212.368 98.256 212.645 97.84L213.493 98.416C213.162 98.96 212.709 99.376 212.133 99.664C211.557 99.9413 210.912 100.08 210.197 100.08ZM216.149 100.08C215.914 100.08 215.712 99.9947 215.541 99.824C215.381 99.6533 215.301 99.4453 215.301 99.2C215.301 98.9547 215.381 98.752 215.541 98.592C215.712 98.4213 215.914 98.336 216.149 98.336C216.384 98.336 216.586 98.4213 216.757 98.592C216.928 98.752 217.013 98.9547 217.013 99.2C217.013 99.4453 216.928 99.6533 216.757 99.824C216.586 99.9947 216.384 100.08 216.149 100.08ZM219.428 91.584H220.564V100H219.428V91.584ZM220.004 89.744C219.769 89.744 219.572 89.664 219.412 89.504C219.252 89.344 219.172 89.152 219.172 88.928C219.172 88.7147 219.252 88.528 219.412 88.368C219.572 88.208 219.769 88.128 220.004 88.128C220.238 88.128 220.436 88.208 220.596 88.368C220.756 88.5173 220.836 88.6987 220.836 88.912C220.836 89.1467 220.756 89.344 220.596 89.504C220.436 89.664 220.238 89.744 220.004 89.744ZM231.405 88.128V100H230.317V98.336C229.975 98.9013 229.522 99.3333 228.957 99.632C228.402 99.9307 227.773 100.08 227.069 100.08C226.279 100.08 225.565 99.8987 224.925 99.536C224.285 99.1733 223.783 98.6667 223.421 98.016C223.058 97.3653 222.877 96.624 222.877 95.792C222.877 94.96 223.058 94.2187 223.421 93.568C223.783 92.9173 224.285 92.416 224.925 92.064C225.565 91.7013 226.279 91.52 227.069 91.52C227.751 91.52 228.365 91.664 228.909 91.952C229.463 92.2293 229.917 92.64 230.269 93.184V88.128H231.405ZM227.165 99.072C227.751 99.072 228.279 98.9387 228.749 98.672C229.229 98.3947 229.602 98.0053 229.869 97.504C230.146 97.0027 230.285 96.432 230.285 95.792C230.285 95.152 230.146 94.5813 229.869 94.08C229.602 93.5787 229.229 93.1947 228.749 92.928C228.279 92.6507 227.751 92.512 227.165 92.512C226.567 92.512 226.029 92.6507 225.549 92.928C225.079 93.1947 224.706 93.5787 224.429 94.08C224.162 94.5813 224.029 95.152 224.029 95.792C224.029 96.432 224.162 97.0027 224.429 97.504C224.706 98.0053 225.079 98.3947 225.549 98.672C226.029 98.9387 226.567 99.072 227.165 99.072Z" fill="#2C2727" fill-opacity="0.8"/>
<path d="M5.872 47.52C6.928 47.52 7.76533 47.8293 8.384 48.448C9.01333 49.056 9.328 49.9467 9.328 51.12V56H8.192V51.232C8.192 50.3573 7.97333 49.6907 7.536 49.232C7.09867 48.7733 6.47467 48.544 5.664 48.544C4.75733 48.544 4.03733 48.816 3.504 49.36C2.98133 49.8933 2.72 50.6347 2.72 51.584V56H1.584V44.128H2.72V49.056C3.02933 48.5653 3.456 48.1867 4 47.92C4.544 47.6533 5.168 47.52 5.872 47.52ZM16.5561 55.488C16.3428 55.68 16.0815 55.8293 15.7721 55.936C15.4628 56.032 15.1375 56.08 14.7961 56.08C14.0068 56.08 13.3988 55.8667 12.9721 55.44C12.5455 55.0133 12.3321 54.4107 12.3321 53.632V45.744H13.4681V47.584H16.0121V48.544H13.4681V53.568C13.4681 54.0693 13.5908 54.4533 13.8361 54.72C14.0815 54.976 14.4388 55.104 14.9081 55.104C15.4201 55.104 15.8361 54.96 16.1561 54.672L16.5561 55.488ZM22.7593 55.488C22.5459 55.68 22.2846 55.8293 21.9753 55.936C21.6659 56.032 21.3406 56.08 20.9993 56.08C20.2099 56.08 19.6019 55.8667 19.1753 55.44C18.7486 55.0133 18.5353 54.4107 18.5353 53.632V45.744H19.6713V47.584H22.2153V48.544H19.6713V53.568C19.6713 54.0693 19.7939 54.4533 20.0393 54.72C20.2846 54.976 20.6419 55.104 21.1113 55.104C21.6233 55.104 22.0393 54.96 22.3593 54.672L22.7593 55.488ZM29.1544 47.52C29.9437 47.52 30.6584 47.7013 31.2984 48.064C31.9384 48.416 32.4397 48.9173 32.8024 49.568C33.165 50.2187 33.3464 50.96 33.3464 51.792C33.3464 52.6347 33.165 53.3813 32.8024 54.032C32.4397 54.6827 31.9384 55.1893 31.2984 55.552C30.669 55.904 29.9544 56.08 29.1544 56.08C28.4717 56.08 27.853 55.9413 27.2984 55.664C26.7544 55.376 26.3064 54.96 25.9544 54.416V59.104H24.8184V47.584H25.9064V49.248C26.2477 48.6933 26.6957 48.2667 27.2504 47.968C27.8157 47.6693 28.4504 47.52 29.1544 47.52ZM29.0744 55.072C29.661 55.072 30.1944 54.9387 30.6744 54.672C31.1544 54.3947 31.5277 54.0053 31.7944 53.504C32.0717 53.0027 32.2104 52.432 32.2104 51.792C32.2104 51.152 32.0717 50.5867 31.7944 50.096C31.5277 49.5947 31.1544 49.2053 30.6744 48.928C30.1944 48.6507 29.661 48.512 29.0744 48.512C28.477 48.512 27.9384 48.6507 27.4584 48.928C26.989 49.2053 26.6157 49.5947 26.3384 50.096C26.0717 50.5867 25.9384 51.152 25.9384 51.792C25.9384 52.432 26.0717 53.0027 26.3384 53.504C26.6157 54.0053 26.989 54.3947 27.4584 54.672C27.9384 54.9387 28.477 55.072 29.0744 55.072ZM37.9181 56.08C37.2355 56.08 36.5795 55.984 35.9501 55.792C35.3315 55.5893 34.8461 55.3387 34.4941 55.04L35.0061 54.144C35.3581 54.4213 35.8008 54.6507 36.3341 54.832C36.8675 55.0027 37.4221 55.088 37.9981 55.088C38.7661 55.088 39.3315 54.9707 39.6941 54.736C40.0675 54.4907 40.2541 54.1493 40.2541 53.712C40.2541 53.4027 40.1528 53.1627 39.9501 52.992C39.7475 52.8107 39.4915 52.6773 39.1821 52.592C38.8728 52.496 38.4621 52.4053 37.9501 52.32C37.2675 52.192 36.7181 52.064 36.3021 51.936C35.8861 51.7973 35.5288 51.568 35.2301 51.248C34.9421 50.928 34.7981 50.4853 34.7981 49.92C34.7981 49.216 35.0915 48.64 35.6781 48.192C36.2648 47.744 37.0808 47.52 38.1261 47.52C38.6701 47.52 39.2141 47.5947 39.7581 47.744C40.3021 47.8827 40.7501 48.0693 41.1021 48.304L40.6061 49.216C39.9128 48.736 39.0861 48.496 38.1261 48.496C37.4008 48.496 36.8515 48.624 36.4781 48.88C36.1155 49.136 35.9341 49.472 35.9341 49.888C35.9341 50.208 36.0355 50.464 36.2381 50.656C36.4515 50.848 36.7128 50.992 37.0221 51.088C37.3315 51.1733 37.7581 51.264 38.3021 51.36C38.9741 51.488 39.5128 51.616 39.9181 51.744C40.3235 51.872 40.6701 52.0907 40.9581 52.4C41.2461 52.7093 41.3901 53.136 41.3901 53.68C41.3901 54.416 41.0808 55.0027 40.4621 55.44C39.8541 55.8667 39.0061 56.08 37.9181 56.08ZM43.6023 49.264C43.3676 49.264 43.1649 49.1787 42.9943 49.008C42.8343 48.8373 42.7543 48.6293 42.7543 48.384C42.7543 48.1387 42.8343 47.936 42.9943 47.776C43.1649 47.6053 43.3676 47.52 43.6023 47.52C43.8369 47.52 44.0396 47.6053 44.2103 47.776C44.3809 47.936 44.4663 48.1387 44.4663 48.384C44.4663 48.6293 44.3809 48.8373 44.2103 49.008C44.0396 49.1787 43.8369 49.264 43.6023 49.264ZM43.6023 56.08C43.3676 56.08 43.1649 55.9947 42.9943 55.824C42.8343 55.6533 42.7543 55.4453 42.7543 55.2C42.7543 54.9547 42.8343 54.752 42.9943 54.592C43.1649 54.4213 43.3676 54.336 43.6023 54.336C43.8369 54.336 44.0396 54.4213 44.2103 54.592C44.3809 54.752 44.4663 54.9547 44.4663 55.2C44.4663 55.4453 44.3809 55.6533 44.2103 55.824C44.0396 55.9947 43.8369 56.08 43.6023 56.08ZM50.8956 42.528H51.9356L46.6556 57.6H45.6156L50.8956 42.528ZM55.2081 42.528H56.2481L50.9681 57.6H49.9281L55.2081 42.528ZM59.6395 56.08C58.8822 56.08 58.2955 55.8667 57.8795 55.44C57.4742 55.0133 57.2715 54.4213 57.2715 53.664V44.128H58.4075V53.568C58.4075 54.0693 58.5248 54.4533 58.7595 54.72C58.9942 54.976 59.3462 55.104 59.8155 55.104C60.1142 55.104 60.3702 55.056 60.5835 54.96L60.6635 55.904C60.3328 56.0213 59.9915 56.08 59.6395 56.08ZM65.6528 55.072C66.1754 55.072 66.6554 54.9813 67.0928 54.8C67.5408 54.608 67.9194 54.3307 68.2288 53.968L68.8688 54.704C68.4954 55.152 68.0314 55.4933 67.4768 55.728C66.9221 55.9627 66.3088 56.08 65.6368 56.08C64.7728 56.08 64.0048 55.8987 63.3328 55.536C62.6608 55.1627 62.1381 54.6507 61.7648 54C61.3914 53.3493 61.2048 52.6133 61.2048 51.792C61.2048 50.9707 61.3808 50.2347 61.7328 49.584C62.0954 48.9333 62.5914 48.4267 63.2208 48.064C63.8501 47.7013 64.5648 47.52 65.3648 47.52C66.1114 47.52 66.7834 47.6907 67.3808 48.032C67.9888 48.3733 68.4688 48.848 68.8208 49.456C69.1834 50.064 69.3754 50.7573 69.3968 51.536L62.4848 52.88C62.6981 53.5627 63.0821 54.1013 63.6368 54.496C64.2021 54.88 64.8741 55.072 65.6528 55.072ZM65.3648 48.496C64.7781 48.496 64.2501 48.6347 63.7808 48.912C63.3221 49.1787 62.9594 49.5573 62.6928 50.048C62.4368 50.528 62.3088 51.0827 62.3088 51.712C62.3088 51.872 62.3141 51.9893 62.3248 52.064L68.2608 50.912C68.1328 50.208 67.8074 49.632 67.2848 49.184C66.7621 48.7253 66.1221 48.496 65.3648 48.496ZM79.389 47.584V56H78.301V54.336C77.9597 54.9013 77.5063 55.3333 76.941 55.632C76.3863 55.9307 75.757 56.08 75.053 56.08C74.2637 56.08 73.549 55.8987 72.909 55.536C72.269 55.1733 71.7677 54.6667 71.405 54.016C71.0423 53.3653 70.861 52.624 70.861 51.792C70.861 50.96 71.0423 50.2187 71.405 49.568C71.7677 48.9173 72.269 48.416 72.909 48.064C73.549 47.7013 74.2637 47.52 75.053 47.52C75.7357 47.52 76.349 47.664 76.893 47.952C77.4477 48.2293 77.901 48.64 78.253 49.184V47.584H79.389ZM75.149 55.072C75.7357 55.072 76.2637 54.9387 76.733 54.672C77.213 54.3947 77.5863 54.0053 77.853 53.504C78.1303 53.0027 78.269 52.432 78.269 51.792C78.269 51.152 78.1303 50.5813 77.853 50.08C77.5863 49.5787 77.213 49.1947 76.733 48.928C76.2637 48.6507 75.7357 48.512 75.149 48.512C74.5517 48.512 74.013 48.6507 73.533 48.928C73.0637 49.1947 72.6903 49.5787 72.413 50.08C72.1463 50.5813 72.013 51.152 72.013 51.792C72.013 52.432 72.1463 53.0027 72.413 53.504C72.6903 54.0053 73.0637 54.3947 73.533 54.672C74.013 54.9387 74.5517 55.072 75.149 55.072ZM83.6408 49.232C83.9074 48.6667 84.3021 48.24 84.8248 47.952C85.3581 47.664 86.0141 47.52 86.7928 47.52V48.624L86.5208 48.608C85.6354 48.608 84.9421 48.88 84.4408 49.424C83.9394 49.968 83.6888 50.7307 83.6888 51.712V56H82.5528V47.584H83.6408V49.232ZM93.1376 47.52C94.1936 47.52 95.031 47.8293 95.6496 48.448C96.279 49.056 96.5936 49.9467 96.5936 51.12V56H95.4576V51.232C95.4576 50.3573 95.239 49.6907 94.8016 49.232C94.3643 48.7733 93.7403 48.544 92.9296 48.544C92.023 48.544 91.303 48.816 90.7696 49.36C90.247 49.8933 89.9856 50.6347 89.9856 51.584V56H88.8496V47.584H89.9376V49.136C90.247 48.624 90.6736 48.2293 91.2176 47.952C91.7723 47.664 92.4123 47.52 93.1376 47.52ZM99.6778 47.584H100.814V56H99.6778V47.584ZM100.254 45.744C100.019 45.744 99.8218 45.664 99.6618 45.504C99.5018 45.344 99.4218 45.152 99.4218 44.928C99.4218 44.7147 99.5018 44.528 99.6618 44.368C99.8218 44.208 100.019 44.128 100.254 44.128C100.488 44.128 100.686 44.208 100.846 44.368C101.006 44.5173 101.086 44.6987 101.086 44.912C101.086 45.1467 101.006 45.344 100.846 45.504C100.686 45.664 100.488 45.744 100.254 45.744ZM108.263 47.52C109.319 47.52 110.156 47.8293 110.775 48.448C111.404 49.056 111.719 49.9467 111.719 51.12V56H110.583V51.232C110.583 50.3573 110.364 49.6907 109.927 49.232C109.489 48.7733 108.865 48.544 108.055 48.544C107.148 48.544 106.428 48.816 105.895 49.36C105.372 49.8933 105.111 50.6347 105.111 51.584V56H103.975V47.584H105.063V49.136C105.372 48.624 105.799 48.2293 106.343 47.952C106.897 47.664 107.537 47.52 108.263 47.52ZM122.626 47.584V54.976C122.626 56.4053 122.274 57.4613 121.57 58.144C120.877 58.8373 119.826 59.184 118.418 59.184C117.639 59.184 116.898 59.0667 116.194 58.832C115.501 58.608 114.935 58.2933 114.498 57.888L115.074 57.024C115.479 57.3867 115.97 57.6693 116.546 57.872C117.133 58.0747 117.746 58.176 118.386 58.176C119.453 58.176 120.237 57.9253 120.738 57.424C121.239 56.9333 121.49 56.1653 121.49 55.12V54.048C121.138 54.5813 120.674 54.9867 120.098 55.264C119.533 55.5413 118.903 55.68 118.21 55.68C117.421 55.68 116.701 55.5093 116.05 55.168C115.41 54.816 114.903 54.3307 114.53 53.712C114.167 53.0827 113.986 52.3733 113.986 51.584C113.986 50.7947 114.167 50.0907 114.53 49.472C114.903 48.8533 115.41 48.3733 116.05 48.032C116.69 47.6907 117.41 47.52 118.21 47.52C118.925 47.52 119.57 47.664 120.146 47.952C120.722 48.24 121.186 48.656 121.538 49.2V47.584H122.626ZM118.322 54.672C118.93 54.672 119.479 54.544 119.97 54.288C120.461 54.0213 120.839 53.6533 121.106 53.184C121.383 52.7147 121.522 52.1813 121.522 51.584C121.522 50.9867 121.383 50.4587 121.106 50C120.839 49.5307 120.461 49.168 119.97 48.912C119.49 48.6453 118.941 48.512 118.322 48.512C117.714 48.512 117.165 48.64 116.674 48.896C116.194 49.152 115.815 49.5147 115.538 49.984C115.271 50.4533 115.138 50.9867 115.138 51.584C115.138 52.1813 115.271 52.7147 115.538 53.184C115.815 53.6533 116.194 54.0213 116.674 54.288C117.165 54.544 117.714 54.672 118.322 54.672ZM126.891 49.232C127.157 48.6667 127.552 48.24 128.075 47.952C128.608 47.664 129.264 47.52 130.043 47.52V48.624L129.771 48.608C128.885 48.608 128.192 48.88 127.691 49.424C127.189 49.968 126.939 50.7307 126.939 51.712V56H125.803V47.584H126.891V49.232ZM135.462 56.08C134.651 56.08 133.92 55.8987 133.27 55.536C132.619 55.1627 132.107 54.6507 131.734 54C131.36 53.3493 131.174 52.6133 131.174 51.792C131.174 50.9707 131.36 50.2347 131.734 49.584C132.107 48.9333 132.619 48.4267 133.27 48.064C133.92 47.7013 134.651 47.52 135.462 47.52C136.272 47.52 137.003 47.7013 137.654 48.064C138.304 48.4267 138.811 48.9333 139.174 49.584C139.547 50.2347 139.734 50.9707 139.734 51.792C139.734 52.6133 139.547 53.3493 139.174 54C138.811 54.6507 138.304 55.1627 137.654 55.536C137.003 55.8987 136.272 56.08 135.462 56.08ZM135.462 55.072C136.059 55.072 136.592 54.9387 137.062 54.672C137.542 54.3947 137.915 54.0053 138.182 53.504C138.448 53.0027 138.582 52.432 138.582 51.792C138.582 51.152 138.448 50.5813 138.182 50.08C137.915 49.5787 137.542 49.1947 137.062 48.928C136.592 48.6507 136.059 48.512 135.462 48.512C134.864 48.512 134.326 48.6507 133.846 48.928C133.376 49.1947 133.003 49.5787 132.726 50.08C132.459 50.5813 132.326 51.152 132.326 51.792C132.326 52.432 132.459 53.0027 132.726 53.504C133.003 54.0053 133.376 54.3947 133.846 54.672C134.326 54.9387 134.864 55.072 135.462 55.072ZM145.493 56.08C144.682 56.08 143.951 55.8987 143.301 55.536C142.65 55.1627 142.138 54.6507 141.765 54C141.391 53.3493 141.205 52.6133 141.205 51.792C141.205 50.9707 141.391 50.2347 141.765 49.584C142.138 48.9333 142.65 48.4267 143.301 48.064C143.951 47.7013 144.682 47.52 145.493 47.52C146.303 47.52 147.034 47.7013 147.685 48.064C148.335 48.4267 148.842 48.9333 149.205 49.584C149.578 50.2347 149.765 50.9707 149.765 51.792C149.765 52.6133 149.578 53.3493 149.205 54C148.842 54.6507 148.335 55.1627 147.685 55.536C147.034 55.8987 146.303 56.08 145.493 56.08ZM145.493 55.072C146.09 55.072 146.623 54.9387 147.093 54.672C147.573 54.3947 147.946 54.0053 148.213 53.504C148.479 53.0027 148.613 52.432 148.613 51.792C148.613 51.152 148.479 50.5813 148.213 50.08C147.946 49.5787 147.573 49.1947 147.093 48.928C146.623 48.6507 146.09 48.512 145.493 48.512C144.895 48.512 144.357 48.6507 143.877 48.928C143.407 49.1947 143.034 49.5787 142.757 50.08C142.49 50.5813 142.357 51.152 142.357 51.792C142.357 52.432 142.49 53.0027 142.757 53.504C143.034 54.0053 143.407 54.3947 143.877 54.672C144.357 54.9387 144.895 55.072 145.493 55.072ZM162.58 47.52C163.636 47.52 164.463 47.824 165.06 48.432C165.668 49.04 165.972 49.936 165.972 51.12V56H164.836V51.232C164.836 50.3573 164.623 49.6907 164.196 49.232C163.78 48.7733 163.188 48.544 162.42 48.544C161.545 48.544 160.857 48.816 160.356 49.36C159.855 49.8933 159.604 50.6347 159.604 51.584V56H158.468V51.232C158.468 50.3573 158.255 49.6907 157.828 49.232C157.412 48.7733 156.815 48.544 156.036 48.544C155.172 48.544 154.484 48.816 153.972 49.36C153.471 49.8933 153.22 50.6347 153.22 51.584V56H152.084V47.584H153.172V49.12C153.471 48.608 153.887 48.2133 154.42 47.936C154.953 47.6587 155.567 47.52 156.26 47.52C156.964 47.52 157.572 47.6693 158.084 47.968C158.607 48.2667 158.996 48.7093 159.252 49.296C159.561 48.7413 160.004 48.3093 160.58 48C161.167 47.68 161.833 47.52 162.58 47.52ZM169.165 56.08C168.93 56.08 168.727 55.9947 168.557 55.824C168.397 55.6533 168.317 55.4453 168.317 55.2C168.317 54.9547 168.397 54.752 168.557 54.592C168.727 54.4213 168.93 54.336 169.165 54.336C169.399 54.336 169.602 54.4213 169.773 54.592C169.943 54.752 170.029 54.9547 170.029 55.2C170.029 55.4453 169.943 55.6533 169.773 55.824C169.602 55.9947 169.399 56.08 169.165 56.08ZM179.889 47.584V56H178.801V54.336C178.46 54.9013 178.006 55.3333 177.441 55.632C176.886 55.9307 176.257 56.08 175.553 56.08C174.764 56.08 174.049 55.8987 173.409 55.536C172.769 55.1733 172.268 54.6667 171.905 54.016C171.542 53.3653 171.361 52.624 171.361 51.792C171.361 50.96 171.542 50.2187 171.905 49.568C172.268 48.9173 172.769 48.416 173.409 48.064C174.049 47.7013 174.764 47.52 175.553 47.52C176.236 47.52 176.849 47.664 177.393 47.952C177.948 48.2293 178.401 48.64 178.753 49.184V47.584H179.889ZM175.649 55.072C176.236 55.072 176.764 54.9387 177.233 54.672C177.713 54.3947 178.086 54.0053 178.353 53.504C178.63 53.0027 178.769 52.432 178.769 51.792C178.769 51.152 178.63 50.5813 178.353 50.08C178.086 49.5787 177.713 49.1947 177.233 48.928C176.764 48.6507 176.236 48.512 175.649 48.512C175.052 48.512 174.513 48.6507 174.033 48.928C173.564 49.1947 173.19 49.5787 172.913 50.08C172.646 50.5813 172.513 51.152 172.513 51.792C172.513 52.432 172.646 53.0027 172.913 53.504C173.19 54.0053 173.564 54.3947 174.033 54.672C174.513 54.9387 175.052 55.072 175.649 55.072ZM186.541 56.08C185.709 56.08 184.962 55.8987 184.301 55.536C183.65 55.1733 183.138 54.6667 182.765 54.016C182.391 53.3547 182.205 52.6133 182.205 51.792C182.205 50.9707 182.391 50.2347 182.765 49.584C183.138 48.9333 183.65 48.4267 184.301 48.064C184.962 47.7013 185.709 47.52 186.541 47.52C187.266 47.52 187.911 47.664 188.477 47.952C189.053 48.2293 189.506 48.64 189.837 49.184L188.989 49.76C188.711 49.344 188.359 49.0347 187.933 48.832C187.506 48.6187 187.042 48.512 186.541 48.512C185.933 48.512 185.383 48.6507 184.893 48.928C184.413 49.1947 184.034 49.5787 183.757 50.08C183.49 50.5813 183.357 51.152 183.357 51.792C183.357 52.4427 183.49 53.0187 183.757 53.52C184.034 54.0107 184.413 54.3947 184.893 54.672C185.383 54.9387 185.933 55.072 186.541 55.072C187.042 55.072 187.506 54.9707 187.933 54.768C188.359 54.5653 188.711 54.256 188.989 53.84L189.837 54.416C189.506 54.96 189.053 55.376 188.477 55.664C187.901 55.9413 187.255 56.08 186.541 56.08ZM192.493 56.08C192.258 56.08 192.056 55.9947 191.885 55.824C191.725 55.6533 191.645 55.4453 191.645 55.2C191.645 54.9547 191.725 54.752 191.885 54.592C192.056 54.4213 192.258 54.336 192.493 54.336C192.728 54.336 192.93 54.4213 193.101 54.592C193.272 54.752 193.357 54.9547 193.357 55.2C193.357 55.4453 193.272 55.6533 193.101 55.824C192.93 55.9947 192.728 56.08 192.493 56.08ZM195.772 47.584H196.908V56H195.772V47.584ZM196.348 45.744C196.113 45.744 195.916 45.664 195.756 45.504C195.596 45.344 195.516 45.152 195.516 44.928C195.516 44.7147 195.596 44.528 195.756 44.368C195.916 44.208 196.113 44.128 196.348 44.128C196.582 44.128 196.78 44.208 196.94 44.368C197.1 44.5173 197.18 44.6987 197.18 44.912C197.18 45.1467 197.1 45.344 196.94 45.504C196.78 45.664 196.582 45.744 196.348 45.744ZM207.748 44.128V56H206.66V54.336C206.319 54.9013 205.866 55.3333 205.3 55.632C204.746 55.9307 204.116 56.08 203.412 56.08C202.623 56.08 201.908 55.8987 201.268 55.536C200.628 55.1733 200.127 54.6667 199.764 54.016C199.402 53.3653 199.22 52.624 199.22 51.792C199.22 50.96 199.402 50.2187 199.764 49.568C200.127 48.9173 200.628 48.416 201.268 48.064C201.908 47.7013 202.623 47.52 203.412 47.52C204.095 47.52 204.708 47.664 205.252 47.952C205.807 48.2293 206.26 48.64 206.612 49.184V44.128H207.748ZM203.508 55.072C204.095 55.072 204.623 54.9387 205.092 54.672C205.572 54.3947 205.946 54.0053 206.212 53.504C206.49 53.0027 206.628 52.432 206.628 51.792C206.628 51.152 206.49 50.5813 206.212 50.08C205.946 49.5787 205.572 49.1947 205.092 48.928C204.623 48.6507 204.095 48.512 203.508 48.512C202.911 48.512 202.372 48.6507 201.892 48.928C201.423 49.1947 201.05 49.5787 200.772 50.08C200.506 50.5813 200.372 51.152 200.372 51.792C200.372 52.432 200.506 53.0027 200.772 53.504C201.05 54.0053 201.423 54.3947 201.892 54.672C202.372 54.9387 202.911 55.072 203.508 55.072Z" fill="#2C2727" fill-opacity="0.8"/>
</svg>
