<svg width="203" height="30" viewBox="0 0 203 30" fill="none" xmlns="http://www.w3.org/2000/svg">
<path d="M24.72 8.84C22.32 7.45333 19.7467 6.56 17 6.16V29H10.52V6.16C7.77333 6.56 5.18667 7.45333 2.76 8.84L0.56 4C2.48 2.85333 4.56 1.98666 6.8 1.4C9.04 0.813332 11.3467 0.52 13.72 0.52C16.12 0.52 18.44 0.813332 20.68 1.4C22.9467 1.98666 25.0267 2.85333 26.92 4L24.72 8.84ZM52.3172 26.6C50.9839 27.5067 49.3039 28.2133 47.2772 28.72C45.2772 29.2267 43.1439 29.48 40.8772 29.48C38.0505 29.48 35.6505 29.1333 33.6772 28.44C31.7039 27.72 30.2105 26.7333 29.1972 25.48C28.1839 24.2 27.6772 22.7467 27.6772 21.12C27.6772 19.6267 28.0905 18.3067 28.9172 17.16C29.7439 16.0133 30.8772 15.16 32.3172 14.6C31.2239 14.0133 30.3705 13.2133 29.7572 12.2C29.1705 11.1867 28.8772 10.0533 28.8772 8.8C28.8772 7.28 29.3439 5.89333 30.2772 4.64C31.2105 3.38667 32.6239 2.38667 34.5172 1.64C36.4105 0.893333 38.7305 0.52 41.4772 0.52C43.2905 0.52 45.0639 0.706666 46.7972 1.08C48.5305 1.42666 50.0372 1.90666 51.3172 2.52L49.5172 7.48C47.0639 6.33333 44.4639 5.76 41.7172 5.76C39.6372 5.76 38.0639 6.08 36.9972 6.72C35.9572 7.33333 35.4372 8.17333 35.4372 9.24C35.4372 10.2267 35.7839 10.9867 36.4772 11.52C37.1972 12.0267 38.2772 12.28 39.7172 12.28H47.3572V17.4H39.3172C37.6905 17.4 36.4372 17.68 35.5572 18.24C34.6772 18.8 34.2372 19.6133 34.2372 20.68C34.2372 21.8 34.7972 22.68 35.9172 23.32C37.0639 23.9333 38.8105 24.24 41.1572 24.24C42.8105 24.24 44.4639 24.0267 46.1172 23.6C47.7705 23.1467 49.1705 22.52 50.3172 21.72L52.3172 26.6ZM70.9569 0.52C74.2902 0.52 76.8902 1.57333 78.7569 3.68C80.6235 5.76 81.5569 8.73333 81.5569 12.6V29H75.0769V12.8C75.0769 10.56 74.5435 8.88 73.4769 7.76C72.4369 6.61333 70.9835 6.04 69.1169 6.04C67.1435 6.04 65.5569 6.65333 64.3569 7.88C63.1835 9.08 62.5969 10.8667 62.5969 13.24V29H56.1169V0.999998H62.3969V4.4C63.3569 3.12 64.5569 2.16 65.9969 1.52C67.4369 0.853333 69.0902 0.52 70.9569 0.52ZM108.353 8.84C105.953 7.45333 103.379 6.56 100.633 6.16V29H94.1528V6.16C91.4061 6.56 88.8195 7.45333 86.3928 8.84L84.1928 4C86.1128 2.85333 88.1928 1.98666 90.4328 1.4C92.6728 0.813332 94.9795 0.52 97.3528 0.52C99.7528 0.52 102.073 0.813332 104.313 1.4C106.579 1.98666 108.659 2.85333 110.553 4L108.353 8.84ZM125.67 0.52C128.257 0.52 130.51 1.02667 132.43 2.04C134.35 3.05333 135.843 4.54667 136.91 6.52C137.977 8.49333 138.51 10.88 138.51 13.68V29H132.03V22.28H119.23V29H112.83V13.68C112.83 10.88 113.363 8.49333 114.43 6.52C115.497 4.54667 116.99 3.05333 118.91 2.04C120.83 1.02667 123.083 0.52 125.67 0.52ZM132.03 17.08V13.08C132.03 10.76 131.457 9.01333 130.31 7.84C129.163 6.64 127.603 6.04 125.63 6.04C123.63 6.04 122.057 6.64 120.91 7.84C119.79 9.01333 119.23 10.76 119.23 13.08V17.08H132.03ZM159.746 0.52C163.079 0.52 165.679 1.57333 167.546 3.68C169.413 5.76 170.346 8.73333 170.346 12.6V29H163.866V12.8C163.866 10.56 163.333 8.88 162.266 7.76C161.226 6.61333 159.773 6.04 157.906 6.04C155.933 6.04 154.346 6.65333 153.146 7.88C151.973 9.08 151.386 10.8667 151.386 13.24V29H144.906V0.999998H151.186V4.4C152.146 3.12 153.346 2.16 154.786 1.52C156.226 0.853333 157.879 0.52 159.746 0.52ZM195.662 14.56H201.582V29H196.702V27.32C194.755 28.76 192.249 29.48 189.182 29.48C186.595 29.48 184.222 28.92 182.062 27.8C179.902 26.68 178.182 25.0533 176.902 22.92C175.622 20.76 174.982 18.2 174.982 15.24C174.982 12.3867 175.635 9.85333 176.942 7.64C178.275 5.4 180.115 3.65333 182.462 2.4C184.809 1.14667 187.449 0.52 190.382 0.52C192.835 0.52 195.062 0.933332 197.062 1.76C199.062 2.58666 200.742 3.78667 202.102 5.36L197.942 9.2C195.942 7.09333 193.529 6.04 190.702 6.04C188.915 6.04 187.329 6.42667 185.942 7.2C184.555 7.94667 183.475 9.01333 182.702 10.4C181.929 11.7867 181.542 13.3867 181.542 15.2C181.542 17.0933 181.915 18.7067 182.662 20.04C183.435 21.3733 184.462 22.3867 185.742 23.08C187.022 23.7467 188.422 24.08 189.942 24.08C192.209 24.08 194.115 23.44 195.662 22.16V14.56Z" fill="white"/>
</svg>
