<svg width="137" height="30" viewBox="0 0 137 30" fill="none" xmlns="http://www.w3.org/2000/svg">
<path d="M24.72 8.84C22.32 7.45333 19.7467 6.56 17 6.16V29H10.52V6.16C7.77333 6.56 5.18667 7.45333 2.76 8.84L0.56 4C2.48 2.85333 4.56 1.98666 6.8 1.4C9.04 0.813332 11.3467 0.52 13.72 0.52C16.12 0.52 18.44 0.813332 20.68 1.4C22.9467 1.98666 25.0267 2.85333 26.92 4L24.72 8.84ZM42.9972 29.48C40.0905 29.48 37.4639 28.8533 35.1172 27.6C32.7972 26.3467 30.9705 24.6267 29.6372 22.44C28.3305 20.2267 27.6772 17.7467 27.6772 15C27.6772 12.2533 28.3305 9.78667 29.6372 7.6C30.9705 5.38667 32.7972 3.65333 35.1172 2.4C37.4639 1.14667 40.0905 0.52 42.9972 0.52C45.9039 0.52 48.5172 1.14667 50.8372 2.4C53.1572 3.65333 54.9839 5.38667 56.3172 7.6C57.6505 9.78667 58.3172 12.2533 58.3172 15C58.3172 17.7467 57.6505 20.2267 56.3172 22.44C54.9839 24.6267 53.1572 26.3467 50.8372 27.6C48.5172 28.8533 45.9039 29.48 42.9972 29.48ZM42.9972 23.96C44.6505 23.96 46.1439 23.5867 47.4772 22.84C48.8105 22.0667 49.8505 21 50.5972 19.64C51.3705 18.28 51.7572 16.7333 51.7572 15C51.7572 13.2667 51.3705 11.72 50.5972 10.36C49.8505 9 48.8105 7.94667 47.4772 7.2C46.1439 6.42667 44.6505 6.04 42.9972 6.04C41.3439 6.04 39.8505 6.42667 38.5172 7.2C37.1839 7.94667 36.1305 9 35.3572 10.36C34.6105 11.72 34.2372 13.2667 34.2372 15C34.2372 16.7333 34.6105 18.28 35.3572 19.64C36.1305 21 37.1839 22.0667 38.5172 22.84C39.8505 23.5867 41.3439 23.96 42.9972 23.96ZM74.5153 0.999998H87.2353C90.2753 0.999998 92.9553 1.58667 95.2753 2.76C97.622 3.90667 99.4353 5.53333 100.715 7.64C102.022 9.74667 102.675 12.2 102.675 15C102.675 17.8 102.022 20.2533 100.715 22.36C99.4353 24.4667 97.622 26.1067 95.2753 27.28C92.9553 28.4267 90.2753 29 87.2353 29H74.5153V0.999998ZM86.9153 23.68C89.7153 23.68 91.942 22.9067 93.5953 21.36C95.2753 19.7867 96.1153 17.6667 96.1153 15C96.1153 12.3333 95.2753 10.2267 93.5953 8.68C91.942 7.10667 89.7153 6.32 86.9153 6.32H80.9953V23.68H86.9153ZM121.122 29.48C118.216 29.48 115.589 28.8533 113.242 27.6C110.922 26.3467 109.096 24.6267 107.762 22.44C106.456 20.2267 105.802 17.7467 105.802 15C105.802 12.2533 106.456 9.78667 107.762 7.6C109.096 5.38667 110.922 3.65333 113.242 2.4C115.589 1.14667 118.216 0.52 121.122 0.52C124.029 0.52 126.642 1.14667 128.962 2.4C131.282 3.65333 133.109 5.38667 134.442 7.6C135.776 9.78667 136.442 12.2533 136.442 15C136.442 17.7467 135.776 20.2267 134.442 22.44C133.109 24.6267 131.282 26.3467 128.962 27.6C126.642 28.8533 124.029 29.48 121.122 29.48ZM121.122 23.96C122.776 23.96 124.269 23.5867 125.602 22.84C126.936 22.0667 127.976 21 128.722 19.64C129.496 18.28 129.882 16.7333 129.882 15C129.882 13.2667 129.496 11.72 128.722 10.36C127.976 9 126.936 7.94667 125.602 7.2C124.269 6.42667 122.776 6.04 121.122 6.04C119.469 6.04 117.976 6.42667 116.642 7.2C115.309 7.94667 114.256 9 113.482 10.36C112.736 11.72 112.362 13.2667 112.362 15C112.362 16.7333 112.736 18.28 113.482 19.64C114.256 21 115.309 22.0667 116.642 22.84C117.976 23.5867 119.469 23.96 121.122 23.96Z" fill="white"/>
</svg>
