<svg width="55" height="58" viewBox="0 0 55 58" fill="none" xmlns="http://www.w3.org/2000/svg">
<g filter="url(#filter0_d_253_65)">
<path d="M11.3438 15.625C11.7333 15.625 12.1069 15.4604 12.3823 15.1674C12.6578 14.8743 12.8125 14.4769 12.8125 14.0625C12.8125 13.6481 12.6578 13.2507 12.3823 12.9576C12.1069 12.6646 11.7333 12.5 11.3438 12.5C10.9542 12.5 10.5806 12.6646 10.3052 12.9576C10.0297 13.2507 9.875 13.6481 9.875 14.0625C9.875 14.4769 10.0297 14.8743 10.3052 15.1674C10.5806 15.4604 10.9542 15.625 11.3438 15.625ZM15.75 15.625C16.1395 15.625 16.5131 15.4604 16.7886 15.1674C17.064 14.8743 17.2188 14.4769 17.2188 14.0625C17.2188 13.6481 17.064 13.2507 16.7886 12.9576C16.5131 12.6646 16.1395 12.5 15.75 12.5C15.3605 12.5 14.9869 12.6646 14.7114 12.9576C14.436 13.2507 14.2812 13.6481 14.2812 14.0625C14.2812 14.4769 14.436 14.8743 14.7114 15.1674C14.9869 15.4604 15.3605 15.625 15.75 15.625ZM21.625 14.0625C21.625 14.4769 21.4703 14.8743 21.1948 15.1674C20.9194 15.4604 20.5458 15.625 20.1562 15.625C19.7667 15.625 19.3931 15.4604 19.1177 15.1674C18.8422 14.8743 18.6875 14.4769 18.6875 14.0625C18.6875 13.6481 18.8422 13.2507 19.1177 12.9576C19.3931 12.6646 19.7667 12.5 20.1562 12.5C20.5458 12.5 20.9194 12.6646 21.1948 12.9576C21.4703 13.2507 21.625 13.6481 21.625 14.0625Z" fill="black" fill-opacity="0.8"/>
<path d="M4 12.5C4 10.8424 4.61897 9.25268 5.72075 8.08058C6.82252 6.90848 8.31685 6.25 9.875 6.25H42.1875C43.7456 6.25 45.24 6.90848 46.3418 8.08058C47.4435 9.25268 48.0625 10.8424 48.0625 12.5V25C48.0625 25.4144 47.9078 25.8118 47.6323 26.1049C47.3569 26.3979 46.9833 26.5625 46.5938 26.5625C46.2042 26.5625 45.8306 26.3979 45.5552 26.1049C45.2797 25.8118 45.125 25.4144 45.125 25V21.875H6.9375V37.5C6.9375 38.3288 7.24699 39.1237 7.79787 39.7097C8.34876 40.2958 9.09593 40.625 9.875 40.625H26.0312C26.4208 40.625 26.7944 40.7896 27.0698 41.0826C27.3453 41.3757 27.5 41.7731 27.5 42.1875C27.5 42.6019 27.3453 42.9993 27.0698 43.2924C26.7944 43.5854 26.4208 43.75 26.0312 43.75H9.875C8.31685 43.75 6.82252 43.0915 5.72075 41.9194C4.61897 40.7473 4 39.1576 4 37.5V12.5ZM6.9375 18.75H45.125V12.5C45.125 11.6712 44.8155 10.8763 44.2646 10.2903C43.7137 9.70424 42.9666 9.375 42.1875 9.375H9.875C9.09593 9.375 8.34876 9.70424 7.79787 10.2903C7.24699 10.8763 6.9375 11.6712 6.9375 12.5V18.75Z" fill="black" fill-opacity="0.8"/>
<path d="M51 39.0625C51 41.9633 49.9168 44.7453 47.9887 46.7965C46.0606 48.8477 43.4455 50 40.7188 50C37.992 50 35.3769 48.8477 33.4488 46.7965C31.5207 44.7453 30.4375 41.9633 30.4375 39.0625C30.4375 36.1617 31.5207 33.3797 33.4488 31.3285C35.3769 29.2773 37.992 28.125 40.7188 28.125C43.4455 28.125 46.0606 29.2773 47.9887 31.3285C49.9168 33.3797 51 36.1617 51 39.0625ZM40.7188 32.8125C40.3292 32.8125 39.9556 32.9771 39.6802 33.2701C39.4047 33.5632 39.25 33.9606 39.25 34.375V37.5H36.3125C35.923 37.5 35.5494 37.6646 35.2739 37.9576C34.9985 38.2507 34.8438 38.6481 34.8438 39.0625C34.8438 39.4769 34.9985 39.8743 35.2739 40.1674C35.5494 40.4604 35.923 40.625 36.3125 40.625H39.25V43.75C39.25 44.1644 39.4047 44.5618 39.6802 44.8549C39.9556 45.1479 40.3292 45.3125 40.7188 45.3125C41.1083 45.3125 41.4819 45.1479 41.7573 44.8549C42.0328 44.5618 42.1875 44.1644 42.1875 43.75V40.625H45.125C45.5145 40.625 45.8881 40.4604 46.1636 40.1674C46.439 39.8743 46.5938 39.4769 46.5938 39.0625C46.5938 38.6481 46.439 38.2507 46.1636 37.9576C45.8881 37.6646 45.5145 37.5 45.125 37.5H42.1875V34.375C42.1875 33.9606 42.0328 33.5632 41.7573 33.2701C41.4819 32.9771 41.1083 32.8125 40.7188 32.8125Z" fill="black" fill-opacity="0.8"/>
</g>
<defs>
<filter id="filter0_d_253_65" x="0" y="0" width="55" height="58" filterUnits="userSpaceOnUse" color-interpolation-filters="sRGB">
<feFlood flood-opacity="0" result="BackgroundImageFix"/>
<feColorMatrix in="SourceAlpha" type="matrix" values="0 0 0 0 0 0 0 0 0 0 0 0 0 0 0 0 0 0 127 0" result="hardAlpha"/>
<feOffset dy="4"/>
<feGaussianBlur stdDeviation="2"/>
<feComposite in2="hardAlpha" operator="out"/>
<feColorMatrix type="matrix" values="0 0 0 0 0 0 0 0 0 0 0 0 0 0 0 0 0 0 0.25 0"/>
<feBlend mode="normal" in2="BackgroundImageFix" result="effect1_dropShadow_253_65"/>
<feBlend mode="normal" in="SourceGraphic" in2="effect1_dropShadow_253_65" result="shape"/>
</filter>
</defs>
</svg>
